<svg width="38" height="34" viewBox="0 0 38 34" fill="none" xmlns="http://www.w3.org/2000/svg">
<path d="M15.6316 31.7999C15.5923 31.4854 15.494 31.112 15.3564 30.7386C15.317 30.6403 15.2777 30.5617 15.2384 30.4634C15.1991 30.3652 15.1597 30.2866 15.1204 30.1883C15.0418 30.0114 14.9435 29.8345 14.8648 29.6576C14.7862 29.5004 14.6878 29.3235 14.5699 29.1663C14.5502 29.127 14.5109 29.0877 14.4912 29.0484L14.4519 28.9894L14.4126 28.9304C14.3536 28.8518 14.2946 28.7732 14.2356 28.6946C14.1766 28.616 14.1176 28.557 14.0587 28.4981C14.0193 28.4587 13.9997 28.4391 13.98 28.3998C13.9603 28.3605 13.921 28.3408 13.9014 28.3015C13.7834 28.1836 13.6654 28.105 13.5671 28.046C13.5081 28.4194 13.5474 28.8518 13.6457 29.3039C13.6851 29.5201 13.7637 29.7559 13.8424 29.9721C13.8817 30.09 13.921 30.1883 13.98 30.3062C14.0193 30.4045 14.0783 30.5224 14.1373 30.6207C14.2159 30.7779 14.3339 30.9351 14.4519 31.0727C14.5699 31.2103 14.7075 31.3479 14.8255 31.4658C14.8845 31.5247 14.9631 31.5837 15.0221 31.623C15.0418 31.6427 15.0614 31.6427 15.0811 31.6623L14.9631 31.623C14.8648 31.6034 14.7468 31.564 14.6485 31.5444L14.039 31.3479C13.8424 31.2692 13.6457 31.2103 13.4295 31.1317C13.3705 31.112 13.3311 31.0924 13.2722 31.0727L13.1149 31.0137L12.8789 30.9155C12.8789 30.8958 12.8789 30.8958 12.8789 30.8762C12.8986 30.5617 12.8592 30.1883 12.7806 29.8149C12.7413 29.6183 12.7019 29.4218 12.6626 29.2449C12.643 29.1466 12.6036 29.0484 12.584 28.9697C12.5643 28.8715 12.525 28.7929 12.5053 28.6946C12.4463 28.5177 12.3873 28.3408 12.3087 28.1836C12.2694 28.105 12.23 28.0067 12.1907 27.9281C12.1514 27.8495 12.1121 27.7512 12.0727 27.6726C12.0334 27.594 11.9744 27.5154 11.9351 27.4367C11.8958 27.3581 11.8368 27.2992 11.7975 27.2206C11.7581 27.1616 11.6992 27.1026 11.6598 27.0437C11.6402 27.024 11.6205 26.9847 11.5812 26.9651C11.5615 26.9454 11.5419 26.9257 11.5025 26.9061C11.4829 26.9847 11.4435 27.083 11.4239 27.1812C11.4042 27.2795 11.3846 27.3778 11.3846 27.476C11.3649 27.6726 11.3452 27.9084 11.3649 28.1246C11.3649 28.3605 11.4042 28.5767 11.4435 28.8125C11.4829 29.0287 11.5419 29.2646 11.6205 29.4807C11.6795 29.6576 11.7581 29.8149 11.8368 29.9721C11.8761 30.0507 11.9351 30.1293 11.9744 30.2079C12.0334 30.2866 12.0727 30.3455 12.1317 30.4241C12.2104 30.5224 12.2694 30.601 12.348 30.6796C11.7188 30.3848 11.1289 30.0704 10.5391 29.7166C10.4801 29.6773 10.4211 29.638 10.3621 29.5987C10.3621 29.579 10.3818 29.579 10.3818 29.5594C10.4604 29.2645 10.4801 28.8911 10.4801 28.5177C10.4801 28.3212 10.4604 28.1246 10.4604 27.9477C10.4408 27.7512 10.4211 27.5743 10.4014 27.3778C10.3818 27.2009 10.3424 27.024 10.2835 26.8471C10.2441 26.6702 10.1851 26.4934 10.1262 26.3165C10.0672 26.1592 10.0082 25.9824 9.92953 25.8448C9.85089 25.7072 9.77224 25.5893 9.71325 25.491C9.55595 25.8055 9.43797 26.2182 9.37899 26.6506C9.35933 26.7685 9.35932 26.8668 9.33966 26.9847C9.33966 27.1026 9.33966 27.2009 9.33966 27.3188C9.33966 27.4367 9.33966 27.5547 9.35933 27.6529C9.35933 27.7709 9.37899 27.8691 9.39865 27.9871C9.45764 28.3212 9.57561 28.6946 9.75257 28.9894C9.7919 29.068 9.83122 29.127 9.87055 29.2056C9.89021 29.2449 9.90987 29.2646 9.92953 29.2842C9.43797 28.9304 8.94641 28.5767 8.49418 28.1639C8.39587 28.0853 8.29755 27.9871 8.19924 27.8888C8.2189 27.8691 8.2189 27.8691 8.2189 27.8495C8.33688 27.5743 8.41553 27.2206 8.47451 26.8668C8.51384 26.6899 8.5335 26.4934 8.5335 26.2968C8.5335 26.1986 8.55316 26.1003 8.55316 26.0217C8.55316 25.9234 8.55317 25.8448 8.57283 25.7465C8.57283 25.5696 8.57283 25.3927 8.55316 25.2159C8.5335 25.039 8.51384 24.8424 8.49418 24.6852C8.49418 24.6459 8.47451 24.6066 8.47451 24.5673C8.47451 24.5476 8.47451 24.528 8.45485 24.5083C8.45485 24.4887 8.45485 24.469 8.43519 24.4494C8.41553 24.3707 8.39587 24.2921 8.3762 24.2135C8.35654 24.1349 8.33688 24.0759 8.29755 24.017C8.27789 23.9777 8.27789 23.958 8.25823 23.9384C8.23856 23.9187 8.23857 23.8794 8.2189 23.8597C8.15992 23.9384 8.12059 23.9973 8.0616 24.0956C8.02228 24.1742 7.96329 24.2528 7.92397 24.3511C7.84532 24.528 7.76667 24.7245 7.70768 24.9407C7.66835 25.039 7.64869 25.1569 7.62903 25.2552C7.60937 25.3534 7.5897 25.4714 7.57004 25.5893C7.55038 25.7072 7.55038 25.8055 7.53072 25.9234C7.53072 26.0413 7.51105 26.1396 7.51105 26.2575C7.51105 26.5916 7.57004 26.965 7.68802 27.2795C7.72734 27.3974 7.76667 27.5154 7.82565 27.6136C7.29477 27.1026 6.80321 26.572 6.35097 26.002C6.37063 25.9824 6.37063 25.9824 6.39029 25.9627C6.54759 25.7072 6.68523 25.3927 6.78354 25.039C6.84253 24.8621 6.90152 24.6852 6.94084 24.5083C6.96051 24.4101 6.98017 24.3314 6.99983 24.2332C7.01949 24.1349 7.03916 24.0563 7.05882 23.9777C7.09814 23.8204 7.11781 23.6436 7.11781 23.4667C7.11781 23.3684 7.11781 23.2898 7.13747 23.1915C7.13747 23.0932 7.13747 23.0146 7.13747 22.936C7.13747 22.8574 7.13747 22.7591 7.11781 22.6805C7.11781 22.6019 7.09814 22.5233 7.09814 22.4447C7.07848 22.2874 7.03916 22.1695 6.99983 22.0516C6.76388 22.2874 6.52793 22.6216 6.35097 23.0146C6.31165 23.1129 6.25266 23.2112 6.21333 23.3094C6.17401 23.4077 6.13468 23.506 6.09536 23.6239C6.03637 23.8401 5.97738 24.0563 5.93806 24.2528C5.9184 24.4101 5.89873 24.5869 5.89873 24.7638C5.89873 24.8424 5.89873 24.9407 5.9184 25.0193C5.9184 25.0979 5.93806 25.1766 5.95772 25.2552C5.97738 25.3338 5.99705 25.4124 5.99705 25.491C5.99705 25.5303 6.01671 25.5696 6.01671 25.5893V25.6089C5.58414 25.039 5.19089 24.4494 4.85662 23.8204C4.87629 23.8204 4.89595 23.8008 4.89595 23.7811C5.09257 23.5649 5.26954 23.2701 5.42684 22.9557C5.50549 22.7984 5.58414 22.6216 5.66278 22.4643C5.74143 22.2874 5.80042 22.1302 5.85941 21.973C5.9184 21.8157 5.95772 21.6389 5.99705 21.4816C6.01671 21.403 6.03637 21.3047 6.05603 21.2261C6.0757 21.1475 6.09536 21.0493 6.09536 20.9706C6.11502 20.7938 6.13468 20.6365 6.13468 20.4989C6.13468 20.3417 6.13468 20.2238 6.09536 20.1059C5.95772 20.2041 5.82008 20.3221 5.70211 20.4596C5.56447 20.5972 5.4465 20.7544 5.32852 20.9313C5.09257 21.2654 4.89595 21.6782 4.75831 22.0712C4.73865 22.1499 4.71899 22.2285 4.69932 22.3071C4.67966 22.3857 4.66 22.4643 4.66 22.5626C4.64034 22.7198 4.62067 22.8967 4.64034 23.0539C4.64034 23.1326 4.64034 23.2112 4.66 23.2898C4.66 23.3487 4.67966 23.3881 4.67966 23.447C4.3454 22.8181 4.07013 22.1892 3.81451 21.5209C3.83418 21.5209 3.85384 21.5013 3.8735 21.5013C4.08979 21.3244 4.30608 21.0689 4.52236 20.7741C4.62068 20.6365 4.71899 20.4793 4.8173 20.3417C4.91561 20.1845 4.99426 20.0273 5.07291 19.8897C5.21055 19.6145 5.36785 19.2608 5.4465 18.9463C5.46616 18.8677 5.48582 18.7891 5.50548 18.7104C5.52515 18.6318 5.54481 18.5532 5.54481 18.4943C5.56447 18.4156 5.56447 18.3567 5.56447 18.2977C5.56447 18.2388 5.56447 18.1798 5.56447 18.1208C5.48582 18.1601 5.42684 18.1994 5.34819 18.2584C5.26954 18.2977 5.19089 18.3567 5.1319 18.4156C4.99426 18.5336 4.83696 18.6711 4.69932 18.8087C4.40439 19.1035 4.16844 19.4573 3.97181 19.8111C3.95215 19.8504 3.93249 19.8897 3.91283 19.929C3.89316 19.9683 3.8735 20.0076 3.8735 20.0469C3.83418 20.1255 3.81451 20.2041 3.79485 20.2828C3.75553 20.44 3.7162 20.5972 3.69654 20.7544C3.67688 20.892 3.67688 21.0296 3.67688 21.1672C3.49992 20.6758 3.36228 20.1845 3.2443 19.6735L3.12633 19.1625C3.14599 19.1625 3.16565 19.1625 3.20498 19.1428C3.44093 19.0053 3.69654 18.7891 3.93249 18.5532C4.16844 18.3174 4.40439 18.0422 4.60101 17.7671C4.69932 17.6491 4.79764 17.4919 4.87629 17.3543C4.91561 17.2757 4.95494 17.2168 4.99426 17.1381C5.03359 17.0595 5.07291 16.9809 5.11224 16.9219C5.19089 16.7647 5.24987 16.6271 5.2892 16.4896C5.32852 16.352 5.36785 16.2341 5.36785 16.1161C5.21055 16.1751 5.05325 16.2341 4.89595 16.3323C4.8173 16.3716 4.73865 16.4306 4.66 16.4896C4.58135 16.5485 4.5027 16.6075 4.42405 16.6664C4.10945 16.9219 3.81451 17.2168 3.57857 17.5509C3.48025 17.6884 3.4016 17.826 3.32295 17.9636C3.2443 18.1012 3.20498 18.2584 3.14599 18.396C3.12633 18.4746 3.10667 18.5336 3.087 18.6122C3.06734 18.6711 3.06734 18.7498 3.04768 18.8087V18.7498L2.98869 18.4353C2.94937 18.2191 2.9297 18.0029 2.91004 17.8064L2.87072 17.4919C2.85105 17.3936 2.85105 17.2757 2.85105 17.1774L2.83139 16.863V16.804C2.85105 16.804 2.89038 16.804 2.91004 16.804C3.02802 16.7451 3.16565 16.6861 3.30329 16.6075C3.44093 16.5289 3.57856 16.4306 3.7162 16.3323C3.99148 16.1358 4.24709 15.8999 4.48304 15.6641C4.69932 15.4479 4.91561 15.1728 5.09257 14.8976C5.19089 14.76 5.24987 14.6224 5.30886 14.5045C5.36785 14.3866 5.40717 14.2687 5.42684 14.1508C5.26954 14.1901 5.11224 14.2294 4.93527 14.2883C4.85662 14.3276 4.75831 14.3669 4.67966 14.4063C4.60101 14.4456 4.5027 14.4849 4.42405 14.5438C4.24709 14.6421 4.08979 14.76 3.93249 14.8779C3.77519 14.9959 3.63755 15.1334 3.49992 15.271C3.48025 15.2907 3.44093 15.33 3.42127 15.3496C3.4016 15.3693 3.36228 15.4086 3.34262 15.4479C3.30329 15.5069 3.2443 15.5658 3.20498 15.6444C3.16565 15.7034 3.12633 15.782 3.087 15.841C3.04768 15.8999 3.00835 15.9786 2.98869 16.0375C2.9297 16.1751 2.87072 16.3127 2.85105 16.4306V16.4503L2.83139 15.8999C2.83139 15.8017 2.83139 15.6838 2.83139 15.5855V15.4283C2.83139 15.3693 2.83139 15.33 2.83139 15.271L2.85105 14.9566V14.7993L2.87072 14.6421C2.87072 14.5831 2.89038 14.5242 2.89038 14.4652C2.91004 14.4652 2.94937 14.4849 2.96903 14.4652C3.087 14.4259 3.22464 14.3866 3.36228 14.3276C3.49992 14.2687 3.63755 14.1901 3.79485 14.1114C3.93249 14.0328 4.07013 13.9346 4.22743 13.8559C4.36506 13.7577 4.5027 13.6594 4.62068 13.5808C4.73865 13.4825 4.85662 13.3843 4.9746 13.2663C5.03359 13.2074 5.09257 13.1484 5.15156 13.0894C5.21055 13.0305 5.26954 12.9715 5.30886 12.9126C5.50548 12.6767 5.68245 12.4409 5.74143 12.2443C5.42684 12.264 5.09257 12.3426 4.71899 12.4998C4.36506 12.6374 4.01114 12.8536 3.7162 13.0894C3.48025 13.2663 3.26397 13.5218 3.10667 13.7577C3.02802 13.8756 2.96903 13.9935 2.91004 14.1114C2.91004 14.1311 2.91004 14.1311 2.89038 14.1508C2.94937 13.5022 3.06734 12.8536 3.20498 12.205C3.22464 12.2247 3.26397 12.2247 3.28363 12.2247C3.53924 12.205 3.83418 12.1068 4.12911 11.9888C4.20776 11.9692 4.28641 11.9299 4.3454 11.8906C4.42405 11.8513 4.5027 11.8316 4.56169 11.7923C4.71899 11.7137 4.85662 11.6547 4.99426 11.5761C5.1319 11.4975 5.24987 11.4189 5.38751 11.3206C5.4465 11.2813 5.50548 11.2223 5.58413 11.183C5.64312 11.1437 5.70211 11.0848 5.7611 11.0258C5.87907 10.9275 5.97738 10.8293 6.0757 10.731C6.11502 10.672 6.15435 10.6327 6.19367 10.5738C6.233 10.5345 6.25266 10.4755 6.27232 10.4362C6.11502 10.4165 5.95772 10.4165 5.78076 10.4362C5.6038 10.4558 5.42684 10.4951 5.24987 10.5345C5.15156 10.5541 5.07291 10.5934 4.9746 10.6131C4.87629 10.6524 4.79764 10.672 4.69932 10.7113C4.52236 10.79 4.3454 10.8686 4.1881 10.9668C4.07013 11.0455 3.93249 11.1241 3.81451 11.2223C3.69654 11.3206 3.59823 11.4189 3.49992 11.5368C3.4016 11.6351 3.32295 11.753 3.26397 11.8513C3.2443 11.8709 3.2443 11.8906 3.22464 11.9102C3.38194 11.2813 3.57857 10.672 3.79485 10.0628C3.81451 10.0824 3.85384 10.1021 3.8735 10.1021C4.12911 10.1021 4.42405 10.0628 4.71899 9.98414C4.87629 9.94484 5.03359 9.90553 5.17122 9.84657C5.32852 9.80726 5.46616 9.7483 5.6038 9.68934C5.74143 9.63037 5.87907 9.57141 6.01671 9.4928C6.15435 9.41418 6.29198 9.33557 6.40996 9.25695C6.66557 9.09972 6.88186 8.92284 6.98017 8.74595C6.84253 8.70665 6.68523 8.70665 6.50827 8.68699C6.33131 8.68699 6.15435 8.68699 5.97738 8.70665C5.6038 8.74595 5.24987 8.84422 4.89595 8.9818C4.64034 9.09972 4.36506 9.25695 4.16844 9.45349C4.0308 9.57141 3.93249 9.68934 3.85384 9.80726C3.8735 9.7483 3.89316 9.68934 3.91283 9.63038C4.12911 9.09972 4.38473 8.58872 4.64034 8.07772C4.66 8.09738 4.67966 8.11703 4.71899 8.11703C4.95494 8.15634 5.24987 8.15634 5.56447 8.11703C5.72177 8.09738 5.87907 8.07772 6.01671 8.05807C6.09536 8.03842 6.17401 8.01876 6.233 8.01876C6.31165 7.99911 6.3903 7.97945 6.44928 7.9598C6.58692 7.92049 6.72456 7.88118 6.86219 7.82222C6.99983 7.76326 7.13747 7.7043 7.2751 7.64534C7.41274 7.58638 7.53072 7.50776 7.62903 7.4488C7.68802 7.40949 7.72734 7.37018 7.76667 7.33088C7.80599 7.29157 7.84532 7.25226 7.88464 7.21295C7.60937 7.11469 7.27511 7.07538 6.92118 7.07538C6.82287 7.07538 6.74422 7.07538 6.64591 7.07538C6.5476 7.07538 6.46894 7.09503 6.37063 7.09503C6.19367 7.11469 6.01671 7.15399 5.83975 7.1933C5.70211 7.23261 5.56447 7.29157 5.4465 7.35053C5.38751 7.38984 5.30886 7.40949 5.24987 7.4488C5.19089 7.48811 5.1319 7.52742 5.07291 7.56672C4.95494 7.64534 4.85662 7.72395 4.77797 7.80257C4.73865 7.82222 4.71899 7.86153 4.69932 7.88119C4.79764 7.7043 4.89595 7.50776 5.01392 7.33088C5.23021 6.97711 5.46616 6.62334 5.70211 6.28923C5.70211 6.30888 5.74143 6.34819 5.78076 6.34819C5.89873 6.38749 6.01671 6.40715 6.15435 6.4268C6.29198 6.44646 6.42962 6.44646 6.58692 6.44646C6.88186 6.44646 7.19646 6.4268 7.49139 6.38749C7.62903 6.36784 7.76667 6.34819 7.92397 6.30888C8.0616 6.26957 8.2189 6.23026 8.35654 6.19096C8.63181 6.09269 8.86776 5.97476 9.0054 5.85684C8.88743 5.79788 8.73013 5.73892 8.59249 5.69961C8.43519 5.6603 8.27789 5.621 8.10093 5.60134C8.02228 5.58169 7.92397 5.58169 7.84532 5.58169C7.747 5.58169 7.66835 5.58169 7.57004 5.58169C7.39308 5.58169 7.21612 5.60134 7.03916 5.62099C6.90152 5.64065 6.76388 5.67996 6.62625 5.71926C6.56726 5.73892 6.48861 5.75857 6.42962 5.79788C6.37063 5.81753 6.31165 5.85684 6.25266 5.87649C6.13468 5.93546 6.03637 5.99442 5.93806 6.07303C5.89873 6.09269 5.87907 6.13199 5.83975 6.15165C6.05603 5.83719 6.29198 5.54238 6.52793 5.24757C6.68523 5.07069 6.84253 4.8938 6.99983 4.71692C6.99983 4.73657 7.01949 4.77588 7.05882 4.79553C7.2751 4.8938 7.55038 4.95276 7.82565 4.99207C7.96329 5.01173 8.12059 5.03138 8.25823 5.03138C8.33688 5.03138 8.39587 5.03138 8.47451 5.03138C8.55317 5.03138 8.61215 5.03138 8.6908 5.03138C8.82844 5.03138 8.96608 5.01173 9.10371 4.99207C9.24135 4.97242 9.39865 4.95276 9.53629 4.91346C9.57561 4.91346 9.59527 4.8938 9.6346 4.8938C9.67392 4.8938 9.69359 4.87415 9.73291 4.87415C9.7919 4.85449 9.85089 4.83484 9.90987 4.81519C9.96886 4.79553 10.0278 4.77588 10.0672 4.73657C10.1262 4.71692 10.1655 4.67761 10.2048 4.65796C10.0868 4.57934 9.9492 4.52038 9.81156 4.46142C9.67392 4.40246 9.51662 4.36315 9.33966 4.30419C9.26101 4.28453 9.18236 4.26488 9.08405 4.24523C9.0054 4.22557 8.90709 4.22557 8.82844 4.20592C8.65148 4.18627 8.47451 4.18626 8.31721 4.18626C8.17958 4.18626 8.04194 4.20592 7.9043 4.22557C7.84532 4.24523 7.76667 4.24523 7.70768 4.26488C7.64869 4.28453 7.5897 4.30419 7.51105 4.32384C7.39308 4.36315 7.2751 4.42211 7.17679 4.46142C7.13747 4.48107 7.09814 4.52038 7.05882 4.54003C7.45207 4.1273 7.84532 3.71457 8.27789 3.34115C8.29755 3.3215 8.31721 3.30184 8.35654 3.28219C8.35654 3.3215 8.3762 3.3608 8.41553 3.38046C8.61215 3.49838 8.86776 3.577 9.14304 3.65561C9.28067 3.69492 9.41831 3.71457 9.55595 3.75388C9.69359 3.77353 9.83122 3.79319 9.96886 3.81284C10.2245 3.8325 10.5194 3.8325 10.7947 3.81284C10.8537 3.81284 10.9323 3.79319 10.9913 3.79319C11.0503 3.77353 11.1093 3.77353 11.1683 3.75388C11.2862 3.73423 11.3846 3.69492 11.4632 3.63596C11.2666 3.47873 10.9913 3.3215 10.6767 3.20357C10.5194 3.14461 10.3621 3.1053 10.1851 3.066C10.1065 3.04634 10.0278 3.02669 9.92953 3.00703C9.85089 2.98738 9.77224 2.98738 9.67392 2.96773C9.53629 2.94807 9.41831 2.94807 9.28067 2.96773C9.14304 2.98738 9.02506 3.00704 8.88743 3.02669C8.82844 3.04634 8.76945 3.066 8.71046 3.066C8.65148 3.08565 8.61215 3.10531 8.55316 3.12496C8.47451 3.16427 8.43519 3.18392 8.3762 3.22323C8.76945 2.88911 9.18236 2.57465 9.59527 2.27984L9.61494 2.2995C9.69359 2.2995 9.77224 2.2995 9.89021 2.27984C9.9492 2.27984 9.98852 2.26019 10.0475 2.24054C10.1065 2.22088 10.1655 2.22088 10.2245 2.20123C10.3424 2.16192 10.4801 2.12261 10.5981 2.06365C10.716 2.00469 10.8537 1.94573 10.9716 1.88677C11.0503 1.84746 11.1289 1.80815 11.1879 1.74919C11.2666 1.70988 11.3452 1.65092 11.4239 1.61161C11.5812 1.51334 11.7188 1.41508 11.8565 1.29715C12.1317 1.08096 12.3873 0.864768 12.5643 0.648576C12.4463 0.628922 12.3087 0.609268 12.1514 0.628922C12.0727 0.628922 11.9941 0.628922 11.9154 0.648576C11.8368 0.66823 11.7581 0.66823 11.6795 0.687884C11.3649 0.746845 11.0306 0.884422 10.775 1.00234C10.6374 1.08096 10.5194 1.15958 10.3818 1.25784C10.2638 1.35611 10.1458 1.45438 10.0475 1.55265C9.83122 1.76884 9.67392 1.98504 9.57561 2.18157C9.55595 2.22088 9.55595 2.26019 9.57561 2.27984C9.14304 2.57465 8.73013 2.88911 8.33688 3.24288C8.3762 3.20357 8.41553 3.14461 8.47451 3.066C8.49418 3.02669 8.5335 2.96773 8.55316 2.92842C8.59249 2.86946 8.61215 2.83015 8.63181 2.77119C8.6908 2.65327 8.74979 2.53534 8.78911 2.39777C8.8481 2.27984 8.88743 2.14227 8.90709 2.00469C8.92675 1.92607 8.94641 1.82781 8.96608 1.74919C8.98574 1.67058 9.0054 1.57231 9.02506 1.49369C9.06439 1.31681 9.08405 1.13992 9.10371 0.963037C9.14304 0.609268 9.1627 0.275154 9.12337 0C9.02506 0.0786153 8.92675 0.15723 8.82844 0.275153C8.76945 0.334115 8.73013 0.393076 8.6908 0.452038C8.65148 0.510999 8.59249 0.589615 8.55316 0.648576C8.3762 0.92373 8.23857 1.25784 8.17958 1.533C8.14025 1.69023 8.12059 1.82781 8.10093 1.98504C8.08127 2.14227 8.08127 2.27984 8.08127 2.43708C8.08127 2.73188 8.14025 3.00703 8.2189 3.20357C8.23857 3.24288 8.27789 3.28219 8.29755 3.26254C8.27789 3.28219 8.25823 3.30184 8.2189 3.3215C7.78633 3.69492 7.35375 4.10765 6.96051 4.54003C6.99983 4.50073 7.01949 4.44176 7.05882 4.3828C7.09814 4.28453 7.15713 4.16661 7.19646 4.04869C7.21612 3.98973 7.23578 3.93077 7.25544 3.85215C7.2751 3.79319 7.29477 3.71457 7.31443 3.65561C7.35376 3.51803 7.37342 3.38046 7.39308 3.24288C7.41274 3.066 7.4324 2.88911 7.45207 2.71223C7.45207 2.61396 7.47173 2.53534 7.47173 2.43708C7.47173 2.33881 7.47173 2.26019 7.47173 2.16192C7.47173 1.98504 7.47173 1.80815 7.45207 1.63127C7.4324 1.47404 7.41274 1.31681 7.37342 1.17923C7.33409 1.21854 7.27511 1.25784 7.23578 1.31681C7.19646 1.37577 7.13747 1.43473 7.09814 1.49369C7.05882 1.55265 7.01949 1.63127 6.98017 1.69023C6.96051 1.72954 6.94084 1.76884 6.92118 1.80815C6.90152 1.84746 6.88186 1.88677 6.86219 1.92607C6.78354 2.08331 6.72456 2.24054 6.68523 2.39777C6.64591 2.555 6.60658 2.71223 6.58692 2.86946C6.56726 2.94807 6.56726 3.02669 6.56726 3.1053C6.56726 3.18392 6.56726 3.26254 6.56726 3.34115C6.56726 3.49838 6.58692 3.65561 6.58692 3.79319C6.62624 4.088 6.70489 4.36315 6.82287 4.55969C6.84253 4.599 6.88186 4.61865 6.90152 4.61865C6.74422 4.79553 6.58692 4.97242 6.42962 5.1493C6.17401 5.44411 5.93806 5.73892 5.72177 6.05338C5.74144 6.01407 5.7611 5.95511 5.78076 5.9158C5.82008 5.81753 5.85941 5.69961 5.87907 5.56203C5.89873 5.50307 5.89873 5.42446 5.9184 5.36549C5.93806 5.28688 5.93806 5.22792 5.95772 5.1493C5.97738 5.01173 5.97738 4.8545 5.99705 4.71692C5.99705 4.54003 5.99705 4.3435 5.97738 4.16661C5.97738 4.06834 5.95772 3.97007 5.95772 3.89146C5.95772 3.79319 5.93806 3.69492 5.93806 3.6163C5.9184 3.43942 5.87907 3.24288 5.85941 3.08565C5.82008 2.92842 5.78076 2.77119 5.72177 2.63361C5.54481 2.83015 5.38751 3.12496 5.2892 3.45907C5.23021 3.63596 5.19089 3.79319 5.15156 3.97007C5.11224 4.14696 5.11224 4.30419 5.11224 4.46142C5.11224 4.77588 5.15156 5.10999 5.23021 5.42446C5.26954 5.58169 5.30886 5.71926 5.36785 5.83719C5.42684 5.97476 5.48582 6.07303 5.56447 6.1713C5.58414 6.21061 5.62346 6.21061 5.64312 6.21061C5.40717 6.54472 5.17122 6.89849 4.95494 7.25226C4.83696 7.42915 4.73865 7.62568 4.64034 7.80257C4.66 7.76326 4.66 7.72395 4.67966 7.68465C4.69932 7.56672 4.71899 7.4488 4.73865 7.31122C4.73865 7.25226 4.75831 7.17365 4.75831 7.09503C4.75831 7.01642 4.75831 6.95746 4.75831 6.87884C4.75831 6.72161 4.75831 6.58403 4.73865 6.4268C4.71899 6.24992 4.69933 6.05338 4.66 5.85684C4.64034 5.75857 4.62067 5.6603 4.60101 5.56203C4.58135 5.46376 4.56169 5.3655 4.54203 5.28688C4.44371 4.91346 4.3454 4.57934 4.20776 4.30419C4.16844 4.36315 4.12911 4.42211 4.08979 4.48107C4.05046 4.54003 4.0308 4.61865 3.99148 4.69727C3.93249 4.8545 3.89316 5.03138 3.85384 5.18861C3.81451 5.3655 3.79485 5.54238 3.79485 5.71926C3.77519 5.89615 3.79485 6.07303 3.81451 6.23026C3.81451 6.30888 3.83418 6.38749 3.85384 6.48576C3.8735 6.56438 3.89316 6.64299 3.91283 6.74126C3.95215 6.89849 4.01114 7.05572 4.07013 7.21295C4.1881 7.50776 4.3454 7.76326 4.5027 7.94015C4.52236 7.9598 4.56169 7.97945 4.58135 7.97945C4.30608 8.49045 4.05046 9.00145 3.83418 9.53211C3.81451 9.59107 3.79485 9.65003 3.75553 9.70899C3.77519 9.57141 3.77519 9.39453 3.77519 9.21765C3.75553 8.94249 3.73586 8.60838 3.65721 8.31357C3.57857 7.94015 3.44093 7.54707 3.30329 7.1933C3.22464 7.01642 3.16565 6.83953 3.087 6.6823C3.00835 6.52507 2.9297 6.36784 2.83139 6.24992C2.69375 6.48576 2.61511 6.83953 2.59544 7.21295C2.57578 7.38984 2.57578 7.58638 2.59544 7.76326C2.61511 7.94015 2.63477 8.11703 2.67409 8.27426C2.71342 8.43149 2.7724 8.60838 2.83139 8.76561C2.89038 8.92284 2.96903 9.08007 3.04768 9.21765C3.20498 9.51245 3.4016 9.7483 3.57857 9.90553C3.59823 9.92518 3.63755 9.94484 3.65721 9.92518C3.42127 10.5345 3.22464 11.1634 3.06734 11.7923C3.06734 11.7726 3.06734 11.7333 3.06734 11.7137C3.06734 11.5958 3.04768 11.4582 3.02802 11.3206C3.00835 11.183 2.96903 11.0258 2.9297 10.8686C2.89038 10.7113 2.85105 10.5738 2.79207 10.4165C2.71342 10.2396 2.63477 10.0431 2.55612 9.86622C2.51679 9.76795 2.47747 9.68934 2.41848 9.59107C2.37916 9.4928 2.32017 9.41418 2.28084 9.31592C2.18253 9.13903 2.08422 8.96215 1.98591 8.82457C1.88759 8.66734 1.78928 8.52976 1.67131 8.43149C1.65165 8.49045 1.63198 8.56907 1.61232 8.64768C1.59266 8.7263 1.59266 8.80491 1.573 8.90318C1.55333 9.08007 1.55333 9.25695 1.55333 9.45349C1.55333 9.55176 1.573 9.65003 1.573 9.7483C1.59266 9.84657 1.59266 9.94484 1.61232 10.0235C1.65165 10.2003 1.71063 10.3772 1.74996 10.5345C1.80894 10.6917 1.88759 10.8686 1.96624 11.0061C2.00557 11.0848 2.04489 11.1634 2.10388 11.2223C2.14321 11.301 2.20219 11.3599 2.24152 11.4385C2.43814 11.7137 2.65443 11.9299 2.89038 12.0675C2.91004 12.0871 2.94937 12.0871 2.96903 12.0871C2.81173 12.7357 2.71342 13.4039 2.63477 14.0525C2.63477 14.0328 2.63477 14.0132 2.63477 13.9935C2.61511 13.8756 2.57578 13.738 2.53646 13.6004C2.45781 13.3253 2.32017 13.0108 2.16287 12.7357C1.96624 12.3819 1.7303 12.0281 1.49435 11.694C1.2584 11.3599 1.00278 11.0651 0.747173 10.8686C0.688186 11.1437 0.688185 11.5368 0.766835 11.9102C0.786497 12.0085 0.806161 12.1068 0.825823 12.205C0.845485 12.3033 0.88481 12.4016 0.924135 12.4802C0.983123 12.6571 1.06177 12.834 1.14042 12.9715C1.21907 13.1288 1.31738 13.286 1.43536 13.4236C1.53367 13.5611 1.65165 13.6987 1.78928 13.8166C1.90726 13.9346 2.02523 14.0525 2.16287 14.1311C2.28084 14.2294 2.41848 14.2883 2.53646 14.3473C2.55612 14.3669 2.59544 14.3669 2.61511 14.3473C2.61511 14.4063 2.59544 14.4652 2.59544 14.5242L2.57578 14.6814V14.8386L2.55612 15.1531C2.55612 15.2121 2.55612 15.2514 2.55612 15.3103V15.4676C2.55612 15.5658 2.55612 15.6838 2.55612 15.782L2.57578 16.3323C2.57578 16.3127 2.57578 16.3127 2.57578 16.3127C2.53646 16.1948 2.47747 16.0572 2.41848 15.9196C2.37916 15.8606 2.33983 15.782 2.32017 15.7034C2.28084 15.6248 2.24152 15.5658 2.20219 15.4872C2.16287 15.4086 2.12354 15.3496 2.06456 15.271C2.04489 15.2317 2.02523 15.2121 1.98591 15.1728C1.96624 15.1334 1.94658 15.1138 1.90726 15.0745C1.78928 14.9173 1.65165 14.7404 1.51401 14.5831C1.37637 14.4259 1.23873 14.2687 1.08143 14.1114C1.00278 14.0328 0.924135 13.9542 0.865147 13.8953C0.786497 13.8166 0.72751 13.7577 0.648861 13.6987C0.511223 13.5808 0.353924 13.4629 0.216287 13.3843C0.196624 13.5218 0.216287 13.6987 0.23595 13.8756C0.275274 14.0525 0.314599 14.249 0.373586 14.4259C0.511223 14.7993 0.688185 15.1728 0.904472 15.4479C1.12076 15.7427 1.39603 16.0179 1.67131 16.2144C1.80895 16.3127 1.94658 16.4109 2.08422 16.4896C2.22186 16.5682 2.35949 16.6271 2.49713 16.6664C2.51679 16.6664 2.55612 16.6664 2.57578 16.6664V16.7254L2.59544 17.0399C2.59544 17.1381 2.61511 17.2561 2.61511 17.3543L2.65443 17.6688C2.67409 17.885 2.69375 18.1012 2.73308 18.3174L2.79207 18.6318L2.81173 18.6908C2.7724 18.6318 2.75274 18.5729 2.71342 18.5139C2.67409 18.4549 2.63477 18.396 2.59544 18.3174C2.51679 18.1798 2.41848 18.0619 2.30051 17.9243C2.20219 17.7867 2.08422 17.6688 1.96624 17.5509C1.67131 17.2561 1.33705 16.9613 0.983122 16.6861C0.904473 16.6271 0.806161 16.5485 0.727511 16.4896C0.648861 16.4306 0.570211 16.3716 0.471898 16.3127C0.314599 16.2144 0.137637 16.1161 0 16.0572C0 16.2144 0.0393249 16.3716 0.0983122 16.5485C0.1573 16.7254 0.23595 16.9219 0.334262 17.0988C0.373587 17.1971 0.432574 17.2757 0.491561 17.374C0.550549 17.4526 0.609535 17.5509 0.668523 17.6295C0.786497 17.7867 0.904472 17.9439 1.04211 18.0619C1.31738 18.337 1.63198 18.5532 1.92692 18.7301C2.24152 18.907 2.55612 19.0249 2.83139 19.0446C2.85105 19.0446 2.87072 19.0446 2.91004 19.0446L3.02802 19.5556C3.14599 20.0666 3.30329 20.5776 3.46059 21.0689C3.38194 20.9706 3.30329 20.8527 3.18532 20.7348C3.087 20.6169 2.96903 20.4989 2.83139 20.381C2.7724 20.3221 2.69375 20.2631 2.63477 20.2041C2.59544 20.1845 2.57578 20.1452 2.53646 20.1255C2.49713 20.1059 2.47747 20.0666 2.43814 20.0469C2.10388 19.7914 1.69097 19.5359 1.31738 19.3197C1.12076 19.2018 0.924135 19.1035 0.747173 19.0249C0.648861 18.9856 0.570211 18.9463 0.471898 18.907C0.393248 18.8677 0.294936 18.848 0.216287 18.8284C0.235949 18.907 0.255611 18.9856 0.275274 19.0642C0.314599 19.1428 0.334262 19.2411 0.393249 19.3197C0.432574 19.3983 0.491561 19.4966 0.530886 19.5752C0.589874 19.6538 0.629198 19.7521 0.707848 19.8307C0.96346 20.1648 1.2584 20.4793 1.55333 20.6955C1.71063 20.8134 1.86793 20.9117 2.04489 21.0099C2.22186 21.1082 2.39882 21.1868 2.55612 21.2458C2.89038 21.3637 3.22464 21.4423 3.51958 21.4423C3.53924 21.4423 3.5589 21.4423 3.57857 21.4227C3.83418 22.0909 4.10945 22.7591 4.44371 23.3881C4.40439 23.3487 4.36506 23.3094 4.30608 23.2701C4.24709 23.2112 4.1881 23.1719 4.12911 23.1129C4.01114 23.0146 3.8735 22.9164 3.7162 22.8181C3.63755 22.7788 3.57857 22.7198 3.49992 22.6805C3.42127 22.6412 3.34262 22.5823 3.26397 22.5429C2.87072 22.3464 2.43814 22.1499 2.02523 21.9926C1.80894 21.914 1.61232 21.8354 1.4157 21.7764C1.21907 21.7175 1.02245 21.6782 0.845485 21.6585C0.904472 21.8158 0.983122 21.973 1.1011 22.1302C1.21907 22.2874 1.35671 22.4447 1.49435 22.6019C1.573 22.6805 1.65165 22.7591 1.7303 22.8181C1.80895 22.8967 1.88759 22.9557 1.98591 23.0146C2.16287 23.1326 2.32017 23.2505 2.49713 23.3487C2.67409 23.447 2.85105 23.5256 3.04768 23.5846C3.22464 23.6436 3.42127 23.7025 3.59823 23.7418C3.97181 23.8204 4.30608 23.8204 4.60101 23.7811C4.62067 23.7811 4.64034 23.7615 4.66 23.7615C5.01392 24.3904 5.40717 25.0193 5.83975 25.6089C5.82008 25.5893 5.82008 25.5893 5.80042 25.5696C5.7611 25.55 5.74143 25.5303 5.70211 25.5107C5.64312 25.4714 5.56447 25.4321 5.50548 25.3927C5.42683 25.3534 5.34819 25.3141 5.2892 25.2748C5.21055 25.2355 5.1319 25.1962 5.05325 25.1569C4.89595 25.0783 4.71899 25.0193 4.56169 24.9604C4.3454 24.9014 4.12911 24.8228 3.89316 24.7638C3.77519 24.7245 3.65721 24.7049 3.5589 24.6852C3.44093 24.6656 3.32295 24.6262 3.22464 24.6066C2.7724 24.5083 2.33983 24.4494 1.98591 24.469C2.06456 24.6066 2.18253 24.7638 2.32017 24.9014C2.39882 24.98 2.45781 25.039 2.53646 25.1176C2.61511 25.1962 2.71342 25.2552 2.79207 25.3141C2.89038 25.3731 2.96903 25.4517 3.06734 25.5107C3.10667 25.55 3.16565 25.5696 3.20498 25.5893C3.2443 25.6089 3.30329 25.6482 3.34262 25.6679C3.53924 25.7662 3.73586 25.8448 3.91283 25.9234C3.95215 25.9431 4.01114 25.9627 4.05046 25.9627C4.10945 25.9824 4.14878 25.9824 4.20776 26.002C4.30608 26.0217 4.40439 26.0413 4.5027 26.061C4.69932 26.1003 4.89595 26.1199 5.09257 26.1199C5.48582 26.1396 5.83975 26.0806 6.11502 26.002C6.13468 26.002 6.15435 25.9824 6.15435 25.9824C6.60658 26.572 7.11781 27.1223 7.64869 27.6333C7.53072 27.5743 7.41274 27.535 7.29477 27.476C6.98017 27.3581 6.60658 27.2402 6.25266 27.2009C6.13468 27.1812 6.01671 27.1616 5.9184 27.1419C5.80042 27.1223 5.68245 27.1026 5.56447 27.1026C5.4465 27.083 5.32852 27.083 5.21055 27.0633C5.09257 27.0633 4.9746 27.0437 4.85662 27.0437C4.62068 27.024 4.38473 27.024 4.16844 27.0437C4.05046 27.0437 3.95215 27.0633 3.85384 27.0633C3.75553 27.083 3.65722 27.083 3.57857 27.1026C3.59823 27.1419 3.63755 27.1616 3.65721 27.2009C3.69654 27.2402 3.7162 27.2599 3.75553 27.2992C3.83418 27.3581 3.89316 27.4367 3.99148 27.4957C4.07013 27.5547 4.16844 27.6136 4.24709 27.6726C4.26675 27.6922 4.28641 27.6922 4.32574 27.7119C4.3454 27.7316 4.36506 27.7316 4.40439 27.7512C4.44371 27.7709 4.5027 27.8102 4.56169 27.8298C4.75831 27.9281 4.9746 28.0264 5.17122 28.105C5.38751 28.1836 5.58413 28.2229 5.78076 28.2622C5.87907 28.2819 5.97738 28.3015 6.09536 28.3015C6.19367 28.3015 6.31165 28.3212 6.40996 28.3212C6.60658 28.3212 6.82287 28.3212 7.01949 28.3015C7.41274 28.2622 7.76667 28.1443 8.02228 28.0067C8.04194 28.0067 8.0616 27.987 8.0616 27.9674C8.15991 28.0657 8.25823 28.1443 8.35654 28.2426C8.82844 28.6553 9.32 29.0287 9.81156 29.3825C9.77224 29.3628 9.73291 29.3628 9.69359 29.3432C9.61494 29.3235 9.53629 29.3039 9.45764 29.2842C9.12338 29.2252 8.73013 29.1663 8.35654 29.1663C8.23856 29.1663 8.12059 29.1663 8.00262 29.1663C7.88464 29.1663 7.76667 29.1663 7.64869 29.1859C7.53072 29.1859 7.41274 29.2056 7.2751 29.2056C7.15713 29.2252 7.03916 29.2252 6.92118 29.2449C6.44928 29.3039 5.99705 29.3825 5.64312 29.5201C5.7611 29.638 5.93806 29.7362 6.11502 29.8345C6.31165 29.9328 6.50827 30.0311 6.72456 30.09C6.94084 30.1686 7.17679 30.2276 7.39308 30.2669C7.60937 30.3062 7.84532 30.3259 8.04194 30.3259C8.25823 30.3259 8.47451 30.3062 8.67114 30.2866C8.88743 30.2472 9.08405 30.2079 9.28067 30.1686C9.67392 30.0507 10.0082 29.8935 10.2441 29.6969C10.2638 29.6969 10.2638 29.6773 10.2835 29.6576C10.3424 29.6969 10.4014 29.7362 10.4604 29.7756C11.0503 30.149 11.6795 30.4831 12.3087 30.7779C12.1907 30.7582 12.0727 30.7582 11.9548 30.7582C11.8761 30.7582 11.7778 30.7582 11.6795 30.7582C11.5812 30.7582 11.4829 30.7582 11.4042 30.7779C11.2076 30.7976 11.0306 30.8172 10.834 30.8369C10.5981 30.8762 10.3621 30.9155 10.1065 30.9744C9.87055 31.0334 9.61494 31.0924 9.37899 31.171C9.14304 31.2299 8.90709 31.3086 8.71046 31.3872C8.61215 31.4265 8.51384 31.4658 8.41553 31.5247C8.31721 31.564 8.23856 31.623 8.15991 31.6623C8.19924 31.682 8.23857 31.7016 8.27789 31.7409C8.31722 31.7606 8.35654 31.7802 8.41553 31.7999C8.51384 31.8392 8.61215 31.8785 8.71046 31.9178C8.80878 31.9571 8.92675 31.9768 9.02506 32.0161C9.14304 32.0357 9.26101 32.0554 9.37899 32.0751C9.49696 32.0947 9.61494 32.1144 9.73291 32.1144C9.85089 32.134 9.96886 32.134 10.0868 32.134C10.3228 32.134 10.5391 32.1144 10.7357 32.0751C10.7947 32.0751 10.834 32.0554 10.893 32.0554C10.952 32.0357 10.9913 32.0357 11.0503 32.0161C11.1486 31.9964 11.2666 31.9571 11.3649 31.9178C11.5615 31.8589 11.7581 31.7802 11.9548 31.682C12.3284 31.5051 12.6233 31.2889 12.8396 31.053C12.8396 31.0334 12.8592 31.0334 12.8592 31.0137L13.0952 31.112L13.2525 31.171C13.3115 31.1906 13.3508 31.2103 13.4098 31.2299C13.6064 31.3085 13.8227 31.3872 14.0193 31.4461L14.6289 31.6427C14.7272 31.682 14.8451 31.7016 14.9435 31.7213L15.0811 31.7606C15.0418 31.7606 15.0221 31.7606 15.0024 31.7606C14.9238 31.7802 14.8255 31.7802 14.7468 31.7999C14.5699 31.8195 14.3732 31.8589 14.1963 31.9178C13.9997 31.9571 13.8227 32.0161 13.6457 32.0751C13.5278 32.1144 13.4098 32.1537 13.2918 32.2126C13.1738 32.2519 13.0559 32.3109 12.9379 32.3502C12.7019 32.4485 12.466 32.5664 12.2497 32.6647C11.7975 32.8809 11.3846 33.1167 11.0896 33.3722C11.2469 33.4312 11.4632 33.4901 11.6795 33.5294C11.7385 33.5294 11.7975 33.5491 11.8368 33.5491C11.8958 33.5491 11.9548 33.5687 12.0138 33.5687C12.1317 33.5687 12.2497 33.5687 12.3677 33.5687C12.4857 33.5687 12.6036 33.5687 12.7216 33.5491H12.8199L12.9182 33.5294C12.9772 33.5294 13.0362 33.5098 13.0952 33.5098C13.3311 33.4705 13.5474 33.4115 13.744 33.3526C13.9603 33.2739 14.157 33.1757 14.3536 33.0774C14.4519 33.0184 14.5502 32.9791 14.6289 32.9202C14.7272 32.8612 14.8058 32.8022 14.8845 32.7433C15.2187 32.4878 15.494 32.2126 15.6513 31.9571C15.6513 31.9375 15.671 31.9375 15.671 31.9178C16.3788 32.075 17.1063 32.193 17.8338 32.2716L17.8535 31.9964C17.1457 31.9375 16.4181 31.8195 15.73 31.6623C15.6316 31.8195 15.6316 31.8195 15.6316 31.7999Z" fill="url(#paint0_linear_20931_1837)"/>
<path d="M34.3699 19.1625C34.3896 19.1625 34.4093 19.1821 34.4486 19.1625C34.7239 19.1232 35.0385 19.0053 35.3531 18.848C35.6677 18.6711 35.9823 18.4353 36.2379 18.1798C36.3558 18.0619 36.4935 17.9046 36.6115 17.7474C36.6704 17.6688 36.7294 17.5705 36.7884 17.4919C36.8474 17.4133 36.8867 17.315 36.9457 17.2168C37.044 17.0399 37.1227 16.8433 37.1817 16.6665C37.2407 16.4896 37.2603 16.3127 37.28 16.1751C37.1227 16.2341 36.9654 16.3323 36.8081 16.4306C36.7294 16.4896 36.6508 16.5485 36.5525 16.6075C36.4738 16.6665 36.3755 16.7254 36.2969 16.804C35.9429 17.0595 35.6283 17.374 35.3137 17.6688C35.1958 17.7867 35.0778 17.9046 34.9795 18.0422C34.8812 18.1798 34.7632 18.2977 34.6845 18.4353C34.6452 18.4943 34.6059 18.5729 34.5666 18.6318C34.5272 18.6908 34.5076 18.7498 34.4682 18.8087L34.4879 18.7498L34.5469 18.4353C34.5862 18.2191 34.6059 18.0029 34.6255 17.7867L34.6649 17.4723C34.6649 17.374 34.6845 17.2561 34.6845 17.1578L34.7042 16.8433V16.7844C34.7239 16.7844 34.7632 16.7844 34.7828 16.7844C34.9205 16.7451 35.0581 16.6861 35.1958 16.6075C35.3334 16.5289 35.471 16.4503 35.6087 16.3323C35.8839 16.1161 36.1592 15.8607 36.3755 15.5658C36.5918 15.2907 36.7688 14.9173 36.9064 14.5438C36.9654 14.3473 37.0244 14.1704 37.044 13.9935C37.0637 13.8166 37.0834 13.6398 37.0637 13.5022C36.9261 13.5808 36.7884 13.6987 36.6311 13.8166C36.5525 13.8756 36.4935 13.9542 36.4148 14.0132C36.3362 14.0918 36.2575 14.1508 36.1985 14.2294C36.0412 14.3866 35.9036 14.5438 35.766 14.7011C35.6283 14.8583 35.4907 15.0352 35.3727 15.1924C35.3531 15.2317 35.3334 15.2514 35.2941 15.2907C35.2744 15.33 35.2547 15.3496 35.2154 15.389C35.1761 15.4479 35.1171 15.5265 35.0778 15.6051C35.0385 15.6838 34.9991 15.7427 34.9598 15.8213C34.9205 15.9 34.8812 15.9589 34.8615 16.0375C34.8025 16.1751 34.7435 16.3127 34.7042 16.4306C34.7042 16.4503 34.7042 16.4503 34.7042 16.4503L34.7239 15.9C34.7239 15.8017 34.7239 15.6838 34.7239 15.5855V15.4283C34.7239 15.3693 34.7239 15.33 34.7239 15.271L34.7042 14.9566V14.7993L34.6845 14.6421C34.6845 14.5831 34.6649 14.5242 34.6649 14.4652C34.6845 14.4652 34.7239 14.4652 34.7435 14.4652C34.8615 14.4063 34.9795 14.3277 35.1171 14.249C35.2351 14.1508 35.3727 14.0525 35.4907 13.9346C35.6087 13.8167 35.7266 13.6791 35.8446 13.5415C35.9429 13.4039 36.0412 13.2467 36.1396 13.0895C36.2182 12.9322 36.2969 12.775 36.3558 12.5981C36.3952 12.4998 36.4148 12.4212 36.4542 12.323C36.4738 12.2247 36.4935 12.1264 36.5131 12.0282C36.5918 11.6351 36.5918 11.2617 36.5328 10.9865C36.2772 11.183 36.0216 11.4778 35.7856 11.812C35.53 12.1461 35.3137 12.5195 35.1171 12.8536C34.9598 13.1288 34.8418 13.4432 34.7435 13.7184C34.7042 13.856 34.6649 13.9935 34.6452 14.1115C34.6452 14.1311 34.6452 14.1508 34.6452 14.1704C34.5666 13.5022 34.4682 12.8536 34.3109 12.205C34.3306 12.205 34.3699 12.205 34.3896 12.1854C34.6059 12.0478 34.8222 11.8316 35.0385 11.5565C35.0974 11.4975 35.1368 11.4189 35.1761 11.3403C35.2154 11.2617 35.2744 11.2027 35.3137 11.1241C35.3924 10.9668 35.471 10.8096 35.53 10.6524C35.589 10.4952 35.6283 10.3183 35.6677 10.1414C35.6873 10.0431 35.707 9.9645 35.707 9.86623C35.7266 9.76796 35.7266 9.66969 35.7266 9.57142C35.7463 9.37488 35.7266 9.198 35.707 9.02112C35.707 8.9425 35.6873 8.84423 35.6677 8.76562C35.648 8.687 35.6283 8.60839 35.6087 8.54942C35.5104 8.66735 35.3924 8.80492 35.2941 8.9425C35.1958 9.09973 35.0974 9.25696 34.9991 9.43385C34.9598 9.51246 34.9008 9.61073 34.8615 9.709C34.8222 9.80727 34.7632 9.88588 34.7239 9.98415C34.6452 10.161 34.5666 10.3576 34.4879 10.5345C34.4289 10.672 34.3896 10.8293 34.3503 10.9865C34.3109 11.1437 34.2716 11.2813 34.252 11.4385C34.2323 11.5761 34.2126 11.7137 34.2126 11.8316C34.2126 11.8513 34.2126 11.8906 34.2126 11.9102C34.0553 11.2813 33.8587 10.6524 33.6228 10.0431C33.6424 10.0431 33.6818 10.0431 33.7014 10.0235C33.898 9.86623 34.075 9.63038 34.2323 9.33558C34.311 9.198 34.3896 9.04077 34.4486 8.88354C34.5076 8.72631 34.5666 8.54942 34.6059 8.39219C34.6452 8.23496 34.6649 8.05808 34.6845 7.88119C34.7042 7.70431 34.7042 7.50777 34.6845 7.33088C34.6649 6.95746 34.5862 6.60369 34.4486 6.36785C34.3503 6.48577 34.2716 6.643 34.193 6.80023C34.1143 6.95746 34.0357 7.13435 33.9767 7.31123C33.8391 7.68465 33.7211 8.07773 33.6228 8.4315C33.5441 8.72631 33.5245 9.04077 33.5048 9.33558C33.5048 9.51246 33.5048 9.68935 33.5245 9.82692C33.5048 9.76796 33.4851 9.709 33.4458 9.65004C33.2295 9.11938 32.9739 8.58873 32.6986 8.09738C32.7183 8.09738 32.7576 8.07773 32.7773 8.05808C32.9346 7.88119 33.0919 7.62569 33.2099 7.33088C33.2688 7.19331 33.3082 7.03608 33.3672 6.85919C33.3868 6.78058 33.4065 6.70196 33.4261 6.60369C33.4458 6.52508 33.4458 6.44646 33.4655 6.34819C33.4851 6.19096 33.4851 6.01408 33.4851 5.83719C33.4655 5.66031 33.4458 5.48343 33.4261 5.30654C33.3868 5.12966 33.3475 4.95277 33.2885 4.8152C33.2688 4.73658 33.2295 4.65797 33.1902 4.599C33.1509 4.54004 33.1115 4.48108 33.0722 4.42212C32.9346 4.67762 32.8166 5.03139 32.738 5.40481C32.7183 5.50308 32.6986 5.60135 32.679 5.67996C32.6593 5.77823 32.6396 5.8765 32.62 5.97477C32.5807 6.17131 32.561 6.34819 32.5413 6.54473C32.5217 6.68231 32.5217 6.83954 32.5217 6.99677C32.5217 7.07539 32.5217 7.154 32.5217 7.21296C32.5217 7.29158 32.5217 7.35054 32.5413 7.42915C32.561 7.56673 32.5807 7.68465 32.6003 7.80258C32.6003 7.84189 32.62 7.88119 32.6396 7.9205C32.5413 7.74362 32.4234 7.54708 32.325 7.37019C32.1088 7.01642 31.8728 6.66265 31.6369 6.32854C31.6565 6.32854 31.6958 6.30889 31.7155 6.28923C31.7745 6.19096 31.8531 6.07304 31.9121 5.95512C31.9711 5.81754 32.0104 5.67996 32.0498 5.54239C32.1284 5.24758 32.1677 4.91346 32.1677 4.57935C32.1677 4.42212 32.1481 4.26489 32.1088 4.088C32.0694 3.91112 32.0301 3.75389 31.9711 3.577C31.8531 3.24289 31.6958 2.94808 31.5385 2.75154C31.4796 2.88912 31.4402 3.04635 31.4009 3.20358C31.3616 3.36081 31.3419 3.55735 31.3223 3.73423C31.3026 3.8325 31.3026 3.91112 31.3026 4.00939C31.3026 4.10766 31.2829 4.20593 31.2829 4.28454C31.2633 4.48108 31.2633 4.65796 31.2633 4.83485C31.2633 4.97243 31.2829 5.12966 31.3026 5.26723C31.3026 5.34585 31.3223 5.40481 31.3419 5.48343C31.3616 5.56204 31.3616 5.621 31.3812 5.67996C31.4009 5.81754 31.4402 5.93546 31.4796 6.03373C31.4992 6.09269 31.5189 6.132 31.5385 6.17131C31.3026 5.85685 31.0666 5.56204 30.8307 5.26723C30.6734 5.09035 30.5161 4.91346 30.3588 4.73658C30.3981 4.73658 30.4178 4.71693 30.4374 4.67762C30.5554 4.48108 30.6341 4.20593 30.6734 3.91112C30.6931 3.75389 30.6931 3.61631 30.6931 3.45908C30.6931 3.38047 30.6931 3.30185 30.6931 3.22324C30.6931 3.14462 30.6734 3.066 30.6734 2.98739C30.6537 2.84981 30.6144 2.67293 30.5751 2.5157C30.5161 2.35847 30.4571 2.20124 30.3981 2.044C30.3785 2.0047 30.3588 1.96539 30.3391 1.92608C30.3195 1.88677 30.2998 1.84747 30.2801 1.80816C30.2408 1.72954 30.2015 1.67058 30.1622 1.61162C30.1229 1.55266 30.0639 1.4937 30.0245 1.43474C29.9852 1.37577 29.9262 1.33647 29.8869 1.29716C29.8476 1.43474 29.8279 1.59197 29.8083 1.7492C29.7886 1.90643 29.7886 2.08331 29.7886 2.27985C29.7886 2.37812 29.7886 2.45674 29.7886 2.555C29.7886 2.65327 29.7886 2.73189 29.8083 2.83016C29.8279 3.00704 29.8476 3.20358 29.8672 3.36081C29.8869 3.49839 29.9066 3.63596 29.9459 3.77354C29.9655 3.8325 29.9852 3.91112 30.0049 3.97008C30.0245 4.02904 30.0442 4.10766 30.0639 4.16662C30.1032 4.28454 30.1622 4.40247 30.2015 4.50073C30.2408 4.5597 30.2605 4.61866 30.2998 4.65796C29.9066 4.22558 29.474 3.8325 29.0414 3.43943C29.0218 3.41977 29.0021 3.40012 28.9628 3.38047C29.0021 3.38047 29.0414 3.36081 29.0414 3.3215C29.1201 3.10531 29.1791 2.84981 29.1791 2.555C29.1791 2.39777 29.1791 2.2602 29.1594 2.10297C29.1397 1.94574 29.1201 1.7885 29.0807 1.65093C29.0021 1.37577 28.8645 1.06131 28.7072 0.766506C28.6678 0.68789 28.6088 0.628929 28.5695 0.569967C28.5302 0.511006 28.4712 0.452045 28.4319 0.393083C28.3336 0.27516 28.2353 0.176891 28.1369 0.117929C28.0976 0.393083 28.0976 0.727199 28.1566 1.08097C28.1763 1.25785 28.1959 1.43474 28.2353 1.61162C28.2549 1.69024 28.2746 1.78851 28.2942 1.86712C28.3139 1.94574 28.3336 2.04401 28.3532 2.12262C28.3926 2.2602 28.4319 2.37812 28.4712 2.5157C28.5105 2.65327 28.5695 2.7712 28.6285 2.88912C28.6482 2.94808 28.6875 3.00704 28.7072 3.04635C28.7268 3.10531 28.7661 3.14462 28.7858 3.18393C28.8251 3.26254 28.8841 3.30185 28.9234 3.36081C28.5302 3.0267 28.1173 2.71223 27.6847 2.39777C27.7044 2.37812 27.7044 2.33881 27.6847 2.2995C27.5864 2.10297 27.4291 1.88677 27.2128 1.67058C27.1145 1.57231 26.9965 1.47404 26.8785 1.37577C26.7606 1.27751 26.6229 1.19889 26.4853 1.12027C26.2297 0.982698 25.9151 0.864775 25.5808 0.805814C25.5022 0.78616 25.4235 0.766506 25.3449 0.766506C25.2662 0.746852 25.1876 0.746852 25.1089 0.746852C24.9516 0.746852 24.814 0.746852 24.696 0.766506C24.873 0.982698 25.1089 1.19889 25.4039 1.41508C25.5415 1.51335 25.6988 1.63127 25.8364 1.72954C25.9151 1.76885 25.9937 1.82781 26.0724 1.86712C26.151 1.90643 26.2297 1.96539 26.2887 2.0047C26.4066 2.06366 26.5246 2.12262 26.6623 2.18158C26.7802 2.24054 26.9179 2.27985 27.0358 2.31916C27.0948 2.33881 27.1538 2.35847 27.2128 2.35847C27.2718 2.37812 27.3308 2.37812 27.3701 2.39777C27.4684 2.41743 27.5667 2.41743 27.6454 2.41743C27.665 2.41743 27.665 2.41743 27.665 2.39777C28.078 2.69258 28.4909 3.00704 28.8841 3.34116C28.8251 3.30185 28.7858 3.2822 28.7072 3.24289C28.6678 3.22324 28.6088 3.20358 28.5499 3.18393C28.4909 3.16427 28.4319 3.14462 28.3729 3.14462C28.2549 3.12497 28.1173 3.08566 27.9796 3.08566C27.842 3.08566 27.7044 3.08566 27.5864 3.08566C27.5077 3.08566 27.4291 3.10531 27.3308 3.12497C27.2521 3.14462 27.1735 3.16427 27.0752 3.18393C26.9179 3.22323 26.7409 3.26254 26.5836 3.3215C26.269 3.43943 25.9937 3.59666 25.7971 3.75389C25.8758 3.7932 25.9741 3.8325 26.092 3.87181C26.151 3.89146 26.21 3.89147 26.269 3.91112C26.328 3.93077 26.4066 3.93077 26.4656 3.93077C26.7409 3.95043 27.0358 3.97008 27.2915 3.93077C27.4291 3.91112 27.5667 3.89146 27.7044 3.87181C27.842 3.85216 27.9993 3.81285 28.1173 3.77354C28.3926 3.69493 28.6482 3.61631 28.8448 3.49839C28.8841 3.47873 28.9038 3.43943 28.9038 3.40012C28.9234 3.41977 28.9431 3.43943 28.9824 3.45908C29.415 3.8325 29.8083 4.24523 30.2015 4.65796C30.1622 4.63831 30.1228 4.599 30.0835 4.57935C29.9852 4.52039 29.8869 4.48108 29.7493 4.44177C29.6903 4.42212 29.6313 4.40246 29.5526 4.38281C29.4937 4.36316 29.415 4.3435 29.356 4.3435C29.2184 4.32385 29.0807 4.3042 28.9431 4.3042C28.7661 4.3042 28.6088 4.3042 28.4319 4.32385C28.3532 4.32385 28.2549 4.3435 28.1763 4.36316C28.0976 4.38281 27.9993 4.40246 27.9207 4.42212C27.7634 4.46143 27.6061 4.52039 27.4488 4.57935C27.3111 4.63831 27.1735 4.69727 27.0555 4.77589C27.0948 4.79554 27.1342 4.83485 27.1931 4.8545C27.2325 4.87416 27.2915 4.89381 27.3504 4.93312C27.4094 4.95277 27.4684 4.97243 27.5274 4.99208C27.5667 4.99208 27.5864 5.01173 27.6257 5.01173C27.665 5.01173 27.6847 5.03139 27.724 5.03139C27.8617 5.07069 27.9993 5.09035 28.1566 5.11C28.2942 5.12966 28.4319 5.14931 28.5695 5.14931C28.6482 5.14931 28.7072 5.14931 28.7858 5.14931C28.8645 5.14931 28.9234 5.14931 29.0021 5.14931C29.1397 5.14931 29.297 5.12966 29.4347 5.11C29.7296 5.0707 29.9852 5.01173 30.2015 4.91346C30.2408 4.89381 30.2605 4.87416 30.2605 4.83485C30.4178 5.01173 30.5751 5.18862 30.7324 5.3655C30.9683 5.66031 31.2043 5.95512 31.4206 6.26958C31.3812 6.24993 31.3616 6.21062 31.3223 6.19096C31.2239 6.132 31.1256 6.05339 31.0077 5.99443C30.9487 5.95512 30.8897 5.93546 30.8307 5.91581C30.7717 5.89616 30.6931 5.85685 30.6341 5.83719C30.4964 5.79789 30.3588 5.75858 30.2212 5.73892C30.0442 5.71927 29.8672 5.69962 29.6903 5.69962C29.6116 5.69962 29.5133 5.69962 29.415 5.69962C29.3167 5.69962 29.238 5.71927 29.1594 5.71927C28.9824 5.73893 28.8251 5.77823 28.6678 5.81754C28.5105 5.85685 28.3729 5.91581 28.2549 5.97477C28.3926 6.11235 28.6285 6.23027 28.9038 6.30889C29.0414 6.34819 29.1791 6.40716 29.3363 6.42681C29.474 6.46612 29.6313 6.48577 29.7689 6.50542C30.0639 6.54473 30.3588 6.56439 30.6734 6.56439C30.8307 6.56439 30.9683 6.54473 31.106 6.54473C31.2436 6.52508 31.3616 6.50543 31.4796 6.46612C31.5189 6.44646 31.5385 6.42681 31.5582 6.40716C31.7942 6.74127 32.0301 7.09504 32.2464 7.44881C32.3447 7.62569 32.4627 7.82223 32.561 7.99912C32.5413 7.97946 32.502 7.94015 32.4823 7.9205C32.4037 7.84188 32.3054 7.76327 32.1874 7.68465C32.1284 7.64535 32.0694 7.60604 32.0104 7.56673C31.9515 7.52742 31.8925 7.50777 31.8138 7.46846C31.6762 7.4095 31.5582 7.35054 31.4206 7.31123C31.2436 7.27192 31.0666 7.23262 30.8897 7.21296C30.7914 7.19331 30.7127 7.19331 30.6144 7.19331C30.5161 7.19331 30.4374 7.19331 30.3391 7.19331C29.9852 7.19331 29.651 7.25227 29.3757 7.33088C29.415 7.37019 29.4543 7.4095 29.4937 7.44881C29.533 7.48812 29.592 7.52742 29.6313 7.56673C29.7296 7.64535 29.8672 7.70431 29.9852 7.76327C30.1228 7.82223 30.2605 7.88119 30.3981 7.94016C30.5358 7.99912 30.6734 8.03842 30.811 8.07773C30.8897 8.09738 30.9487 8.11704 31.0273 8.13669C31.106 8.15635 31.1846 8.176 31.2436 8.176C31.4009 8.19565 31.5582 8.23496 31.6958 8.23496C31.9908 8.27427 32.2857 8.27427 32.5413 8.23496C32.5807 8.23496 32.6003 8.21531 32.62 8.19565C32.8953 8.70665 33.1312 9.21765 33.3475 9.74831C33.3672 9.80727 33.3868 9.86623 33.4065 9.92519C33.3278 9.80727 33.2099 9.68935 33.0919 9.57142C32.8953 9.39454 32.62 9.21765 32.3644 9.09973C32.0301 8.96215 31.6565 8.86388 31.2829 8.82458C31.106 8.80492 30.929 8.78527 30.752 8.80492C30.5751 8.80492 30.4178 8.82458 30.2801 8.86388C30.3981 9.04077 30.6144 9.21765 30.8504 9.37488C30.9683 9.4535 31.106 9.53211 31.2436 9.61073C31.3812 9.68935 31.5189 9.74831 31.6565 9.80727C31.7942 9.86623 31.9515 9.92519 32.0891 9.9645C32.2464 10.0038 32.4037 10.0628 32.5413 10.1021C32.8363 10.1807 33.1312 10.22 33.3868 10.22C33.4261 10.22 33.4458 10.2003 33.4655 10.1807C33.6818 10.79 33.8784 11.3992 34.0357 12.0282C34.016 12.0085 34.016 11.9888 33.9964 11.9692C33.9374 11.8709 33.8587 11.753 33.7604 11.6547C33.6621 11.5565 33.5638 11.4385 33.4458 11.3403C33.3278 11.242 33.2099 11.1634 33.0722 11.0848C32.9149 10.9865 32.738 10.9079 32.561 10.8293C32.4627 10.79 32.384 10.7507 32.2857 10.731C32.1874 10.6917 32.1088 10.672 32.0104 10.6524C31.8335 10.6131 31.6565 10.5738 31.4796 10.5541C31.3026 10.5345 31.1453 10.5345 30.988 10.5541C31.0077 10.5934 31.047 10.6524 31.0666 10.6917C31.106 10.731 31.1453 10.79 31.1846 10.8489C31.2633 10.9472 31.3812 11.0455 31.4992 11.1437C31.5582 11.2027 31.6172 11.242 31.6762 11.301C31.7352 11.3403 31.7942 11.3992 31.8728 11.4385C31.9908 11.5368 32.1284 11.6154 32.2661 11.694C32.4037 11.7727 32.5413 11.8513 32.6986 11.9102C32.7773 11.9495 32.8559 11.9692 32.9149 12.0085C32.9936 12.0478 33.0722 12.0675 33.1312 12.1068C33.4261 12.2247 33.7211 12.3033 33.9767 12.3426C33.9964 12.3426 34.0357 12.3426 34.0553 12.323C34.193 12.9715 34.311 13.6201 34.3699 14.2687C34.3699 14.249 34.3699 14.249 34.3503 14.2294C34.3109 14.1115 34.2323 13.9935 34.1536 13.8756C33.9963 13.6398 33.7801 13.3843 33.5441 13.2074C33.2492 12.9715 32.8953 12.775 32.5413 12.6178C32.1874 12.4802 31.8335 12.3819 31.5189 12.3623C31.5779 12.5588 31.7548 12.7947 31.9515 13.0305C32.0104 13.0895 32.0498 13.1484 32.1088 13.2074C32.1677 13.2663 32.2267 13.3253 32.2857 13.3843C32.4037 13.5022 32.5217 13.6005 32.6396 13.6987C32.7576 13.797 32.8953 13.8953 33.0329 13.9739C33.1705 14.0722 33.3082 14.1508 33.4655 14.2294C33.6031 14.308 33.7604 14.3866 33.898 14.4456C34.0357 14.5045 34.1733 14.5635 34.2913 14.5831C34.311 14.5831 34.3503 14.5831 34.3699 14.5831C34.3699 14.6421 34.3896 14.7011 34.3896 14.76L34.4093 14.9173V15.0745L34.4289 15.389C34.4289 15.4479 34.4289 15.4872 34.4289 15.5462V15.7034C34.4289 15.8017 34.4289 15.9196 34.4289 16.0179L34.4093 16.5682V16.5485C34.3699 16.4306 34.3306 16.293 34.2716 16.1555C34.2323 16.0965 34.2126 16.0179 34.1733 15.9589C34.134 15.9 34.0947 15.8213 34.0553 15.7624C34.016 15.7034 33.957 15.6248 33.9177 15.5658C33.898 15.5265 33.8784 15.5069 33.8391 15.4676C33.8194 15.4479 33.7801 15.4086 33.7604 15.389C33.6228 15.2514 33.4851 15.1138 33.3278 14.9959C33.1705 14.878 32.9936 14.76 32.8363 14.6618C32.7576 14.6028 32.6593 14.5635 32.5807 14.5242C32.502 14.4849 32.4037 14.4456 32.325 14.4063C32.1481 14.3473 31.9908 14.2883 31.8335 14.2687C31.8531 14.367 31.8925 14.4849 31.9515 14.6225C32.0104 14.7404 32.0891 14.878 32.1677 15.0155C32.3447 15.2907 32.561 15.5658 32.7773 15.782C33.0132 16.0179 33.2688 16.2537 33.5441 16.4503C33.6818 16.5485 33.8194 16.6468 33.957 16.7254C34.0947 16.804 34.2126 16.8826 34.3503 16.922C34.3699 16.9416 34.4093 16.9416 34.4289 16.922V16.9809L34.4093 17.2954C34.4093 17.3936 34.3896 17.5116 34.3896 17.6098L34.3503 17.9243C34.3306 18.1405 34.311 18.3567 34.2716 18.5532L34.2126 18.8677V18.9266C34.2126 18.8677 34.193 18.8087 34.1733 18.7301C34.1537 18.6515 34.134 18.5925 34.1143 18.5139C34.075 18.3763 34.016 18.2191 33.9374 18.0815C33.8587 17.944 33.7801 17.7867 33.6818 17.6688C33.4655 17.3543 33.1509 17.0399 32.8363 16.7844C32.7576 16.7254 32.679 16.6665 32.6003 16.6075C32.5217 16.5485 32.443 16.5092 32.3644 16.4503C32.2071 16.352 32.0498 16.293 31.8925 16.2341C31.8925 16.352 31.9318 16.4699 31.9711 16.6075C32.0104 16.7451 32.0694 16.8826 32.1481 17.0399C32.1874 17.1185 32.2267 17.1971 32.2661 17.2561C32.3054 17.3347 32.3447 17.4133 32.384 17.4723C32.4627 17.6098 32.561 17.7671 32.6593 17.885C32.8559 18.1601 33.0919 18.4353 33.3278 18.6711C33.5638 18.907 33.8194 19.1232 34.0553 19.2608C34.075 19.2804 34.0947 19.2804 34.134 19.2804L34.016 19.7914C33.898 20.3024 33.7407 20.7938 33.5834 21.2851C33.5834 21.1672 33.5834 21.0296 33.5638 20.8724C33.5441 20.7151 33.5048 20.5579 33.4655 20.4007C33.4458 20.3221 33.4065 20.2435 33.3868 20.1648C33.3672 20.1255 33.3475 20.0862 33.3475 20.0469C33.3278 20.0076 33.3082 19.9683 33.2885 19.929C33.0919 19.5752 32.8559 19.2215 32.561 18.9266C32.4234 18.7694 32.2661 18.6515 32.1284 18.5336C32.0498 18.4746 31.9908 18.4156 31.9121 18.3763C31.8335 18.337 31.7548 18.2781 31.6958 18.2388C31.6958 18.2977 31.6958 18.3567 31.6958 18.4156C31.6958 18.4746 31.6958 18.5532 31.7155 18.6122C31.7352 18.6908 31.7352 18.7498 31.7548 18.8284C31.7745 18.907 31.7942 18.9856 31.8138 19.0642C31.9121 19.3787 32.0498 19.7128 32.1874 20.0076C32.2661 20.1648 32.3644 20.3024 32.443 20.4596C32.5413 20.6169 32.6396 20.7545 32.738 20.892C32.9346 21.1672 33.1705 21.4423 33.3868 21.6192C33.4065 21.6389 33.4261 21.6389 33.4458 21.6389C33.1902 22.3071 32.9149 22.936 32.5807 23.565C32.5807 23.506 32.6003 23.4667 32.6003 23.4077C32.6003 23.3291 32.6003 23.2505 32.62 23.1719C32.62 23.0146 32.62 22.8378 32.6003 22.6805C32.6003 22.6019 32.5807 22.5036 32.561 22.425C32.5413 22.3464 32.5217 22.2678 32.502 22.1892C32.384 21.7961 32.1677 21.403 31.9318 21.0493C31.8138 20.8724 31.6762 20.7151 31.5582 20.5776C31.4206 20.44 31.2829 20.3221 31.165 20.2238C31.1256 20.3417 31.1256 20.4596 31.1256 20.6169C31.1256 20.7545 31.1453 20.9313 31.165 21.0886C31.1846 21.1672 31.2043 21.2655 31.2043 21.3441C31.2239 21.4227 31.2436 21.521 31.2633 21.5996C31.3026 21.7765 31.3616 21.9337 31.4009 22.0909C31.4599 22.2481 31.5189 22.425 31.5975 22.5823C31.6762 22.7591 31.7548 22.9164 31.8335 23.0736C31.9908 23.3881 32.1677 23.6829 32.3644 23.8991C32.384 23.9187 32.384 23.9187 32.4037 23.9384C32.0498 24.5673 31.6565 25.1569 31.2436 25.7269V25.7072C31.2633 25.6679 31.2633 25.6286 31.2633 25.6089C31.2829 25.5303 31.3026 25.4517 31.3026 25.3731C31.3223 25.2945 31.3223 25.2159 31.3419 25.1373C31.3419 25.0586 31.3616 24.9604 31.3616 24.8818C31.3616 24.7049 31.3419 24.528 31.3223 24.3708C31.2829 24.1742 31.2436 23.958 31.165 23.7418C31.1256 23.6436 31.0863 23.5256 31.047 23.4274C31.0077 23.3291 30.9683 23.2308 30.9093 23.1326C30.7127 22.7395 30.4964 22.4054 30.2605 22.1695C30.2212 22.2678 30.1818 22.4054 30.1622 22.5626C30.1425 22.6412 30.1425 22.7198 30.1425 22.7985C30.1425 22.8771 30.1228 22.9557 30.1228 23.0539C30.1228 23.1326 30.1228 23.2308 30.1228 23.3095C30.1228 23.4077 30.1228 23.4863 30.1425 23.5846C30.1622 23.7615 30.1818 23.9384 30.2015 24.0956C30.2212 24.1742 30.2408 24.2725 30.2605 24.3511C30.2801 24.4494 30.2998 24.528 30.3195 24.6263C30.3588 24.8031 30.4178 24.98 30.4768 25.1569C30.5947 25.5107 30.7127 25.8251 30.87 26.0806C30.8897 26.1003 30.8897 26.1003 30.9093 26.1199C30.4571 26.6899 29.9655 27.2206 29.4347 27.7316C29.4936 27.6333 29.533 27.5154 29.5723 27.3974C29.6903 27.083 29.7493 26.7096 29.7493 26.3755C29.7493 26.2772 29.7493 26.1593 29.7296 26.0413C29.7296 25.9234 29.7099 25.8251 29.6903 25.7072C29.6706 25.5893 29.6509 25.491 29.6313 25.3731C29.6116 25.2748 29.5723 25.1569 29.5526 25.0586C29.4937 24.8424 29.415 24.6459 29.3363 24.469C29.297 24.3708 29.2577 24.2921 29.1987 24.2135C29.1594 24.1349 29.1004 24.0563 29.0414 23.9777C29.0218 23.9973 29.0021 24.0366 29.0021 24.0563C28.9824 24.076 28.9628 24.1153 28.9628 24.1349C28.9431 24.1939 28.9038 24.2725 28.8841 24.3314C28.8645 24.4101 28.8448 24.4887 28.8251 24.5673C28.8251 24.5869 28.8251 24.6066 28.8055 24.6263C28.8055 24.6459 28.8055 24.6656 28.7858 24.6852C28.7858 24.7245 28.7661 24.7638 28.7661 24.8031C28.7268 24.98 28.7072 25.1569 28.7072 25.3338C28.6875 25.5107 28.6875 25.6876 28.6875 25.8644C28.6875 25.9627 28.6875 26.0413 28.7072 26.1396C28.7072 26.2379 28.7072 26.3165 28.7268 26.4148C28.7465 26.6113 28.7661 26.7882 28.7858 26.9847C28.8448 27.3581 28.9234 27.6923 29.0414 27.9674C29.0414 27.9871 29.0611 27.9871 29.0611 28.0067C28.9628 28.105 28.8645 28.1836 28.7661 28.2819C28.3139 28.6749 27.8223 29.0484 27.3308 29.4021C27.3504 29.3825 27.3701 29.3432 27.3898 29.3235C27.4291 29.2646 27.4684 29.1859 27.5077 29.1073C27.665 28.8125 27.8027 28.4588 27.8617 28.105C27.8813 28.0067 27.901 27.8888 27.901 27.7709C27.901 27.6529 27.9207 27.535 27.9207 27.4368C27.9207 27.3188 27.9207 27.2009 27.9207 27.1026C27.9207 26.9847 27.901 26.8864 27.8813 26.7685C27.8223 26.3361 27.7044 25.9234 27.5471 25.6089C27.4684 25.7072 27.3898 25.8251 27.3308 25.9627C27.2521 26.1003 27.1931 26.2575 27.1342 26.4344C27.0752 26.6113 27.0162 26.7882 26.9769 26.9651C26.9375 27.1419 26.8982 27.3188 26.8589 27.4957C26.8392 27.6726 26.8196 27.8691 26.7999 28.0657C26.7802 28.2622 26.7802 28.4588 26.7802 28.6356C26.7802 29.0091 26.7999 29.3825 26.8785 29.6773C26.8785 29.6969 26.8982 29.6969 26.8982 29.7166C26.8392 29.7559 26.7802 29.7952 26.7212 29.8345C26.1314 30.1883 25.5415 30.5224 24.9123 30.7976C24.9909 30.7189 25.0696 30.6403 25.1286 30.5421C25.1876 30.4831 25.2269 30.4045 25.2859 30.3259C25.3449 30.2473 25.3842 30.1686 25.4235 30.09C25.5022 29.9328 25.5808 29.7559 25.6398 29.5987C25.7185 29.3825 25.7774 29.1663 25.8168 28.9304C25.8561 28.6946 25.8954 28.4784 25.8954 28.2426C25.8954 28.0067 25.8954 27.7905 25.8758 27.594C25.8561 27.4957 25.8561 27.3974 25.8364 27.2992C25.8168 27.2009 25.7971 27.1026 25.7578 27.024C25.7381 27.0437 25.7185 27.0633 25.6791 27.083C25.6595 27.1026 25.6398 27.1223 25.6005 27.1616C25.5612 27.2206 25.5022 27.2795 25.4628 27.3385C25.4235 27.3974 25.3645 27.4761 25.3252 27.5547C25.2859 27.6333 25.2269 27.7119 25.1876 27.7905C25.1483 27.8691 25.1089 27.9478 25.0696 28.046C25.0303 28.1246 24.991 28.2229 24.9516 28.3015C24.873 28.4784 24.814 28.6553 24.755 28.8125C24.7353 28.9108 24.696 28.9894 24.6764 29.0877C24.6567 29.1859 24.6174 29.2646 24.5977 29.3628C24.5584 29.5594 24.4994 29.7559 24.4797 29.9328C24.4011 30.3062 24.3618 30.6796 24.3814 30.9941C24.3814 31.0138 24.3814 31.0138 24.3814 31.0334L24.1455 31.1317L23.9882 31.1906C23.9292 31.2103 23.8899 31.2299 23.8309 31.2496C23.6342 31.3282 23.4376 31.3872 23.2213 31.4658L22.6118 31.6623C22.5135 31.7016 22.4152 31.7213 22.2972 31.7409L22.1792 31.7803C22.1989 31.7606 22.2185 31.7606 22.2382 31.7409C22.2972 31.7016 22.3758 31.6427 22.4348 31.5837C22.5725 31.4658 22.6904 31.3282 22.8084 31.1906C22.9264 31.0531 23.0247 30.8958 23.123 30.7386C23.182 30.6403 23.2213 30.5421 23.2803 30.4241C23.3196 30.3259 23.3786 30.2079 23.418 30.09C23.4966 29.8738 23.5753 29.638 23.6146 29.4218C23.7129 28.9698 23.7326 28.5374 23.6932 28.1639C23.5753 28.2229 23.4769 28.3015 23.359 28.4194C23.3393 28.4391 23.3 28.4784 23.2803 28.5177C23.2607 28.557 23.2213 28.5767 23.2017 28.616C23.1427 28.6749 23.0837 28.7536 23.0247 28.8125C22.9657 28.8911 22.9067 28.9698 22.8477 29.0484L22.8084 29.1073L22.7691 29.1663C22.7494 29.2056 22.7101 29.2449 22.6904 29.2842C22.5921 29.4414 22.4938 29.5987 22.3955 29.7756C22.2972 29.9328 22.2185 30.1097 22.1399 30.3062C22.1006 30.4045 22.0612 30.4831 22.0219 30.5814C21.9826 30.6796 21.9433 30.7583 21.9039 30.8565C21.7663 31.2299 21.668 31.5837 21.6287 31.9178V31.9375C20.9208 32.0947 20.213 32.2126 19.5051 32.2716L19.5248 32.5468C20.2523 32.4681 20.9798 32.3502 21.6877 32.193C21.6877 32.2126 21.6877 32.2126 21.7073 32.2323C21.8843 32.5074 22.1399 32.7826 22.4742 33.0184C22.5528 33.0774 22.6511 33.1364 22.7298 33.1953C22.8281 33.2543 22.9067 33.3133 23.005 33.3526C23.2017 33.4508 23.3983 33.5491 23.6146 33.6277C23.8112 33.6867 24.0275 33.7456 24.2634 33.7849C24.3224 33.8046 24.3814 33.8046 24.4404 33.8046L24.5387 33.8243H24.637C24.755 33.8439 24.873 33.8439 24.991 33.8439C25.1089 33.8439 25.2269 33.8439 25.3449 33.8439C25.4039 33.8439 25.4628 33.8439 25.5218 33.8243C25.5808 33.8243 25.6398 33.8046 25.6791 33.8046C25.8954 33.7653 26.092 33.726 26.269 33.6474C25.9741 33.3919 25.5612 33.156 25.1089 32.9398C24.8926 32.8219 24.637 32.7236 24.4207 32.6254C24.3028 32.5861 24.1848 32.5271 24.0668 32.4878C23.9488 32.4485 23.8309 32.3895 23.7129 32.3502C23.5359 32.2913 23.3393 32.2323 23.1623 32.193C22.9657 32.134 22.7888 32.1144 22.6118 32.0751C22.5135 32.0554 22.4348 32.0554 22.3562 32.0358C22.3169 32.0358 22.2972 32.0358 22.2775 32.0358L22.4152 31.9964C22.5135 31.9768 22.6315 31.9375 22.7298 31.9178L23.3393 31.7213C23.5359 31.6427 23.7522 31.5641 23.9488 31.5051C24.0078 31.4854 24.0472 31.4658 24.1061 31.4461L24.2634 31.3872L24.4994 31.2889C24.4994 31.3086 24.5191 31.3086 24.5191 31.3282C24.7353 31.5641 25.0303 31.7803 25.4039 31.9571C25.5808 32.0554 25.7774 32.1144 25.9937 32.193C26.092 32.2323 26.1904 32.2519 26.3083 32.2913C26.3673 32.3109 26.4066 32.3109 26.4656 32.3306C26.5246 32.3502 26.5639 32.3502 26.6229 32.3502C26.8196 32.3895 27.0358 32.4092 27.2718 32.4092C27.3898 32.4092 27.5077 32.4092 27.6257 32.3895C27.7437 32.3895 27.8617 32.3699 27.9796 32.3502C28.0976 32.3306 28.2156 32.3109 28.3336 32.2913C28.4515 32.2716 28.5499 32.2323 28.6482 32.193C28.7465 32.1537 28.8448 32.1144 28.9431 32.0751C28.9824 32.0554 29.0414 32.0358 29.0807 32.0161C29.1201 31.9964 29.1594 31.9768 29.1987 31.9375C29.1201 31.8982 29.0218 31.8392 28.9431 31.7999C28.8448 31.7606 28.7465 31.7213 28.6482 31.6623C28.4319 31.5837 28.2156 31.5051 27.9796 31.4461C27.7437 31.3872 27.4881 31.3086 27.2521 31.2496C27.0162 31.1906 26.7606 31.1513 26.5246 31.112C26.328 31.0727 26.151 31.0531 25.9544 31.0531C25.8561 31.0531 25.7578 31.0334 25.6791 31.0334C25.5808 31.0334 25.5022 31.0334 25.4039 31.0334C25.2859 31.0334 25.1483 31.0531 25.0499 31.0531C25.6791 30.7583 26.3083 30.4241 26.8982 30.0507C26.9572 30.0114 27.0162 29.9721 27.0752 29.9328C27.0752 29.9524 27.0948 29.9524 27.1145 29.9721C27.3504 30.149 27.6847 30.3259 28.078 30.4438C28.2746 30.5028 28.4712 30.5421 28.6875 30.5617C28.9038 30.601 29.1201 30.6207 29.3167 30.601C29.5133 30.601 29.7296 30.5814 29.9656 30.5421C30.1818 30.5028 30.4178 30.4438 30.6341 30.3652C30.8504 30.3062 31.0666 30.2079 31.2436 30.1097C31.4206 30.0114 31.5975 29.9131 31.7155 29.7952C31.3812 29.6576 30.9093 29.579 30.4374 29.5201C30.3195 29.5004 30.2015 29.5004 30.0835 29.4808C29.9655 29.4611 29.8279 29.4611 29.7099 29.4611C29.592 29.4611 29.474 29.4414 29.356 29.4414C29.238 29.4414 29.1201 29.4414 29.0021 29.4414C28.6285 29.4414 28.2353 29.4808 27.901 29.5594C27.8223 29.579 27.7437 29.5987 27.665 29.6183C27.6257 29.638 27.5864 29.638 27.5471 29.6576C28.0583 29.3039 28.5499 28.9304 29.0021 28.5177C29.1004 28.4391 29.1987 28.3408 29.297 28.2426C29.3167 28.2622 29.3167 28.2622 29.3363 28.2819C29.592 28.4194 29.9459 28.5177 30.3391 28.5767C30.5358 28.5963 30.7324 28.616 30.9487 28.5963C31.047 28.5963 31.165 28.5963 31.2633 28.5767C31.3616 28.5767 31.4599 28.557 31.5779 28.5374C31.7745 28.4981 31.9711 28.4588 32.1874 28.3801C32.4037 28.3015 32.6003 28.2229 32.7969 28.105C32.8559 28.0853 32.8953 28.046 32.9542 28.0264C32.9739 28.0067 32.9936 28.0067 33.0329 27.9871C33.0526 27.9674 33.0722 27.9674 33.1115 27.9478C33.2099 27.8888 33.2885 27.8298 33.3672 27.7709C33.4458 27.7119 33.5245 27.6529 33.6031 27.5743C33.6424 27.535 33.6621 27.5154 33.7014 27.4761C33.7407 27.4368 33.7604 27.4171 33.7801 27.3778C33.7014 27.3581 33.6031 27.3385 33.5048 27.3385C33.4065 27.3188 33.3082 27.3188 33.1902 27.3188C32.9739 27.3188 32.738 27.3188 32.502 27.3188C32.384 27.3188 32.2661 27.3385 32.1481 27.3385C32.0301 27.3385 31.9121 27.3581 31.7942 27.3778C31.6762 27.3974 31.5582 27.3974 31.4402 27.4171C31.3223 27.4368 31.2043 27.4564 31.106 27.4761C30.752 27.535 30.3785 27.6529 30.0639 27.7512C29.9262 27.7905 29.8083 27.8495 29.7099 27.9084C30.2408 27.3974 30.7324 26.8471 31.2043 26.2575C31.2239 26.2772 31.2436 26.2772 31.2436 26.2772C31.5189 26.3755 31.8728 26.4148 32.2661 26.3951C32.4627 26.3951 32.6593 26.3558 32.8559 26.3361C32.9542 26.3165 33.0526 26.2968 33.1509 26.2772C33.2099 26.2575 33.2492 26.2575 33.3082 26.2379C33.3475 26.2182 33.4065 26.1986 33.4458 26.1986C33.6228 26.1396 33.8194 26.061 34.016 25.9431C34.0553 25.9234 34.1143 25.8841 34.1536 25.8644C34.193 25.8448 34.252 25.8055 34.2913 25.7858C34.3896 25.7269 34.4682 25.6679 34.5666 25.5893C34.6649 25.5303 34.7435 25.4517 34.8222 25.3928C34.9008 25.3141 34.9795 25.2552 35.0385 25.1766C35.1761 25.039 35.2941 24.8818 35.3727 24.7442C35.0188 24.7245 34.5862 24.7835 34.134 24.8818C34.016 24.9014 33.898 24.9407 33.7997 24.9604C33.6818 24.98 33.5638 25.0193 33.4655 25.039C33.2295 25.0979 33.0132 25.1766 32.7969 25.2355C32.62 25.2945 32.4627 25.3534 32.3054 25.4321C32.2267 25.4714 32.1481 25.5107 32.0694 25.55C31.9908 25.5893 31.9121 25.6286 31.8531 25.6679C31.7745 25.7072 31.7155 25.7465 31.6565 25.7858C31.6172 25.8055 31.5975 25.8251 31.5582 25.8448C31.5385 25.8644 31.5385 25.8645 31.5189 25.8841C31.9515 25.2945 32.3447 24.6852 32.6986 24.0366C32.7183 24.0563 32.738 24.0563 32.7576 24.0563C33.0329 24.0956 33.3868 24.0956 33.7604 24.017C33.9374 23.9777 34.134 23.9187 34.3109 23.8598C34.4879 23.8008 34.6845 23.7222 34.8615 23.6239C35.0188 23.5453 35.1958 23.4274 35.3727 23.2898C35.4514 23.2308 35.5497 23.1522 35.6283 23.0933C35.707 23.0146 35.7856 22.9557 35.8643 22.8771C36.0216 22.7198 36.1592 22.5626 36.2575 22.4054C36.3755 22.2481 36.4542 22.0909 36.5131 21.9337C36.3362 21.9533 36.1592 21.9926 35.9429 22.0516C35.7463 22.1106 35.5497 22.1892 35.3334 22.2678C34.9008 22.425 34.4879 22.6216 34.0947 22.8181C34.016 22.8574 33.9374 22.8967 33.8587 22.9557C33.7801 22.995 33.7211 23.0539 33.6424 23.0933C33.4851 23.1915 33.3475 23.2898 33.2295 23.3881C33.1705 23.447 33.1115 23.4863 33.0526 23.5453C32.9936 23.5846 32.9542 23.6239 32.9149 23.6632C33.2492 23.0343 33.5441 22.3661 33.7801 21.6978C33.7997 21.7175 33.8194 21.7175 33.8391 21.7175C34.1143 21.7175 34.4486 21.6585 34.8025 21.521C34.9795 21.462 35.1564 21.3834 35.3137 21.2851C35.471 21.1868 35.648 21.0886 35.8053 20.9706C36.1002 20.7545 36.3952 20.44 36.6508 20.1059C36.7098 20.0273 36.7688 19.929 36.8277 19.8504C36.8867 19.7718 36.9261 19.6735 36.9654 19.5949C37.0047 19.5163 37.044 19.418 37.0834 19.3394C37.1227 19.2608 37.1423 19.1821 37.1423 19.1035C37.0637 19.1232 36.985 19.1428 36.8867 19.1821C36.8081 19.2215 36.7098 19.2608 36.6115 19.3001C36.4345 19.3787 36.2379 19.477 36.0412 19.5949C35.6677 19.8111 35.2547 20.0666 34.9205 20.3221C34.8812 20.3417 34.8615 20.381 34.8222 20.4007C34.7828 20.4203 34.7632 20.4596 34.7239 20.4793C34.6649 20.5383 34.5862 20.5972 34.5272 20.6562C34.4093 20.7741 34.2913 20.892 34.1733 21.01C34.075 21.1279 33.9767 21.2261 33.898 21.3441C34.075 20.8527 34.2126 20.3417 34.3306 19.8307L34.3699 19.1625Z" fill="url(#paint1_linear_20931_1837)"/>
<defs>
<linearGradient id="paint0_linear_20931_1837" x1="13.7917" y1="30.8645" x2="-5.82725" y2="14.7971" gradientUnits="userSpaceOnUse">
<stop stop-color="#984F35"/>
<stop offset="0.0541953" stop-color="#9D563A"/>
<stop offset="0.1321" stop-color="#AA6949"/>
<stop offset="0.2239" stop-color="#C08862"/>
<stop offset="0.2399" stop-color="#C48E67"/>
<stop offset="0.333" stop-color="#B3744F"/>
<stop offset="0.3888" stop-color="#AD6A46"/>
<stop offset="0.5239" stop-color="#AD6C48"/>
<stop offset="0.549" stop-color="#B57954"/>
<stop offset="0.6114" stop-color="#C7956E"/>
<stop offset="0.6662" stop-color="#D1A67D"/>
<stop offset="0.7072" stop-color="#D5AC83"/>
<stop offset="0.7403" stop-color="#CC9E78"/>
<stop offset="0.8561" stop-color="#B07354"/>
<stop offset="0.9465" stop-color="#9E593D"/>
<stop offset="1" stop-color="#984F35"/>
</linearGradient>
<linearGradient id="paint1_linear_20931_1837" x1="33.2361" y1="31.127" x2="13.5613" y2="15.1596" gradientUnits="userSpaceOnUse">
<stop stop-color="#984F35"/>
<stop offset="0.0541953" stop-color="#9D563A"/>
<stop offset="0.1321" stop-color="#AA6949"/>
<stop offset="0.2239" stop-color="#C08862"/>
<stop offset="0.2399" stop-color="#C48E67"/>
<stop offset="0.333" stop-color="#B3744F"/>
<stop offset="0.3888" stop-color="#AD6A46"/>
<stop offset="0.5239" stop-color="#AD6C48"/>
<stop offset="0.549" stop-color="#B57954"/>
<stop offset="0.6114" stop-color="#C7956E"/>
<stop offset="0.6662" stop-color="#D1A67D"/>
<stop offset="0.7072" stop-color="#D5AC83"/>
<stop offset="0.7403" stop-color="#CC9E78"/>
<stop offset="0.8561" stop-color="#B07354"/>
<stop offset="0.9465" stop-color="#9E593D"/>
<stop offset="1" stop-color="#984F35"/>
</linearGradient>
</defs>
</svg>
