<svg width="38" height="34" viewBox="0 0 38 34" fill="none" xmlns="http://www.w3.org/2000/svg">
<path d="M21.7368 31.9148C21.7763 31.5992 21.8749 31.2245 22.013 30.8497C22.0524 30.7511 22.0919 30.6722 22.1313 30.5735C22.1708 30.4749 22.2102 30.396 22.2497 30.2974C22.3286 30.1199 22.4272 29.9423 22.5061 29.7648C22.585 29.607 22.6836 29.4295 22.802 29.2717C22.8217 29.2322 22.8612 29.1928 22.8809 29.1533L22.9203 29.0942L22.9598 29.035C23.019 28.9561 23.0781 28.8772 23.1373 28.7983C23.1965 28.7194 23.2557 28.6602 23.3148 28.601C23.3543 28.5616 23.374 28.5419 23.3937 28.5024C23.4135 28.463 23.4529 28.4432 23.4726 28.4038C23.591 28.2854 23.7093 28.2066 23.808 28.1474C23.8671 28.5221 23.8277 28.9561 23.7291 29.4098C23.6896 29.6267 23.6107 29.8634 23.5318 30.0804C23.4924 30.1988 23.4529 30.2974 23.3937 30.4157C23.3543 30.5144 23.2951 30.6327 23.2359 30.7313C23.157 30.8891 23.0387 31.0469 22.9203 31.185C22.802 31.3231 22.6639 31.4612 22.5456 31.5795C22.4864 31.6387 22.4075 31.6978 22.3483 31.7373C22.3286 31.757 22.3089 31.757 22.2891 31.7767L22.4075 31.7373C22.5061 31.7176 22.6245 31.6781 22.7231 31.6584L23.3346 31.4612C23.5318 31.3823 23.7291 31.3231 23.946 31.2442C24.0052 31.2245 24.0446 31.2047 24.1038 31.185L24.2616 31.1258L24.4983 31.0272C24.4983 31.0075 24.4983 31.0075 24.4983 30.9878C24.4786 30.6722 24.518 30.2974 24.5969 29.9226C24.6364 29.7254 24.6758 29.5281 24.7153 29.3506C24.735 29.252 24.7745 29.1533 24.7942 29.0744C24.8139 28.9758 24.8534 28.8969 24.8731 28.7983C24.9323 28.6208 24.9914 28.4432 25.0703 28.2854C25.1098 28.2065 25.1492 28.1079 25.1887 28.029C25.2281 27.9501 25.2676 27.8515 25.307 27.7726C25.3465 27.6937 25.4057 27.6148 25.4451 27.5359C25.4846 27.457 25.5437 27.3978 25.5832 27.3189C25.6226 27.2598 25.6818 27.2006 25.7213 27.1414C25.741 27.1217 25.7607 27.0822 25.8002 27.0625C25.8199 27.0428 25.8396 27.0231 25.8791 27.0033C25.8988 27.0822 25.9382 27.1809 25.958 27.2795C25.9777 27.3781 25.9974 27.4767 25.9974 27.5754C26.0171 27.7726 26.0369 28.0093 26.0171 28.2263C26.0171 28.463 25.9777 28.6799 25.9382 28.9166C25.8988 29.1336 25.8396 29.3703 25.7607 29.5873C25.7015 29.7648 25.6226 29.9226 25.5437 30.0804C25.5043 30.1593 25.4451 30.2382 25.4057 30.3171C25.3465 30.396 25.307 30.4552 25.2479 30.5341C25.169 30.6327 25.1098 30.7116 25.0309 30.7905C25.6621 30.4946 26.2538 30.179 26.8456 29.824C26.9048 29.7845 26.9639 29.7451 27.0231 29.7056C27.0231 29.6859 27.0034 29.6859 27.0034 29.6662C26.9245 29.3703 26.9048 28.9955 26.9048 28.6208C26.9048 28.4235 26.9245 28.2263 26.9245 28.0488C26.9442 27.8515 26.9639 27.674 26.9837 27.4767C27.0034 27.2992 27.0428 27.1217 27.102 26.9442C27.1415 26.7666 27.2006 26.5891 27.2598 26.4116C27.319 26.2538 27.3781 26.0763 27.457 25.9382C27.5359 25.8001 27.6149 25.6818 27.674 25.5831C27.8318 25.8987 27.9502 26.313 28.0093 26.7469C28.0291 26.8653 28.0291 26.9639 28.0488 27.0822C28.0488 27.2006 28.0488 27.2992 28.0488 27.4176C28.0488 27.5359 28.0488 27.6543 28.0291 27.7529C28.0291 27.8712 28.0093 27.9698 27.9896 28.0882C27.9304 28.4235 27.8121 28.7983 27.6346 29.0942C27.5951 29.1731 27.5557 29.2322 27.5162 29.3111C27.4965 29.3506 27.4768 29.3703 27.457 29.39C27.9502 29.035 28.4433 28.6799 28.897 28.2657C28.9956 28.1868 29.0942 28.0882 29.1928 27.9896C29.1731 27.9698 29.1731 27.9699 29.1731 27.9501C29.0548 27.674 28.9759 27.3189 28.9167 26.9639C28.8772 26.7864 28.8575 26.5891 28.8575 26.3919C28.8575 26.2932 28.8378 26.1946 28.8378 26.1157C28.8378 26.0171 28.8378 25.9382 28.8181 25.8396C28.8181 25.662 28.8181 25.4845 28.8378 25.307C28.8575 25.1295 28.8772 24.9322 28.897 24.7744C28.897 24.735 28.9167 24.6955 28.9167 24.6561C28.9167 24.6363 28.9167 24.6166 28.9364 24.5969C28.9364 24.5772 28.9364 24.5574 28.9561 24.5377C28.9759 24.4588 28.9956 24.3799 29.0153 24.301C29.035 24.2221 29.0548 24.163 29.0942 24.1038C29.1139 24.0643 29.1139 24.0446 29.1337 24.0249C29.1534 24.0052 29.1534 23.9657 29.1731 23.946C29.2323 24.0249 29.2717 24.0841 29.3309 24.1827C29.3704 24.2616 29.4295 24.3405 29.469 24.4391C29.5479 24.6166 29.6268 24.8139 29.686 25.0308C29.7254 25.1295 29.7451 25.2478 29.7649 25.3464C29.7846 25.4451 29.8043 25.5634 29.824 25.6818C29.8438 25.8001 29.8438 25.8987 29.8635 26.0171C29.8635 26.1354 29.8832 26.2341 29.8832 26.3524C29.8832 26.6877 29.824 27.0625 29.7057 27.3781C29.6662 27.4965 29.6268 27.6148 29.5676 27.7134C30.1002 27.2006 30.5933 26.668 31.047 26.096C31.0272 26.0763 31.0272 26.0763 31.0075 26.0565C30.8497 25.8001 30.7117 25.4845 30.613 25.1295C30.5539 24.9519 30.4947 24.7744 30.4552 24.5969C30.4355 24.4983 30.4158 24.4194 30.3961 24.3208C30.3763 24.2221 30.3566 24.1432 30.3369 24.0643C30.2974 23.9065 30.2777 23.729 30.2777 23.5515C30.2777 23.4529 30.2777 23.374 30.258 23.2753C30.258 23.1767 30.258 23.0978 30.258 23.0189C30.258 22.94 30.258 22.8414 30.2777 22.7625C30.2777 22.6836 30.2974 22.6047 30.2974 22.5258C30.3172 22.368 30.3566 22.2496 30.3961 22.1313C30.6328 22.368 30.8695 22.7033 31.047 23.0978C31.0864 23.1964 31.1456 23.2951 31.185 23.3937C31.2245 23.4923 31.2639 23.5909 31.3034 23.7093C31.3626 23.9263 31.4217 24.1432 31.4612 24.3405C31.4809 24.4983 31.5006 24.6758 31.5006 24.8533C31.5006 24.9322 31.5006 25.0308 31.4809 25.1097C31.4809 25.1886 31.4612 25.2675 31.4415 25.3464C31.4217 25.4253 31.402 25.5042 31.402 25.5831C31.402 25.6226 31.3823 25.662 31.3823 25.6818V25.7015C31.8162 25.1295 32.2107 24.5377 32.5461 23.9065C32.5263 23.9065 32.5066 23.8868 32.5066 23.8671C32.3094 23.6501 32.1318 23.3542 31.974 23.0386C31.8951 22.8808 31.8162 22.7033 31.7373 22.5455C31.6584 22.368 31.5993 22.2102 31.5401 22.0524C31.4809 21.8946 31.4415 21.7171 31.402 21.5593C31.3823 21.4804 31.3626 21.3817 31.3428 21.3028C31.3231 21.2239 31.3034 21.1253 31.3034 21.0464C31.2837 20.8689 31.2639 20.7111 31.2639 20.573C31.2639 20.4152 31.2639 20.2969 31.3034 20.1785C31.4415 20.2772 31.5795 20.3955 31.6979 20.5336C31.836 20.6717 31.9543 20.8295 32.0727 21.007C32.3094 21.3423 32.5066 21.7565 32.6447 22.151C32.6644 22.2299 32.6841 22.3088 32.7039 22.3877C32.7236 22.4666 32.7433 22.5455 32.7433 22.6441C32.763 22.8019 32.7828 22.9795 32.763 23.1373C32.763 23.2162 32.763 23.2951 32.7433 23.374C32.7433 23.4331 32.7236 23.4726 32.7236 23.5318C33.0589 22.9006 33.3351 22.2694 33.5915 21.5987C33.5718 21.5987 33.552 21.579 33.5323 21.579C33.3153 21.4015 33.0984 21.1451 32.8814 20.8492C32.7828 20.7111 32.6841 20.5533 32.5855 20.4152C32.4869 20.2574 32.408 20.0996 32.3291 19.9616C32.191 19.6854 32.0332 19.3304 31.9543 19.0148C31.9346 18.9359 31.9149 18.857 31.8951 18.7781C31.8754 18.6992 31.8557 18.6203 31.8557 18.5611C31.836 18.4822 31.836 18.423 31.836 18.3638C31.836 18.3047 31.836 18.2455 31.836 18.1863C31.9149 18.2258 31.974 18.2652 32.0529 18.3244C32.1318 18.3638 32.2107 18.423 32.2699 18.4822C32.408 18.6005 32.5658 18.7386 32.7039 18.8767C32.9997 19.1726 33.2364 19.5276 33.4337 19.8827C33.4534 19.9221 33.4731 19.9616 33.4929 20.001C33.5126 20.0405 33.5323 20.0799 33.5323 20.1194C33.5718 20.1983 33.5915 20.2772 33.6112 20.3561C33.6507 20.5139 33.6901 20.6717 33.7098 20.8295C33.7296 20.9675 33.7296 21.1056 33.7296 21.2437C33.9071 20.7506 34.0452 20.2574 34.1635 19.7446L34.2819 19.2317C34.2621 19.2317 34.2424 19.2317 34.203 19.212C33.9663 19.0739 33.7098 18.857 33.4731 18.6203C33.2364 18.3836 32.9997 18.1074 32.8025 17.8313C32.7039 17.7129 32.6052 17.5551 32.5263 17.417C32.4869 17.3382 32.4474 17.279 32.408 17.2001C32.3685 17.1212 32.3291 17.0423 32.2896 16.9831C32.2107 16.8253 32.1516 16.6872 32.1121 16.5492C32.0727 16.4111 32.0332 16.2927 32.0332 16.1744C32.191 16.2336 32.3488 16.2927 32.5066 16.3914C32.5855 16.4308 32.6644 16.49 32.7433 16.5492C32.8222 16.6083 32.9011 16.6675 32.98 16.7267C33.2956 16.9831 33.5915 17.279 33.8282 17.6143C33.9268 17.7524 34.0057 17.8904 34.0846 18.0285C34.1635 18.1666 34.203 18.3244 34.2621 18.4625C34.2819 18.5414 34.3016 18.6005 34.3213 18.6794C34.341 18.7386 34.341 18.8175 34.3608 18.8767V18.8175L34.4199 18.5019C34.4594 18.2849 34.4791 18.068 34.4988 17.8707L34.5383 17.5551C34.558 17.4565 34.558 17.3382 34.558 17.2395L34.5777 16.9239V16.8648C34.558 16.8648 34.5185 16.8648 34.4988 16.8648C34.3805 16.8056 34.2424 16.7464 34.1043 16.6675C33.9663 16.5886 33.8282 16.49 33.6901 16.3914C33.414 16.1941 33.1575 15.9574 32.9208 15.7207C32.7039 15.5037 32.4869 15.2276 32.3094 14.9514C32.2107 14.8134 32.1516 14.6753 32.0924 14.5569C32.0332 14.4386 31.9938 14.3202 31.974 14.2019C32.1318 14.2413 32.2896 14.2808 32.4672 14.34C32.5461 14.3794 32.6447 14.4189 32.7236 14.4583C32.8025 14.4978 32.9011 14.5372 32.98 14.5964C33.1575 14.695 33.3153 14.8134 33.4731 14.9317C33.6309 15.0501 33.769 15.1881 33.9071 15.3262C33.9268 15.3459 33.9663 15.3854 33.986 15.4051C34.0057 15.4248 34.0452 15.4643 34.0649 15.5037C34.1043 15.5629 34.1635 15.6221 34.203 15.701C34.2424 15.7602 34.2819 15.8391 34.3213 15.8982C34.3608 15.9574 34.4002 16.0363 34.4199 16.0955C34.4791 16.2336 34.5383 16.3716 34.558 16.49V16.5097L34.5777 15.9574C34.5777 15.8588 34.5777 15.7404 34.5777 15.6418V15.484C34.5777 15.4248 34.5777 15.3854 34.5777 15.3262L34.558 15.0106V14.8528L34.5383 14.695C34.5383 14.6358 34.5185 14.5767 34.5185 14.5175C34.4988 14.5175 34.4594 14.5372 34.4396 14.5175C34.3213 14.478 34.1832 14.4386 34.0452 14.3794C33.9071 14.3202 33.769 14.2413 33.6112 14.1624C33.4731 14.0835 33.3351 13.9849 33.1773 13.906C33.0392 13.8074 32.9011 13.7088 32.7828 13.6299C32.6644 13.5313 32.5461 13.4326 32.4277 13.3143C32.3685 13.2551 32.3094 13.1959 32.2502 13.1368C32.191 13.0776 32.1318 13.0184 32.0924 12.9592C31.8951 12.7225 31.7176 12.4858 31.6584 12.2886C31.974 12.3083 32.3094 12.3872 32.6841 12.545C33.0392 12.6831 33.3942 12.9001 33.6901 13.1368C33.9268 13.3143 34.1438 13.5707 34.3016 13.8074C34.3805 13.9258 34.4397 14.0441 34.4988 14.1624C34.4988 14.1822 34.4988 14.1822 34.5185 14.2019C34.4594 13.551 34.341 12.9001 34.203 12.2491C34.1832 12.2689 34.1438 12.2689 34.1241 12.2689C33.8676 12.2491 33.5718 12.1505 33.2759 12.0322C33.197 12.0124 33.1181 11.973 33.0589 11.9335C32.98 11.8941 32.9011 11.8744 32.8419 11.8349C32.6841 11.756 32.5461 11.6968 32.408 11.6179C32.2699 11.539 32.1516 11.4601 32.0135 11.3615C31.9543 11.3221 31.8951 11.2629 31.8162 11.2234C31.7571 11.184 31.6979 11.1248 31.6387 11.0656C31.5204 10.967 31.4217 10.8684 31.3231 10.7698C31.2837 10.7106 31.2442 10.6711 31.2048 10.612C31.1653 10.5725 31.1456 10.5133 31.1259 10.4739C31.2837 10.4542 31.4415 10.4542 31.619 10.4739C31.7965 10.4936 31.974 10.5331 32.1516 10.5725C32.2502 10.5922 32.3291 10.6317 32.4277 10.6514C32.5263 10.6909 32.6052 10.7106 32.7039 10.75C32.8814 10.8289 33.0589 10.9078 33.2167 11.0065C33.3351 11.0854 33.4731 11.1643 33.5915 11.2629C33.7098 11.3615 33.8085 11.4601 33.9071 11.5785C34.0057 11.6771 34.0846 11.7955 34.1438 11.8941C34.1635 11.9138 34.1635 11.9335 34.1832 11.9533C34.0254 11.3221 33.8282 10.7106 33.6112 10.0991C33.5915 10.1189 33.552 10.1386 33.5323 10.1386C33.2759 10.1386 32.98 10.0991 32.6841 10.0202C32.5263 9.98078 32.3685 9.94133 32.2305 9.88215C32.0727 9.8427 31.9346 9.78353 31.7965 9.72435C31.6584 9.66518 31.5204 9.60601 31.3823 9.52711C31.2442 9.44821 31.1061 9.36931 30.9878 9.29041C30.7314 9.13261 30.5144 8.95509 30.4158 8.77756C30.5539 8.73811 30.7117 8.73811 30.8892 8.71839C31.0667 8.71839 31.2442 8.71839 31.4217 8.73811C31.7965 8.77756 32.1516 8.87619 32.5066 9.01426C32.763 9.13261 33.0392 9.29041 33.2364 9.48766C33.3745 9.60601 33.4731 9.72436 33.552 9.8427C33.5323 9.78353 33.5126 9.72436 33.4929 9.66518C33.2759 9.13261 33.0195 8.61976 32.763 8.10692C32.7433 8.12664 32.7236 8.14637 32.6841 8.14637C32.4474 8.18582 32.1516 8.18582 31.836 8.14637C31.6782 8.12664 31.5204 8.10692 31.3823 8.08719C31.3034 8.06747 31.2245 8.04774 31.1653 8.04774C31.0864 8.02802 31.0075 8.00829 30.9484 7.98857C30.8103 7.94912 30.6722 7.90967 30.5341 7.85049C30.3961 7.79132 30.258 7.73215 30.1199 7.67297C29.9818 7.6138 29.8635 7.5349 29.7649 7.47572C29.7057 7.43627 29.6662 7.39682 29.6268 7.35737C29.5873 7.31792 29.5479 7.27847 29.5084 7.23902C29.7846 7.1404 30.1199 7.10095 30.475 7.10095C30.5736 7.10095 30.6525 7.10095 30.7511 7.10095C30.8497 7.10095 30.9286 7.12067 31.0272 7.12067C31.2048 7.1404 31.3823 7.17985 31.5598 7.2193C31.6979 7.25875 31.836 7.31792 31.9543 7.3771C32.0135 7.41655 32.0924 7.43627 32.1516 7.47572C32.2107 7.51517 32.2699 7.55462 32.3291 7.59407C32.4474 7.67297 32.5461 7.75187 32.625 7.83077C32.6644 7.85049 32.6841 7.88994 32.7039 7.90967C32.6052 7.73214 32.5066 7.5349 32.3883 7.35737C32.1713 7.00232 31.9346 6.64728 31.6979 6.31195C31.6979 6.33168 31.6584 6.37113 31.619 6.37113C31.5006 6.41058 31.3823 6.4303 31.2442 6.45003C31.1061 6.46975 30.9681 6.46975 30.8103 6.46975C30.5144 6.46975 30.1988 6.45003 29.9029 6.41058C29.7649 6.39085 29.6268 6.37113 29.469 6.33168C29.3309 6.29223 29.1731 6.25278 29.035 6.21333C28.7589 6.11471 28.5222 5.99636 28.3841 5.87801C28.5025 5.81883 28.6603 5.75966 28.7983 5.72021C28.9561 5.68076 29.1139 5.64131 29.2915 5.62158C29.3704 5.60186 29.469 5.60186 29.5479 5.60186C29.6465 5.60186 29.7254 5.60186 29.824 5.60186C30.0016 5.60186 30.1791 5.62158 30.3566 5.64131C30.4947 5.66103 30.6328 5.70048 30.7708 5.73993C30.83 5.75966 30.9089 5.77938 30.9681 5.81883C31.0272 5.83856 31.0864 5.87801 31.1456 5.89773C31.2639 5.95691 31.3626 6.01608 31.4612 6.09498C31.5006 6.11471 31.5204 6.15416 31.5598 6.17388C31.3428 5.85828 31.1061 5.56241 30.8695 5.26654C30.7117 5.08901 30.5539 4.91149 30.3961 4.73397C30.3961 4.75369 30.3763 4.79314 30.3369 4.81287C30.1199 4.91149 29.8438 4.97066 29.5676 5.01011C29.4295 5.02984 29.2717 5.04956 29.1337 5.04956C29.0548 5.04956 28.9956 5.04956 28.9167 5.04956C28.8378 5.04956 28.7786 5.04956 28.6997 5.04956C28.5616 5.04956 28.4236 5.02984 28.2855 5.01011C28.1474 4.99039 27.9896 4.97066 27.8515 4.93121C27.8121 4.93121 27.7924 4.91149 27.7529 4.91149C27.7135 4.91149 27.6937 4.89176 27.6543 4.89176C27.5951 4.87204 27.5359 4.85232 27.4768 4.83259C27.4176 4.81287 27.3584 4.79314 27.319 4.75369C27.2598 4.73397 27.2204 4.69452 27.1809 4.67479C27.2993 4.59589 27.4373 4.53672 27.5754 4.47754C27.7135 4.41837 27.8713 4.37892 28.0488 4.31974C28.1277 4.30002 28.2066 4.28029 28.3052 4.26057C28.3841 4.24084 28.4827 4.24085 28.5616 4.22112C28.7392 4.2014 28.9167 4.20139 29.0745 4.20139C29.2126 4.20139 29.3506 4.22112 29.4887 4.24084C29.5479 4.26057 29.6268 4.26057 29.686 4.28029C29.7451 4.30002 29.8043 4.31974 29.8832 4.33947C30.0016 4.37892 30.1199 4.43809 30.2185 4.47754C30.258 4.49727 30.3172 4.53672 30.3369 4.55644C29.9424 4.14222 29.5479 3.728 29.1139 3.35323C29.0942 3.3335 29.0745 3.31378 29.035 3.29405C29.035 3.3335 29.0153 3.37295 28.9759 3.39268C28.7786 3.51102 28.5222 3.58992 28.246 3.66882C28.108 3.70827 27.9699 3.728 27.8318 3.76745C27.6937 3.78717 27.5557 3.8069 27.4176 3.82662C27.1612 3.84635 26.8653 3.84635 26.5892 3.82662C26.53 3.82662 26.4511 3.8069 26.3919 3.8069C26.3327 3.78717 26.2736 3.78717 26.2144 3.76745C26.096 3.74772 25.9974 3.70827 25.9185 3.6491C26.1158 3.4913 26.3919 3.3335 26.7075 3.21515C26.8653 3.15598 27.0231 3.11653 27.2006 3.07708C27.2795 3.05735 27.3584 3.03763 27.457 3.0179C27.5359 2.99818 27.6148 2.99818 27.7135 2.97845C27.8515 2.95873 27.9699 2.95873 28.108 2.97845C28.246 2.99818 28.3644 3.0179 28.5025 3.03763C28.5616 3.05735 28.6208 3.07708 28.68 3.07708C28.7392 3.0968 28.7786 3.11653 28.8378 3.13625C28.9167 3.1757 28.9561 3.19543 29.0153 3.23488C28.6208 2.89955 28.2066 2.58396 27.7924 2.28808L27.7726 2.30781C27.6937 2.30781 27.6148 2.30781 27.4965 2.28808C27.4373 2.28808 27.3979 2.26836 27.3387 2.24863C27.2795 2.22891 27.2204 2.22891 27.1612 2.20918C27.0428 2.16973 26.9048 2.13028 26.7864 2.07111C26.6681 2.01194 26.53 1.95276 26.4116 1.89359C26.3327 1.85414 26.2538 1.81469 26.1947 1.75551C26.1158 1.71606 26.0369 1.65689 25.958 1.61744C25.8002 1.51881 25.6621 1.42019 25.524 1.30184C25.2479 1.08487 24.9914 0.867894 24.8139 0.65092C24.9323 0.631195 25.0703 0.61147 25.2281 0.631195C25.307 0.631195 25.3859 0.631195 25.4648 0.65092C25.5437 0.670645 25.6226 0.670645 25.7015 0.69037C26.0171 0.749545 26.3525 0.887618 26.6089 1.00597C26.747 1.08487 26.8653 1.16377 27.0034 1.26239C27.1217 1.36101 27.2401 1.45964 27.3387 1.55826C27.5557 1.77524 27.7135 1.99221 27.8121 2.18946C27.8318 2.22891 27.8318 2.26836 27.8121 2.28808C28.246 2.58396 28.6603 2.89955 29.0548 3.2546C29.0153 3.21515 28.9759 3.15598 28.9167 3.07708C28.897 3.03763 28.8575 2.97845 28.8378 2.939C28.7983 2.87983 28.7786 2.84038 28.7589 2.7812C28.6997 2.66286 28.6405 2.54451 28.6011 2.40643C28.5419 2.28808 28.5025 2.15001 28.4827 2.01193C28.463 1.93304 28.4433 1.83441 28.4236 1.75551C28.4038 1.67661 28.3841 1.57799 28.3644 1.49909C28.3249 1.32157 28.3052 1.14404 28.2855 0.966518C28.246 0.61147 28.2263 0.276148 28.2658 0C28.3644 0.0788994 28.463 0.157798 28.5616 0.276148C28.6208 0.335322 28.6603 0.394497 28.6997 0.453672C28.7392 0.512846 28.7983 0.591746 28.8378 0.65092C29.0153 0.927068 29.1534 1.26239 29.2126 1.53854C29.252 1.69634 29.2717 1.83441 29.2915 1.99221C29.3112 2.15001 29.3112 2.28808 29.3112 2.44588C29.3112 2.74176 29.252 3.0179 29.1731 3.21515C29.1534 3.2546 29.1139 3.29405 29.0942 3.27433C29.1139 3.29405 29.1337 3.31378 29.1731 3.3335C29.6071 3.70827 30.041 4.1225 30.4355 4.55644C30.3961 4.51699 30.3763 4.45782 30.3369 4.39864C30.2974 4.30002 30.2383 4.18167 30.1988 4.06332C30.1791 4.00415 30.1594 3.94497 30.1396 3.86607C30.1199 3.8069 30.1002 3.728 30.0805 3.66882C30.041 3.53075 30.0213 3.39268 30.0016 3.2546C29.9818 3.07708 29.9621 2.89955 29.9424 2.72203C29.9424 2.62341 29.9227 2.54451 29.9227 2.44588C29.9227 2.34726 29.9227 2.26836 29.9227 2.16973C29.9227 1.99221 29.9227 1.81469 29.9424 1.63716C29.9621 1.47936 29.9818 1.32157 30.0213 1.18349C30.0607 1.22294 30.1199 1.26239 30.1594 1.32156C30.1988 1.38074 30.258 1.43991 30.2974 1.49909C30.3369 1.55826 30.3763 1.63716 30.4158 1.69634C30.4355 1.73579 30.4552 1.77524 30.475 1.81469C30.4947 1.85414 30.5144 1.89359 30.5341 1.93304C30.613 2.09083 30.6722 2.24863 30.7117 2.40643C30.7511 2.56423 30.7906 2.72203 30.8103 2.87983C30.83 2.95873 30.83 3.03763 30.83 3.11653C30.83 3.19543 30.83 3.27433 30.83 3.35323C30.83 3.51102 30.8103 3.66882 30.8103 3.8069C30.7708 4.10277 30.6919 4.37892 30.5736 4.57617C30.5539 4.61562 30.5144 4.63534 30.4947 4.63534C30.6525 4.81287 30.8103 4.99039 30.9681 5.16791C31.2245 5.46379 31.4612 5.75966 31.6782 6.07526C31.6584 6.03581 31.6387 5.97663 31.619 5.93718C31.5795 5.83856 31.5401 5.72021 31.5204 5.58213C31.5006 5.52296 31.5006 5.44406 31.4809 5.38489C31.4612 5.30599 31.4612 5.24681 31.4415 5.16791C31.4217 5.02984 31.4217 4.87204 31.402 4.73397C31.402 4.55644 31.402 4.35919 31.4217 4.18167C31.4217 4.08305 31.4415 3.98442 31.4415 3.90552C31.4415 3.8069 31.4612 3.70827 31.4612 3.62937C31.4809 3.45185 31.5204 3.2546 31.5401 3.0968C31.5795 2.939 31.619 2.78121 31.6782 2.64313C31.8557 2.84038 32.0135 3.13625 32.1121 3.47158C32.1713 3.6491 32.2107 3.8069 32.2502 3.98442C32.1318 4.14222 32.1516 4.30002 32.1516 4.45782C32.1516 4.77342 32.1121 5.10874 32.0332 5.42434C31.9938 5.58214 31.9543 5.72021 31.8951 5.83856C31.836 5.97663 31.7768 6.07526 31.6979 6.17388C31.6782 6.21333 31.6387 6.21333 31.619 6.21333C31.8557 6.54865 32.0924 6.9037 32.3094 7.25875C32.4277 7.43627 32.5263 7.63352 32.625 7.81104C32.6052 7.77159 32.6052 7.73214 32.5855 7.6927C32.5658 7.57435 32.5461 7.456 32.5263 7.31792C32.5263 7.25875 32.5066 7.17985 32.5066 7.10095C32.5066 7.02205 32.5066 6.96288 32.5066 6.88398C32.5066 6.72618 32.5066 6.5881 32.5263 6.4303C32.5461 6.25278 32.5658 6.05553 32.6052 5.85828C32.625 5.75966 32.6447 5.66103 32.6644 5.56241C32.6841 5.46379 32.7039 5.36516 32.7236 5.28626C32.8222 4.91149 32.9208 4.57617 33.0589 4.30002C33.0984 4.35919 33.1378 4.41837 33.1773 4.47754C33.2167 4.53672 33.2364 4.61562 33.2759 4.69452C33.3351 4.85231 33.3745 5.02984 33.414 5.18764C33.4534 5.36516 33.4731 5.54269 33.4731 5.72021C33.4929 5.89773 33.4731 6.07526 33.4534 6.23306C33.4534 6.31195 33.4337 6.39085 33.414 6.48948C33.3942 6.56838 33.3745 6.64728 33.3548 6.7459C33.3153 6.9037 33.2562 7.0615 33.197 7.2193C33.0786 7.51517 32.9208 7.77159 32.763 7.94912C32.7433 7.96884 32.7039 7.98857 32.6841 7.98857C32.9603 8.50141 33.2167 9.01426 33.4337 9.54683C33.4534 9.60601 33.4731 9.66518 33.5126 9.72435C33.4929 9.58628 33.4929 9.40876 33.4929 9.23123C33.5126 8.95508 33.5323 8.61976 33.6112 8.32389C33.6901 7.94912 33.8282 7.55462 33.9663 7.19957C34.0452 7.02205 34.1043 6.84453 34.1832 6.68673C34.2621 6.52893 34.341 6.37113 34.4396 6.25278C34.5777 6.48948 34.6566 6.84453 34.6763 7.2193C34.6961 7.39682 34.6961 7.59407 34.6763 7.7716C34.6566 7.94912 34.6369 8.12664 34.5974 8.28444C34.558 8.44224 34.4988 8.61976 34.4396 8.77756C34.3805 8.93536 34.3016 9.09316 34.2227 9.23123C34.0649 9.52711 33.8676 9.7638 33.6901 9.9216C33.6704 9.94133 33.6309 9.96105 33.6112 9.94133C33.8479 10.5528 34.0452 11.184 34.203 11.8152C34.203 11.7955 34.203 11.756 34.203 11.7363C34.203 11.6179 34.2227 11.4799 34.2424 11.3418C34.2621 11.2037 34.3016 11.0459 34.341 10.8881C34.3805 10.7303 34.4199 10.5922 34.4791 10.4345C34.558 10.2569 34.6369 10.0597 34.7158 9.88215C34.7552 9.78353 34.7947 9.70463 34.8539 9.60601C34.8933 9.50738 34.9525 9.42848 34.9919 9.32986C35.0906 9.15233 35.1892 8.97481 35.2878 8.83674C35.3864 8.67894 35.4851 8.54086 35.6034 8.44224C35.6231 8.50141 35.6429 8.58031 35.6626 8.65921C35.6823 8.73811 35.6823 8.81701 35.702 8.91564C35.7218 9.09316 35.7218 9.27068 35.7218 9.46793C35.7218 9.56656 35.702 9.66518 35.702 9.76381C35.6823 9.86243 35.6823 9.96105 35.6626 10.04C35.6231 10.2175 35.564 10.395 35.5245 10.5528C35.4653 10.7106 35.3864 10.8881 35.3075 11.0262C35.2681 11.1051 35.2286 11.184 35.1695 11.2432C35.13 11.3221 35.0708 11.3812 35.0314 11.4601C34.8341 11.7363 34.6172 11.9533 34.3805 12.0913C34.3608 12.1111 34.3213 12.1111 34.3016 12.1111C34.4594 12.762 34.558 13.4326 34.6369 14.0835C34.6369 14.0638 34.6369 14.0441 34.6369 14.0244C34.6566 13.906 34.6961 13.768 34.7355 13.6299C34.8144 13.3537 34.9525 13.0381 35.1103 12.762C35.3075 12.4069 35.5442 12.0519 35.7809 11.7166C36.0176 11.3812 36.2741 11.0854 36.5305 10.8881C36.5897 11.1643 36.5897 11.5588 36.5108 11.9335C36.491 12.0322 36.4713 12.1308 36.4516 12.2294C36.4319 12.328 36.3924 12.4267 36.353 12.5056C36.2938 12.6831 36.2149 12.8606 36.136 12.9987C36.0571 13.1565 35.9585 13.3143 35.8401 13.4524C35.7415 13.5904 35.6231 13.7285 35.4851 13.8469C35.3667 13.9652 35.2484 14.0835 35.1103 14.1624C34.9919 14.2611 34.8539 14.3202 34.7355 14.3794C34.7158 14.3991 34.6763 14.3991 34.6566 14.3794C34.6566 14.4386 34.6763 14.4978 34.6763 14.5569L34.6961 14.7147V14.8725L34.7158 15.1881C34.7158 15.2473 34.7158 15.2868 34.7158 15.3459V15.5037C34.7158 15.6024 34.7158 15.7207 34.7158 15.8193L34.6961 16.3716C34.6961 16.3519 34.6961 16.3519 34.6961 16.3519C34.7355 16.2336 34.7947 16.0955 34.8539 15.9574C34.8933 15.8982 34.9328 15.8193 34.9525 15.7404C34.9919 15.6615 35.0314 15.6024 35.0708 15.5235C35.1103 15.4446 35.1497 15.3854 35.2089 15.3065C35.2286 15.267 35.2484 15.2473 35.2878 15.2079C35.3075 15.1684 35.3273 15.1487 35.3667 15.1092C35.4851 14.9514 35.6231 14.7739 35.7612 14.6161C35.8993 14.4583 36.0374 14.3005 36.1952 14.1427C36.2741 14.0638 36.353 13.9849 36.4121 13.9258C36.491 13.8469 36.5502 13.7877 36.6291 13.7285C36.7672 13.6102 36.925 13.4918 37.0631 13.4129C37.0828 13.551 37.0631 13.7285 37.0433 13.906C37.0039 14.0835 36.9644 14.2808 36.9053 14.4583C36.7672 14.8331 36.5897 15.2079 36.3727 15.484C36.1557 15.7799 35.8796 16.056 35.6034 16.2533C35.4653 16.3519 35.3273 16.4505 35.1892 16.5294C35.0511 16.6083 34.913 16.6675 34.775 16.707C34.7552 16.707 34.7158 16.707 34.6961 16.707V16.7661L34.6763 17.0817C34.6763 17.1804 34.6566 17.2987 34.6566 17.3973L34.6172 17.7129C34.5974 17.9299 34.5777 18.1469 34.5383 18.3638L34.4791 18.6794L34.4594 18.7386C34.4988 18.6794 34.5185 18.6203 34.558 18.5611C34.5974 18.5019 34.6369 18.4427 34.6763 18.3638C34.7552 18.2258 34.8539 18.1074 34.9722 17.9693C35.0708 17.8313 35.1892 17.7129 35.3075 17.5946C35.6034 17.2987 35.9387 17.0028 36.2938 16.7267C36.3727 16.6675 36.4713 16.5886 36.5502 16.5294C36.6291 16.4703 36.708 16.4111 36.8066 16.3519C36.9644 16.2533 37.142 16.1547 37.28 16.0955C37.28 16.2533 37.2406 16.4111 37.1814 16.5886C37.1222 16.7661 37.0433 16.9634 36.9447 17.1409C36.9053 17.2395 36.8461 17.3184 36.7869 17.417C36.7277 17.4959 36.6686 17.5946 36.6094 17.6735C36.491 17.8313 36.3727 17.9891 36.2346 18.1074C35.9585 18.3836 35.6429 18.6005 35.347 18.7781C35.0314 18.9556 34.7158 19.0739 34.4396 19.0937C34.4199 19.0937 34.4002 19.0937 34.3608 19.0937L34.2424 19.6065C34.1241 20.1194 33.9663 20.6322 33.8085 21.1253C33.8874 21.0267 33.9663 20.9084 34.0846 20.79C34.1832 20.6717 34.3016 20.5533 34.4396 20.435C34.4988 20.3758 34.5777 20.3166 34.6369 20.2574C34.6763 20.2377 34.6961 20.1983 34.7355 20.1785C34.775 20.1588 34.7947 20.1194 34.8341 20.0996C35.1695 19.8432 35.5837 19.5868 35.9585 19.3698C36.1557 19.2515 36.353 19.1528 36.5305 19.0739C36.6291 19.0345 36.708 18.995 36.8066 18.9556C36.8855 18.9161 36.9842 18.8964 37.0631 18.8767C37.0433 18.9556 37.0236 19.0345 37.0039 19.1134C36.9644 19.1923 36.9447 19.2909 36.8855 19.3698C36.8461 19.4487 36.7869 19.5473 36.7475 19.6262C36.6883 19.7051 36.6488 19.8038 36.5699 19.8827C36.3135 20.218 36.0176 20.5336 35.7218 20.7506C35.564 20.8689 35.4062 20.9675 35.2286 21.0661C35.0511 21.1648 34.8736 21.2437 34.7158 21.3028C34.3805 21.4212 34.0452 21.5001 33.7493 21.5001C33.7296 21.5001 33.7098 21.5001 33.6901 21.4804C33.4337 22.151 33.1575 22.8217 32.8222 23.4529C32.8617 23.4134 32.9011 23.374 32.9603 23.3345C33.0195 23.2753 33.0786 23.2359 33.1378 23.1767C33.2562 23.0781 33.3942 22.9795 33.552 22.8808C33.6309 22.8414 33.6901 22.7822 33.769 22.7428C33.8479 22.7033 33.9268 22.6441 34.0057 22.6047C34.4002 22.4074 34.8341 22.2102 35.2484 22.0524C35.4653 21.9735 35.6626 21.8946 35.8598 21.8354C36.0571 21.7762 36.2543 21.7368 36.4319 21.7171C36.3727 21.8749 36.2938 22.0327 36.1754 22.1905C36.0571 22.3483 35.919 22.5061 35.7809 22.6639C35.702 22.7428 35.6231 22.8217 35.5442 22.8808C35.4653 22.9597 35.3864 23.0189 35.2878 23.0781C35.1103 23.1964 34.9525 23.3148 34.775 23.4134C34.5974 23.512 34.4199 23.5909 34.2227 23.6501C34.0452 23.7093 33.8479 23.7685 33.6704 23.8079C33.2956 23.8868 32.9603 23.8868 32.6644 23.8474C32.6447 23.8474 32.625 23.8276 32.6052 23.8276C32.2502 24.4588 31.8557 25.09 31.4217 25.6818C31.4415 25.662 31.4415 25.662 31.4612 25.6423C31.5006 25.6226 31.5204 25.6029 31.5598 25.5831C31.619 25.5437 31.6979 25.5042 31.7571 25.4648C31.836 25.4253 31.9149 25.3859 31.974 25.3464C32.0529 25.307 32.1318 25.2675 32.2107 25.2281C32.3685 25.1492 32.5461 25.09 32.7039 25.0308C32.9208 24.9717 33.1378 24.8928 33.3745 24.8336C33.4929 24.7941 33.6112 24.7744 33.7098 24.7547C33.8282 24.735 33.9465 24.6955 34.0452 24.6758C34.4988 24.5772 34.9328 24.518 35.2878 24.5377C35.2089 24.6758 35.0906 24.8336 34.9525 24.9717C34.8736 25.0506 34.8144 25.1097 34.7355 25.1886C34.6566 25.2675 34.558 25.3267 34.4791 25.3859C34.3805 25.4451 34.3016 25.524 34.203 25.5831C34.1635 25.6226 34.1043 25.6423 34.0649 25.662C34.0254 25.6818 33.9663 25.7212 33.9268 25.7409C33.7296 25.8396 33.5323 25.9185 33.3548 25.9974C33.3153 26.0171 33.2562 26.0368 33.2167 26.0368C33.1575 26.0565 33.1181 26.0565 33.0589 26.0763C32.9603 26.096 32.8617 26.1157 32.763 26.1354C32.5658 26.1749 32.3685 26.1946 32.1713 26.1946C31.7768 26.2143 31.4217 26.1552 31.1456 26.0763C31.1259 26.0763 31.1061 26.0565 31.1061 26.0565C30.6525 26.6483 30.1396 27.2006 29.6071 27.7134C29.7254 27.6543 29.8438 27.6148 29.9621 27.5556C30.2777 27.4373 30.6525 27.3189 31.0075 27.2795C31.1259 27.2598 31.2442 27.24 31.3428 27.2203C31.4612 27.2006 31.5795 27.1809 31.6979 27.1809C31.8162 27.1611 31.9346 27.1611 32.0529 27.1414C32.1713 27.1414 32.2896 27.1217 32.408 27.1217C32.6447 27.102 32.8814 27.102 33.0984 27.1217C33.2167 27.1217 33.3153 27.1414 33.414 27.1414C33.5126 27.1611 33.6112 27.1611 33.6901 27.1809C33.6704 27.2203 33.6309 27.24 33.6112 27.2795C33.5718 27.3189 33.552 27.3387 33.5126 27.3781C33.4337 27.4373 33.3745 27.5162 33.2759 27.5754C33.197 27.6345 33.0984 27.6937 33.0195 27.7529C32.9997 27.7726 32.98 27.7726 32.9406 27.7923C32.9208 27.812 32.9011 27.8121 32.8617 27.8318C32.8222 27.8515 32.763 27.891 32.7039 27.9107C32.5066 28.0093 32.2896 28.1079 32.0924 28.1868C31.8754 28.2657 31.6782 28.3052 31.4809 28.3446C31.3823 28.3643 31.2837 28.3841 31.1653 28.3841C31.0667 28.3841 30.9484 28.4038 30.8497 28.4038C30.6525 28.4038 30.4355 28.4038 30.2383 28.3841C29.8438 28.3446 29.4887 28.2263 29.2323 28.0882C29.2126 28.0882 29.1928 28.0685 29.1928 28.0488C29.0942 28.1474 28.9956 28.2263 28.897 28.3249C28.4236 28.7391 27.9304 29.1139 27.4373 29.4689C27.4768 29.4492 27.5162 29.4492 27.5557 29.4295C27.6346 29.4098 27.7135 29.39 27.7924 29.3703C28.1277 29.3111 28.5222 29.252 28.897 29.252C29.0153 29.252 29.1337 29.252 29.252 29.252C29.3704 29.252 29.4887 29.252 29.6071 29.2717C29.7254 29.2717 29.8438 29.2914 29.9818 29.2914C30.1002 29.3111 30.2185 29.3111 30.3369 29.3309C30.8103 29.39 31.2639 29.4689 31.619 29.607C31.5006 29.7254 31.3231 29.824 31.1456 29.9226C30.9484 30.0212 30.7511 30.1199 30.5341 30.179C30.3172 30.2579 30.0805 30.3171 29.8635 30.3566C29.6465 30.396 29.4098 30.4157 29.2126 30.4157C28.9956 30.4157 28.7786 30.396 28.5814 30.3763C28.3644 30.3368 28.1671 30.2974 27.9699 30.2579C27.5754 30.1396 27.2401 29.9818 27.0034 29.7845C26.9837 29.7845 26.9837 29.7648 26.9639 29.7451C26.9048 29.7845 26.8456 29.824 26.7864 29.8634C26.1947 30.2382 25.5635 30.5735 24.9323 30.8694C25.0506 30.8497 25.169 30.8497 25.2873 30.8497C25.3662 30.8497 25.4648 30.8497 25.5635 30.8497C25.6621 30.8497 25.7607 30.8497 25.8396 30.8694C26.0369 30.8891 26.2144 30.9089 26.4116 30.9286C26.6483 30.968 26.885 31.0075 27.1415 31.0667C27.3781 31.1258 27.6346 31.185 27.8713 31.2639C28.108 31.3231 28.3447 31.402 28.5419 31.4809C28.6405 31.5203 28.7392 31.5598 28.8378 31.6189C28.9364 31.6584 29.0153 31.7176 29.0942 31.757C29.0548 31.7767 29.0153 31.7965 28.9759 31.8359C28.9364 31.8556 28.897 31.8754 28.8378 31.8951C28.7392 31.9345 28.6405 31.974 28.5419 32.0134C28.4433 32.0529 28.3249 32.0726 28.2263 32.1121C28.108 32.1318 27.9896 32.1515 27.8713 32.1712C27.7529 32.191 27.6346 32.2107 27.5162 32.2107C27.3979 32.2304 27.2795 32.2304 27.1612 32.2304C26.9245 32.2304 26.7075 32.2107 26.5103 32.1712C26.4511 32.1712 26.4116 32.1515 26.3525 32.1515C26.2933 32.1318 26.2538 32.1318 26.1947 32.1121C26.096 32.0923 25.9777 32.0529 25.8791 32.0134C25.6818 31.9543 25.4846 31.8754 25.2873 31.7767C24.9125 31.5992 24.6167 31.3822 24.3997 31.1456C24.3997 31.1258 24.38 31.1258 24.38 31.1061L24.1433 31.2047L23.9855 31.2639C23.9263 31.2836 23.8869 31.3033 23.8277 31.3231C23.6304 31.402 23.4135 31.4809 23.2162 31.54L22.6047 31.7373C22.5061 31.7767 22.3878 31.7965 22.2891 31.8162L22.1511 31.8556C22.1905 31.8556 22.2102 31.8556 22.23 31.8556C22.3089 31.8754 22.4075 31.8754 22.4864 31.8951C22.6639 31.9148 22.8612 31.9543 23.0387 32.0134C23.2359 32.0529 23.4135 32.1121 23.591 32.1712C23.7093 32.2107 23.8277 32.2501 23.946 32.3093C24.0644 32.3488 24.1827 32.4079 24.3011 32.4474C24.5378 32.546 24.7745 32.6644 24.9914 32.763C25.4451 32.98 25.8593 33.2167 26.1552 33.4731C25.9974 33.5323 25.7804 33.5914 25.5635 33.6309C25.5043 33.6309 25.4451 33.6506 25.4057 33.6506C25.3465 33.6506 25.2873 33.6703 25.2281 33.6703C25.1098 33.6703 24.9914 33.6703 24.8731 33.6703C24.7547 33.6703 24.6364 33.6703 24.518 33.6506H24.4194L24.3208 33.6309C24.2616 33.6309 24.2024 33.6112 24.1433 33.6112C23.9066 33.5717 23.6896 33.5125 23.4924 33.4534C23.2754 33.3745 23.0781 33.2758 22.8809 33.1772C22.7823 33.118 22.6836 33.0786 22.6047 33.0194C22.5061 32.9602 22.4272 32.9011 22.3483 32.8419C22.013 32.5855 21.7368 32.3093 21.579 32.0529C21.579 32.0332 21.5593 32.0332 21.5593 32.0134C20.8492 32.1712 20.1194 32.2896 19.3896 32.3685L19.3699 32.0924C20.08 32.0332 20.8098 31.9148 21.5001 31.757C21.7368 31.9345 21.7368 31.9345 21.7368 31.9148Z" fill="url(#paint0_linear_20931_1856)"/>
<path d="M2.91931 19.2317C2.89958 19.2317 2.87986 19.2514 2.84041 19.2317C2.56426 19.1923 2.24866 19.0739 1.93306 18.9161C1.61747 18.7386 1.30187 18.5019 1.04544 18.2455C0.927095 18.1271 0.789021 17.9693 0.670671 17.8115C0.611496 17.7326 0.552322 17.634 0.493149 17.5551C0.433973 17.4762 0.394524 17.3776 0.33535 17.2789C0.236725 17.1014 0.157825 16.9042 0.0986519 16.7266C0.0394764 16.5491 0.0197525 16.3716 2.67029e-05 16.2335C0.157825 16.2927 0.315624 16.3913 0.473423 16.4899C0.552322 16.5491 0.631222 16.6083 0.729847 16.6675C0.808746 16.7266 0.907372 16.7858 0.986271 16.8647C1.34132 17.1211 1.65692 17.4367 1.97251 17.7326C2.09086 17.851 2.20921 17.9693 2.30784 18.1074C2.40646 18.2455 2.52481 18.3638 2.60371 18.5019C2.64316 18.5611 2.68261 18.64 2.72206 18.6991C2.76151 18.7583 2.78123 18.8175 2.82068 18.8767L2.80096 18.8175L2.74178 18.5019C2.70233 18.2849 2.68261 18.0679 2.66288 17.851L2.62343 17.5354C2.62343 17.4367 2.60371 17.3184 2.60371 17.2198L2.58399 16.9042V16.845C2.56426 16.845 2.52481 16.845 2.50508 16.845C2.36701 16.8055 2.22894 16.7464 2.09086 16.6675C1.95279 16.5886 1.81471 16.5097 1.67664 16.3913C1.40049 16.1744 1.12435 15.9179 0.907372 15.6221C0.690399 15.3459 0.512873 14.9711 0.374798 14.5964C0.315624 14.3991 0.256451 14.2216 0.236725 14.0441C0.217001 13.8665 0.197277 13.689 0.217001 13.5509C0.355076 13.6298 0.493149 13.7482 0.650948 13.8665C0.729847 13.9257 0.789021 14.0046 0.86792 14.0638C0.946819 14.1427 1.02572 14.2019 1.08489 14.2808C1.24269 14.4386 1.38077 14.5964 1.51884 14.7542C1.65692 14.912 1.79499 15.0895 1.91334 15.2473C1.93306 15.2867 1.95279 15.3065 1.99224 15.3459C2.01196 15.3854 2.03169 15.4051 2.07114 15.4445C2.11059 15.5037 2.16976 15.5826 2.20921 15.6615C2.24866 15.7404 2.28811 15.7996 2.32756 15.8785C2.36701 15.9574 2.40646 16.0166 2.42619 16.0955C2.48536 16.2335 2.54454 16.3716 2.58399 16.4899C2.58399 16.5097 2.58399 16.5097 2.58399 16.5097L2.56426 15.9574C2.56426 15.8588 2.56426 15.7404 2.56426 15.6418V15.484C2.56426 15.4248 2.56426 15.3854 2.56426 15.3262L2.58399 15.0106V14.8528L2.60371 14.695C2.60371 14.6358 2.62343 14.5766 2.62343 14.5175C2.60371 14.5175 2.56426 14.5175 2.54453 14.5175C2.42618 14.4583 2.30784 14.3794 2.16976 14.3005C2.05141 14.2019 1.91334 14.1032 1.79499 13.9849C1.67664 13.8665 1.55829 13.7285 1.43994 13.5904C1.34132 13.4523 1.24269 13.2945 1.14407 13.1367C1.06517 12.9789 0.986269 12.8211 0.927095 12.6436C0.887646 12.545 0.86792 12.4661 0.82847 12.3675C0.808746 12.2688 0.789021 12.1702 0.769295 12.0716C0.690395 11.6771 0.690397 11.3023 0.749573 11.0262C1.00599 11.2234 1.26242 11.5193 1.49912 11.8546C1.75554 12.1899 1.97251 12.5647 2.16976 12.9C2.32756 13.1762 2.44591 13.4918 2.54453 13.7679C2.58398 13.906 2.62343 14.0441 2.64316 14.1624C2.64316 14.1821 2.64316 14.2019 2.64316 14.2216C2.72206 13.5509 2.82068 12.9 2.97848 12.2491C2.95876 12.2491 2.91931 12.2491 2.89958 12.2294C2.68261 12.0913 2.46563 11.8743 2.24866 11.5982C2.18949 11.539 2.15004 11.4601 2.11059 11.3812C2.07114 11.3023 2.01196 11.2431 1.97251 11.1642C1.89361 11.0064 1.81471 10.8486 1.75554 10.6908C1.69636 10.533 1.65692 10.3555 1.61747 10.178C1.59774 10.0794 1.57802 10.0005 1.57802 9.90185C1.55829 9.80322 1.55829 9.7046 1.55829 9.60597C1.53856 9.40872 1.55829 9.2312 1.57802 9.05368C1.57802 8.97478 1.59774 8.87615 1.61747 8.79725C1.63719 8.71835 1.65692 8.63946 1.67664 8.58028C1.77526 8.69863 1.89361 8.8367 1.99224 8.97478C2.09086 9.13258 2.18949 9.29038 2.28811 9.4679C2.32756 9.5468 2.38674 9.64542 2.42619 9.74405C2.46564 9.84267 2.52481 9.92157 2.56426 10.0202C2.64316 10.1977 2.72206 10.395 2.80096 10.5725C2.86013 10.7106 2.89958 10.8684 2.93903 11.0262C2.97848 11.184 3.01793 11.322 3.03765 11.4798C3.05738 11.6179 3.07711 11.756 3.07711 11.8743C3.07711 11.8941 3.07711 11.9335 3.07711 11.9532C3.23491 11.322 3.43215 10.6908 3.66885 10.0794C3.64913 10.0794 3.60968 10.0794 3.58995 10.0596C3.3927 9.90185 3.21518 9.66515 3.05738 9.36928C2.97848 9.2312 2.89958 9.0734 2.84041 8.9156C2.78123 8.7578 2.72206 8.58028 2.68261 8.42248C2.64316 8.26468 2.62343 8.08716 2.60371 7.90964C2.58398 7.73211 2.58398 7.53486 2.60371 7.35734C2.62343 6.98257 2.70233 6.62752 2.84041 6.39082C2.93903 6.50917 3.01793 6.66697 3.09683 6.82477C3.17573 6.98257 3.25463 7.16009 3.3138 7.33761C3.45188 7.71239 3.57023 8.10688 3.66885 8.46193C3.74775 8.7578 3.76748 9.0734 3.7872 9.36928C3.7872 9.5468 3.7872 9.72432 3.76748 9.8624C3.7872 9.80322 3.80692 9.74405 3.84637 9.68487C4.06335 9.1523 4.31977 8.61973 4.59592 8.12661C4.57619 8.12661 4.53674 8.10688 4.51702 8.08716C4.35922 7.90964 4.20142 7.65321 4.08307 7.35734C4.0239 7.21926 3.98445 7.06147 3.92527 6.88394C3.90555 6.80504 3.88583 6.72614 3.8661 6.62752C3.84638 6.54862 3.84637 6.46972 3.82665 6.3711C3.80692 6.2133 3.80693 6.03577 3.80693 5.85825C3.82665 5.68073 3.84638 5.5032 3.8661 5.32568C3.90555 5.14816 3.945 4.97063 4.00417 4.83256C4.0239 4.75366 4.06335 4.67476 4.1028 4.61558C4.14225 4.55641 4.1817 4.49724 4.22115 4.43806C4.35922 4.69448 4.47757 5.04953 4.55647 5.4243C4.5762 5.52293 4.59592 5.62155 4.61564 5.70045C4.63537 5.79908 4.65509 5.8977 4.67482 5.99633C4.71427 6.19357 4.73399 6.3711 4.75372 6.56834C4.77344 6.70642 4.77344 6.86422 4.77344 7.02202C4.77344 7.10092 4.77344 7.17982 4.77344 7.23899C4.77344 7.31789 4.77344 7.37706 4.75372 7.45596C4.73399 7.59404 4.71427 7.71239 4.69454 7.83074C4.69454 7.87019 4.67482 7.90964 4.6551 7.94908C4.75372 7.77156 4.87207 7.57431 4.97069 7.39679C5.18766 7.04174 5.42436 6.68669 5.66106 6.35137C5.64134 6.35137 5.60189 6.33165 5.58216 6.31192C5.52299 6.2133 5.44409 6.09495 5.38491 5.9766C5.32574 5.83852 5.28629 5.70045 5.24684 5.56238C5.16794 5.2665 5.12849 4.93118 5.12849 4.59586C5.12849 4.43806 5.14822 4.28026 5.18767 4.10274C5.22712 3.92521 5.26656 3.76742 5.32574 3.58989C5.44409 3.25457 5.60189 2.9587 5.75969 2.76145C5.81886 2.89952 5.85831 3.05732 5.89776 3.21512C5.93721 3.37292 5.95693 3.57017 5.97666 3.74769C5.99638 3.84632 5.99638 3.92521 5.99638 4.02384C5.99638 4.12246 6.01611 4.22109 6.01611 4.29999C6.03583 4.49723 6.03584 4.67476 6.03584 4.85228C6.03584 4.99036 6.01611 5.14815 5.99638 5.28623C5.99638 5.36513 5.97666 5.4243 5.95693 5.5032C5.93721 5.5821 5.93721 5.64128 5.91749 5.70045C5.89776 5.83853 5.85831 5.95687 5.81886 6.0555C5.79914 6.11467 5.77941 6.15412 5.75969 6.19357C5.99638 5.87798 6.23308 5.5821 6.46978 5.28623C6.62758 5.10871 6.78538 4.93118 6.94318 4.75366C6.90373 4.75366 6.884 4.73393 6.86428 4.69448C6.74593 4.49723 6.66703 4.22109 6.62758 3.92521C6.60786 3.76742 6.60785 3.62934 6.60785 3.47154C6.60785 3.39264 6.60785 3.31374 6.60785 3.23484C6.60785 3.15595 6.62758 3.07704 6.62758 2.99815C6.64731 2.86007 6.68676 2.68255 6.72621 2.52475C6.78538 2.36695 6.84455 2.20915 6.90373 2.05135C6.92345 2.0119 6.94318 1.97245 6.9629 1.933C6.98263 1.89355 7.00235 1.8541 7.02208 1.81465C7.06153 1.73575 7.10098 1.67658 7.14043 1.61741C7.17988 1.55823 7.23905 1.49906 7.2785 1.43988C7.31795 1.38071 7.37713 1.34126 7.41658 1.30181C7.45603 1.43988 7.47575 1.59768 7.49547 1.75548C7.5152 1.91328 7.5152 2.0908 7.5152 2.28805C7.5152 2.38668 7.5152 2.46557 7.5152 2.5642C7.5152 2.66282 7.5152 2.74172 7.49547 2.84035C7.47575 3.01787 7.45602 3.21512 7.4363 3.37292C7.41657 3.51099 7.39685 3.64907 7.3574 3.78714C7.33768 3.84631 7.31795 3.92521 7.29823 3.98439C7.2785 4.04356 7.25877 4.12246 7.23905 4.18164C7.1996 4.29999 7.14043 4.41834 7.10098 4.51696C7.06153 4.57614 7.0418 4.63531 7.00235 4.67476C7.39685 4.24081 7.8308 3.84632 8.26474 3.45182C8.28447 3.43209 8.30419 3.41237 8.34364 3.39264C8.30419 3.39264 8.26474 3.37292 8.26474 3.33347C8.18584 3.1165 8.12667 2.86007 8.12667 2.5642C8.12667 2.4064 8.12667 2.26833 8.14639 2.11053C8.16612 1.95273 8.18584 1.79493 8.22529 1.65686C8.30419 1.38071 8.44227 1.06511 8.60007 0.769237C8.63952 0.690337 8.69869 0.631163 8.73814 0.571988C8.77759 0.512814 8.83676 0.45364 8.87621 0.394465C8.97484 0.276116 9.07346 0.177491 9.17209 0.118317C9.21154 0.394465 9.21154 0.729788 9.15236 1.08483C9.13264 1.26236 9.11291 1.43988 9.07346 1.61741C9.05374 1.6963 9.03401 1.79493 9.01429 1.87383C8.99456 1.95273 8.97484 2.05135 8.95511 2.13025C8.91566 2.26833 8.87621 2.38667 8.83676 2.52475C8.79731 2.66282 8.73814 2.78117 8.67897 2.89952C8.65924 2.9587 8.61979 3.01787 8.60007 3.05732C8.58034 3.1165 8.54089 3.15594 8.52117 3.19539C8.48172 3.27429 8.42254 3.31374 8.38309 3.37292C8.77759 3.0376 9.19181 2.722 9.62576 2.4064C9.60603 2.38667 9.60603 2.34723 9.62576 2.30778C9.72438 2.11053 9.88218 1.89355 10.0992 1.67658C10.1978 1.57796 10.3161 1.47933 10.4345 1.38071C10.5528 1.28208 10.6909 1.20318 10.829 1.12428C11.0854 0.98621 11.401 0.867861 11.7363 0.808687C11.8152 0.788962 11.8941 0.769237 11.973 0.769237C12.0519 0.749512 12.1308 0.749512 12.2097 0.749512C12.3675 0.749512 12.5056 0.749512 12.6239 0.769237C12.4464 0.98621 12.2097 1.20318 11.9138 1.42016C11.7758 1.51878 11.618 1.63713 11.4799 1.73576C11.401 1.7752 11.3221 1.83438 11.2432 1.87383C11.1643 1.91328 11.0854 1.97245 11.0262 2.0119C10.9079 2.07108 10.7895 2.13025 10.6515 2.18943C10.5331 2.2486 10.395 2.28805 10.2767 2.3275C10.2175 2.34722 10.1583 2.36695 10.0992 2.36695C10.04 2.38668 9.9808 2.38667 9.94136 2.4064C9.84273 2.42612 9.74411 2.42612 9.66521 2.42612C9.64548 2.42612 9.64548 2.42612 9.64548 2.4064C9.23126 2.70227 8.81704 3.01787 8.42254 3.35319C8.48172 3.31374 8.52117 3.29402 8.60007 3.25457C8.63952 3.23484 8.69869 3.21512 8.75786 3.19539C8.81704 3.17567 8.87621 3.15595 8.93539 3.15595C9.05374 3.13622 9.19181 3.09677 9.32989 3.09677C9.46796 3.09677 9.60603 3.09677 9.72438 3.09677C9.80328 3.09677 9.88218 3.1165 9.98081 3.13622C10.0597 3.15595 10.1386 3.17567 10.2372 3.19539C10.395 3.23484 10.5726 3.27429 10.7303 3.33347C11.0459 3.45182 11.3221 3.60962 11.5193 3.76742C11.4404 3.80686 11.3418 3.84631 11.2235 3.88576C11.1643 3.90549 11.1051 3.90549 11.0459 3.92521C10.9868 3.94494 10.9079 3.94494 10.8487 3.94494C10.5726 3.96466 10.2767 3.98439 10.0203 3.94494C9.88218 3.92521 9.74411 3.90549 9.60603 3.88576C9.46796 3.86604 9.31016 3.82659 9.19181 3.78714C8.91566 3.70824 8.65924 3.62934 8.46199 3.51099C8.42254 3.49127 8.40282 3.45182 8.40282 3.41237C8.38309 3.43209 8.36337 3.45182 8.32392 3.47154C7.88997 3.84631 7.49547 4.26054 7.10098 4.67476C7.14043 4.65503 7.17988 4.61558 7.21933 4.59586C7.31795 4.53668 7.41657 4.49724 7.55465 4.45779C7.61382 4.43806 7.673 4.41833 7.7519 4.39861C7.81107 4.37889 7.88997 4.35916 7.94915 4.35916C8.08722 4.33944 8.22529 4.31971 8.36337 4.31971C8.54089 4.31971 8.69869 4.31971 8.87621 4.33944C8.95511 4.33944 9.05374 4.35916 9.13264 4.37889C9.21154 4.39861 9.31016 4.41834 9.38906 4.43806C9.54686 4.47751 9.70466 4.53668 9.86246 4.59586C10.0005 4.65503 10.1386 4.71421 10.257 4.79311C10.2175 4.81283 10.1781 4.85228 10.1189 4.87201C10.0794 4.89173 10.0203 4.91146 9.96108 4.95091C9.90191 4.97063 9.84273 4.99036 9.78356 5.01008C9.74411 5.01008 9.72438 5.02981 9.68493 5.02981C9.64548 5.02981 9.62576 5.04953 9.58631 5.04953C9.44824 5.08898 9.31016 5.10871 9.15236 5.12843C9.01429 5.14816 8.87621 5.16788 8.73814 5.16788C8.65924 5.16788 8.60007 5.16788 8.52117 5.16788C8.44227 5.16788 8.38309 5.16788 8.30419 5.16788C8.16612 5.16788 8.00832 5.14816 7.87024 5.12843C7.57437 5.08898 7.31795 5.02981 7.10098 4.93118C7.06153 4.91146 7.0418 4.89173 7.0418 4.85228C6.884 5.02981 6.7262 5.20733 6.56841 5.38485C6.33171 5.68073 6.09501 5.9766 5.87804 6.2922C5.91749 6.27247 5.93721 6.23302 5.97666 6.2133C6.07528 6.15412 6.17391 6.07522 6.29226 6.01605C6.35143 5.9766 6.41061 5.95687 6.46978 5.93715C6.52896 5.91742 6.60786 5.87797 6.66703 5.85825C6.8051 5.8188 6.94318 5.77935 7.08125 5.75963C7.25877 5.7399 7.4363 5.72018 7.61382 5.72018C7.69272 5.72018 7.79135 5.72018 7.88997 5.72018C7.9886 5.72018 8.0675 5.7399 8.14639 5.7399C8.32392 5.75963 8.48172 5.79908 8.63952 5.83853C8.79731 5.87797 8.93539 5.93715 9.05374 5.99633C8.91566 6.1344 8.67897 6.25275 8.40282 6.33165C8.26474 6.3711 8.12667 6.43027 7.96887 6.45C7.8308 6.48945 7.673 6.50917 7.53492 6.5289C7.23905 6.56835 6.94318 6.58807 6.62758 6.58807C6.46978 6.58807 6.33171 6.56834 6.19363 6.56834C6.05556 6.54862 5.93721 6.5289 5.81886 6.48945C5.77941 6.46972 5.75969 6.45 5.73996 6.43027C5.50326 6.76559 5.26657 7.12064 5.04959 7.47569C4.95097 7.65321 4.83262 7.85046 4.73399 8.02798C4.75372 8.00826 4.79317 7.96881 4.81289 7.94908C4.89179 7.87019 4.99042 7.79129 5.10876 7.71239C5.16794 7.67294 5.22712 7.63349 5.28629 7.59404C5.34546 7.55459 5.40464 7.53486 5.48354 7.49541C5.62161 7.43624 5.73996 7.37706 5.87804 7.33761C6.05556 7.29816 6.23308 7.25871 6.41061 7.23899C6.50923 7.21926 6.58813 7.21927 6.68675 7.21927C6.78538 7.21927 6.86428 7.21927 6.9629 7.21927C7.31795 7.21927 7.65327 7.27844 7.92942 7.35734C7.88997 7.39679 7.85052 7.43624 7.81107 7.47569C7.77162 7.51514 7.71245 7.55459 7.673 7.59404C7.57437 7.67294 7.4363 7.73211 7.31795 7.79129C7.17988 7.85046 7.0418 7.90964 6.90373 7.96881C6.76565 8.02799 6.62758 8.06743 6.4895 8.10688C6.41061 8.12661 6.35143 8.14633 6.27253 8.16606C6.19363 8.18578 6.11473 8.20551 6.05556 8.20551C5.89776 8.22523 5.73996 8.26468 5.60189 8.26468C5.30601 8.30413 5.01014 8.30413 4.75372 8.26468C4.71427 8.26468 4.69454 8.24496 4.67482 8.22523C4.39867 8.73808 4.16197 9.25093 3.945 9.7835C3.92527 9.84267 3.90555 9.90185 3.88582 9.96102C3.96472 9.84267 4.08307 9.72432 4.20142 9.60597C4.39867 9.42845 4.67482 9.25093 4.93124 9.13258C5.26656 8.9945 5.64134 8.89588 6.01611 8.85643C6.19363 8.8367 6.37116 8.81698 6.54868 8.8367C6.7262 8.8367 6.884 8.85643 7.02208 8.89588C6.90373 9.0734 6.68675 9.25093 6.45006 9.40872C6.33171 9.48762 6.19363 9.56652 6.05556 9.64542C5.91748 9.72432 5.77941 9.7835 5.64134 9.84267C5.50326 9.90185 5.34546 9.96102 5.20739 10.0005C5.04959 10.0399 4.89179 10.0991 4.75372 10.1385C4.45785 10.2174 4.16197 10.2569 3.90555 10.2569C3.8661 10.2569 3.84637 10.2372 3.82665 10.2174C3.60968 10.8289 3.41243 11.4404 3.25463 12.0716C3.27435 12.0519 3.27435 12.0321 3.29408 12.0124C3.35325 11.9138 3.43215 11.7954 3.53078 11.6968C3.6294 11.5982 3.72803 11.4798 3.84637 11.3812C3.96472 11.2826 4.08307 11.2037 4.22115 11.1248C4.37894 11.0262 4.55647 10.9473 4.73399 10.8684C4.83262 10.8289 4.91152 10.7895 5.01014 10.7697C5.10876 10.7303 5.18767 10.7106 5.28629 10.6908C5.46381 10.6514 5.64134 10.6119 5.81886 10.5922C5.99638 10.5725 6.15418 10.5725 6.31198 10.5922C6.29226 10.6317 6.25281 10.6908 6.23308 10.7303C6.19363 10.7697 6.15418 10.8289 6.11473 10.8881C6.03583 10.9867 5.91748 11.0853 5.79913 11.184C5.73996 11.2431 5.68079 11.2826 5.62161 11.3418C5.56244 11.3812 5.50326 11.4404 5.42436 11.4798C5.30601 11.5785 5.16794 11.6574 5.02987 11.7363C4.89179 11.8152 4.75372 11.8941 4.59592 11.9532C4.51702 11.9927 4.43812 12.0124 4.37895 12.0519C4.30005 12.0913 4.22115 12.111 4.16197 12.1505C3.8661 12.2688 3.57023 12.3477 3.3138 12.3872C3.29408 12.3872 3.25463 12.3872 3.2349 12.3675C3.09683 13.0184 2.97848 13.6693 2.91931 14.3202C2.91931 14.3005 2.9193 14.3005 2.93903 14.2808C2.97848 14.1624 3.05738 14.0441 3.13628 13.9257C3.29408 13.689 3.51105 13.4326 3.74775 13.2551C4.04362 13.0184 4.39867 12.8211 4.75372 12.6633C5.10877 12.5253 5.46381 12.4266 5.77941 12.4069C5.72024 12.6042 5.54271 12.8408 5.34547 13.0775C5.28629 13.1367 5.24684 13.1959 5.18767 13.2551C5.12849 13.3142 5.06931 13.3734 5.01014 13.4326C4.89179 13.5509 4.77344 13.6496 4.6551 13.7482C4.53675 13.8468 4.39867 13.9454 4.2606 14.0243C4.12252 14.123 3.98445 14.2019 3.82665 14.2808C3.68857 14.3597 3.53078 14.4386 3.3927 14.4977C3.25463 14.5569 3.11655 14.6161 2.99821 14.6358C2.97848 14.6358 2.93903 14.6358 2.91931 14.6358C2.91931 14.695 2.89958 14.7542 2.89958 14.8133L2.87986 14.9711V15.1289L2.86013 15.4445C2.86013 15.5037 2.86013 15.5432 2.86013 15.6023V15.7601C2.86013 15.8588 2.86013 15.9771 2.86013 16.0757L2.87986 16.628V16.6083C2.91931 16.49 2.95876 16.3519 3.01793 16.2138C3.05738 16.1546 3.07711 16.0757 3.11656 16.0166C3.156 15.9574 3.19545 15.8785 3.2349 15.8193C3.27435 15.7601 3.33353 15.6812 3.37298 15.6221C3.3927 15.5826 3.41243 15.5629 3.45188 15.5234C3.4716 15.5037 3.51105 15.4643 3.53078 15.4445C3.66885 15.3065 3.80693 15.1684 3.96473 15.05C4.12252 14.9317 4.30005 14.8133 4.45785 14.7147C4.53675 14.6555 4.63537 14.6161 4.71427 14.5766C4.79317 14.5372 4.89179 14.4977 4.97069 14.4583C5.14822 14.3991 5.30601 14.3399 5.46381 14.3202C5.44409 14.4188 5.40464 14.5372 5.34547 14.6753C5.28629 14.7936 5.20739 14.9317 5.12849 15.0698C4.95097 15.3459 4.73399 15.6221 4.51702 15.839C4.28032 16.0757 4.0239 16.3124 3.74775 16.5097C3.60968 16.6083 3.4716 16.7069 3.33353 16.7858C3.19545 16.8647 3.0771 16.9436 2.93903 16.9831C2.9193 17.0028 2.87986 17.0028 2.86013 16.9831V17.0422L2.87986 17.3578C2.87986 17.4565 2.89958 17.5748 2.89958 17.6734L2.93903 17.989C2.95875 18.206 2.97848 18.423 3.01793 18.6202L3.07711 18.9358V18.995C3.07711 18.9358 3.09683 18.8767 3.11656 18.7978C3.13628 18.7189 3.15601 18.6597 3.17573 18.5808C3.21518 18.4427 3.27435 18.2849 3.35325 18.1468C3.43215 18.0088 3.51105 17.851 3.60968 17.7326C3.82665 17.417 4.14225 17.1014 4.45785 16.845C4.53675 16.7858 4.61564 16.7266 4.69454 16.6675C4.77344 16.6083 4.85234 16.5688 4.93124 16.5097C5.08904 16.4111 5.24684 16.3519 5.40464 16.2927C5.40464 16.411 5.36519 16.5294 5.32574 16.6675C5.28629 16.8055 5.22712 16.9436 5.14822 17.1014C5.10877 17.1803 5.06932 17.2592 5.02987 17.3184C4.99042 17.3973 4.95097 17.4762 4.91152 17.5354C4.83262 17.6734 4.73399 17.8312 4.63537 17.9496C4.43812 18.2257 4.20142 18.5019 3.96473 18.7386C3.72803 18.9753 3.4716 19.1923 3.2349 19.3303C3.21518 19.3501 3.19545 19.3501 3.156 19.3501L3.27435 19.8629C3.3927 20.3757 3.5505 20.8689 3.7083 21.362C3.7083 21.2436 3.7083 21.1056 3.72802 20.9478C3.74775 20.79 3.7872 20.6322 3.82665 20.4744C3.84637 20.3955 3.88583 20.3166 3.90555 20.2377C3.92527 20.1982 3.945 20.1588 3.945 20.1193C3.96472 20.0799 3.98445 20.0404 4.00417 20.001C4.20142 19.6459 4.43812 19.2909 4.73399 18.995C4.87207 18.8372 5.02987 18.7189 5.16794 18.6005C5.24684 18.5413 5.30602 18.4822 5.38491 18.4427C5.46381 18.4033 5.54271 18.3441 5.60189 18.3046C5.60189 18.3638 5.60189 18.423 5.60189 18.4822C5.60189 18.5413 5.60189 18.6202 5.58216 18.6794C5.56244 18.7583 5.56244 18.8175 5.54271 18.8964C5.52299 18.9753 5.50326 19.0542 5.48354 19.1331C5.38491 19.4487 5.24684 19.784 5.10876 20.0799C5.02987 20.2377 4.93124 20.3757 4.85234 20.5335C4.75372 20.6913 4.6551 20.8294 4.55647 20.9675C4.35922 21.2436 4.12252 21.5198 3.90555 21.6973C3.88583 21.717 3.8661 21.717 3.84637 21.717C4.1028 22.3877 4.37894 23.0189 4.71427 23.6501C4.71427 23.5909 4.69454 23.5514 4.69454 23.4923C4.69454 23.4134 4.69454 23.3345 4.67482 23.2556C4.67482 23.0978 4.67482 22.9203 4.69454 22.7625C4.69454 22.6836 4.71427 22.5849 4.73399 22.506C4.75372 22.4271 4.77344 22.3482 4.79317 22.2693C4.91152 21.8748 5.12849 21.4803 5.36519 21.1253C5.48354 20.9478 5.62161 20.79 5.73996 20.6519C5.87804 20.5138 6.01611 20.3955 6.13446 20.2968C6.17391 20.4152 6.17391 20.5335 6.17391 20.6913C6.17391 20.8294 6.15418 21.0069 6.13446 21.1647C6.11473 21.2436 6.09501 21.3423 6.09501 21.4212C6.07528 21.5001 6.05556 21.5987 6.03584 21.6776C5.99639 21.8551 5.93721 22.0129 5.89776 22.1707C5.83858 22.3285 5.77941 22.506 5.70051 22.6638C5.62161 22.8414 5.54271 22.9992 5.46381 23.157C5.30601 23.4725 5.12849 23.7684 4.93124 23.9854C4.91152 24.0051 4.91152 24.0051 4.89179 24.0248C5.24684 24.656 5.64134 25.2478 6.05556 25.8198V25.8001C6.03583 25.7606 6.03584 25.7212 6.03584 25.7015C6.01611 25.6226 5.99638 25.5437 5.99638 25.4648C5.97666 25.3859 5.97666 25.307 5.95693 25.2281C5.95693 25.1492 5.93721 25.0505 5.93721 24.9716C5.93721 24.7941 5.95693 24.6166 5.97666 24.4588C6.01611 24.2615 6.05556 24.0446 6.13446 23.8276C6.17391 23.729 6.21336 23.6106 6.25281 23.512C6.29226 23.4134 6.33171 23.3148 6.39088 23.2161C6.58813 22.8216 6.8051 22.4863 7.0418 22.2496C7.08125 22.3482 7.1207 22.4863 7.14043 22.6441C7.16015 22.723 7.16015 22.8019 7.16015 22.8808C7.16015 22.9597 7.17987 23.0386 7.17987 23.1372C7.17987 23.2161 7.17987 23.3147 7.17987 23.3936C7.17987 23.4923 7.17988 23.5712 7.16015 23.6698C7.14043 23.8473 7.1207 24.0248 7.10098 24.1826C7.08125 24.2615 7.06153 24.3602 7.0418 24.4391C7.02208 24.5377 7.00235 24.6166 6.98263 24.7152C6.94318 24.8927 6.884 25.0703 6.82483 25.2478C6.70648 25.6028 6.58813 25.9184 6.43033 26.1749C6.41061 26.1946 6.41061 26.1946 6.39088 26.2143C6.84455 26.7863 7.33767 27.3189 7.87024 27.8317C7.81107 27.7331 7.77162 27.6148 7.73217 27.4964C7.61382 27.1808 7.55465 26.8061 7.55465 26.4707C7.55465 26.3721 7.55465 26.2538 7.57437 26.1354C7.57437 26.0171 7.5941 25.9184 7.61382 25.8001C7.63355 25.6817 7.65327 25.5831 7.673 25.4648C7.69272 25.3661 7.73217 25.2478 7.7519 25.1492C7.81107 24.9322 7.88997 24.7349 7.96887 24.5574C8.00832 24.4588 8.04777 24.3799 8.10695 24.301C8.1464 24.2221 8.20557 24.1432 8.26474 24.0643C8.28447 24.084 8.30419 24.1235 8.30419 24.1432C8.32392 24.1629 8.34364 24.2024 8.34364 24.2221C8.36337 24.2813 8.40282 24.3602 8.42254 24.4193C8.44227 24.4982 8.46199 24.5771 8.48172 24.656C8.48172 24.6758 8.48172 24.6955 8.50144 24.7152C8.50144 24.7349 8.50144 24.7547 8.52117 24.7744C8.52117 24.8138 8.54089 24.8533 8.54089 24.8927C8.58034 25.0703 8.60007 25.2478 8.60007 25.4253C8.61979 25.6028 8.61979 25.7804 8.61979 25.9579C8.61979 26.0565 8.61979 26.1354 8.60007 26.234C8.60007 26.3327 8.60007 26.4116 8.58034 26.5102C8.56062 26.7074 8.54089 26.8849 8.52117 27.0822C8.46199 27.457 8.38309 27.7923 8.26474 28.0684C8.26474 28.0882 8.24502 28.0882 8.24502 28.1079C8.34364 28.2065 8.44227 28.2854 8.54089 28.384C8.99456 28.7785 9.48769 29.1533 9.98081 29.5084C9.96108 29.4886 9.94136 29.4492 9.92163 29.4295C9.88218 29.3703 9.84273 29.2914 9.80328 29.2125C9.64548 28.9166 9.50741 28.5616 9.44823 28.2065C9.42851 28.1079 9.40878 27.9895 9.40878 27.8712C9.40878 27.7528 9.38906 27.6345 9.38906 27.5359C9.38906 27.4175 9.38906 27.2992 9.38906 27.2005C9.38906 27.0822 9.40879 26.9836 9.42851 26.8652C9.48769 26.4313 9.60603 26.0171 9.76383 25.7015C9.84273 25.8001 9.92163 25.9184 9.98081 26.0565C10.0597 26.1946 10.1189 26.3524 10.1781 26.5299C10.2372 26.7074 10.2964 26.885 10.3359 27.0625C10.3753 27.24 10.4148 27.4175 10.4542 27.595C10.4739 27.7726 10.4937 27.9698 10.5134 28.1671C10.5331 28.3643 10.5331 28.5616 10.5331 28.7391C10.5331 29.1139 10.5134 29.4886 10.4345 29.7845C10.4345 29.8042 10.4148 29.8042 10.4148 29.824C10.4739 29.8634 10.5331 29.9029 10.5923 29.9423C11.184 30.2973 11.7758 30.6327 12.407 30.9088C12.3281 30.8299 12.2492 30.751 12.19 30.6524C12.1308 30.5932 12.0914 30.5143 12.0322 30.4354C11.973 30.3565 11.9336 30.2776 11.8941 30.1987C11.8152 30.0409 11.7363 29.8634 11.6771 29.7056C11.5982 29.4886 11.5391 29.2717 11.4996 29.035C11.4602 28.7983 11.4207 28.5813 11.4207 28.3446C11.4207 28.1079 11.4207 27.8909 11.4404 27.6937C11.4602 27.595 11.4602 27.4964 11.4799 27.3978C11.4996 27.2992 11.5193 27.2005 11.5588 27.1216C11.5785 27.1414 11.5982 27.1611 11.6377 27.1808C11.6574 27.2005 11.6771 27.2203 11.7166 27.2597C11.756 27.3189 11.8152 27.3781 11.8547 27.4372C11.8941 27.4964 11.9533 27.5753 11.9927 27.6542C12.0322 27.7331 12.0914 27.812 12.1308 27.8909C12.1703 27.9698 12.2097 28.0487 12.2492 28.1473C12.2886 28.2262 12.3281 28.3249 12.3675 28.4038C12.4464 28.5813 12.5056 28.7588 12.5648 28.9166C12.5845 29.0152 12.6239 29.0941 12.6437 29.1928C12.6634 29.2914 12.7028 29.3703 12.7226 29.4689C12.762 29.6662 12.8212 29.8634 12.8409 30.0409C12.9198 30.4157 12.9593 30.7905 12.9395 31.1061C12.9395 31.1258 12.9395 31.1258 12.9395 31.1455L13.1762 31.2441L13.334 31.3033C13.3932 31.323 13.4327 31.3428 13.4918 31.3625C13.6891 31.4414 13.8863 31.5006 14.1033 31.5795L14.7148 31.7767C14.8134 31.8162 14.912 31.8359 15.0304 31.8556L15.1487 31.8951C15.129 31.8753 15.1093 31.8753 15.0895 31.8556C15.0304 31.8162 14.9515 31.757 14.8923 31.6978C14.7542 31.5795 14.6359 31.4414 14.5175 31.3033C14.3992 31.1652 14.3006 31.0074 14.2019 30.8496C14.1428 30.751 14.1033 30.6524 14.0441 30.534C14.0047 30.4354 13.9455 30.3171 13.9061 30.1987C13.8272 29.9818 13.7483 29.7451 13.7088 29.5281C13.6102 29.0744 13.5905 28.6405 13.6299 28.2657C13.7483 28.3249 13.8469 28.4038 13.9652 28.5221C13.985 28.5418 14.0244 28.5813 14.0441 28.6207C14.0639 28.6602 14.1033 28.6799 14.123 28.7194C14.1822 28.7785 14.2414 28.8574 14.3006 28.9166C14.3597 28.9955 14.4189 29.0744 14.4781 29.1533L14.5175 29.2125L14.557 29.2717C14.5767 29.3111 14.6161 29.3506 14.6359 29.39C14.7345 29.5478 14.8331 29.7056 14.9317 29.8831C15.0304 30.0409 15.1093 30.2185 15.1882 30.4157C15.2276 30.5143 15.2671 30.5932 15.3065 30.6918C15.346 30.7905 15.3854 30.8694 15.4249 30.968C15.5629 31.3428 15.6616 31.6978 15.701 32.0331V32.0529C16.4111 32.2107 17.1212 32.329 17.8313 32.3882L17.8116 32.6643C17.0818 32.5854 16.3519 32.4671 15.6418 32.3093C15.6418 32.329 15.6418 32.329 15.6221 32.3487C15.4446 32.6249 15.1882 32.901 14.8528 33.1377C14.7739 33.1969 14.6753 33.2561 14.5964 33.3153C14.4978 33.3744 14.4189 33.4336 14.3203 33.4731C14.123 33.5717 13.9258 33.6703 13.7088 33.7492C13.5116 33.8084 13.2946 33.8675 13.0579 33.907C12.9987 33.9267 12.9395 33.9267 12.8804 33.9267L12.7817 33.9464H12.6831C12.5648 33.9662 12.4464 33.9662 12.3281 33.9662C12.2097 33.9662 12.0914 33.9662 11.973 33.9662C11.9138 33.9662 11.8547 33.9662 11.7955 33.9464C11.7363 33.9464 11.6771 33.9267 11.6377 33.9267C11.4207 33.8873 11.2235 33.8478 11.0459 33.7689C11.3418 33.5125 11.756 33.2758 12.2097 33.0588C12.4267 32.9405 12.6831 32.8419 12.9001 32.7432C13.0184 32.7038 13.1368 32.6446 13.2551 32.6052C13.3735 32.5657 13.4918 32.5065 13.6102 32.4671C13.7877 32.4079 13.985 32.3487 14.1625 32.3093C14.3597 32.2501 14.5372 32.2304 14.7148 32.1909C14.8134 32.1712 14.8923 32.1712 14.9712 32.1515C15.0106 32.1515 15.0304 32.1515 15.0501 32.1515L14.912 32.112C14.8134 32.0923 14.695 32.0529 14.5964 32.0331L13.985 31.8359C13.7877 31.757 13.5707 31.6781 13.3735 31.6189C13.3143 31.5992 13.2749 31.5795 13.2157 31.5597L13.0579 31.5006L12.8212 31.4019C12.8212 31.4217 12.8015 31.4217 12.8015 31.4414C12.5845 31.6781 12.2886 31.8951 11.9138 32.0726C11.7363 32.1712 11.5391 32.2304 11.3221 32.3093C11.2235 32.3487 11.1248 32.3685 11.0065 32.4079C10.9473 32.4276 10.9079 32.4276 10.8487 32.4474C10.7895 32.4671 10.7501 32.4671 10.6909 32.4671C10.4937 32.5065 10.2767 32.5263 10.04 32.5263C9.92163 32.5263 9.80328 32.5263 9.68493 32.5065C9.56659 32.5065 9.44824 32.4868 9.32989 32.4671C9.21154 32.4474 9.09319 32.4276 8.97484 32.4079C8.85649 32.3882 8.75786 32.3487 8.65924 32.3093C8.56061 32.2698 8.46199 32.2304 8.36337 32.1909C8.32392 32.1712 8.26474 32.1515 8.22529 32.1318C8.18584 32.112 8.1464 32.0923 8.10695 32.0529C8.18585 32.0134 8.28447 31.9542 8.36337 31.9148C8.46199 31.8753 8.56061 31.8359 8.65924 31.7767C8.87621 31.6978 9.09319 31.6189 9.32989 31.5597C9.56658 31.5006 9.82301 31.4217 10.0597 31.3625C10.2964 31.3033 10.5528 31.2639 10.7895 31.2244C10.9868 31.185 11.1643 31.1652 11.3615 31.1652C11.4602 31.1652 11.5588 31.1455 11.6377 31.1455C11.7363 31.1455 11.8152 31.1455 11.9138 31.1455C12.0322 31.1455 12.1703 31.1652 12.2689 31.1652C11.6377 30.8694 11.0065 30.534 10.4148 30.1593C10.3556 30.1198 10.2964 30.0804 10.2372 30.0409C10.2372 30.0606 10.2175 30.0606 10.1978 30.0804C9.96108 30.2579 9.62576 30.4354 9.23126 30.5538C9.03401 30.6129 8.83676 30.6524 8.61979 30.6721C8.40282 30.7116 8.18584 30.7313 7.9886 30.7116C7.79135 30.7116 7.57437 30.6918 7.33767 30.6524C7.1207 30.6129 6.884 30.5538 6.66703 30.4749C6.45006 30.4157 6.23308 30.3171 6.05556 30.2185C5.87803 30.1198 5.70051 30.0212 5.58216 29.9029C5.91749 29.7648 6.39088 29.6859 6.86428 29.6267C6.98263 29.607 7.10098 29.607 7.21933 29.5873C7.33768 29.5675 7.47575 29.5675 7.5941 29.5675C7.71245 29.5675 7.8308 29.5478 7.94915 29.5478C8.0675 29.5478 8.18585 29.5478 8.30419 29.5478C8.67897 29.5478 9.07346 29.5873 9.40878 29.6662C9.48768 29.6859 9.56658 29.7056 9.64548 29.7253C9.68493 29.7451 9.72438 29.7451 9.76383 29.7648C9.25099 29.4097 8.75787 29.035 8.30419 28.6207C8.20557 28.5418 8.10695 28.4432 8.00832 28.3446C7.9886 28.3643 7.98859 28.3643 7.96887 28.384C7.71245 28.5221 7.3574 28.6207 6.9629 28.6799C6.76565 28.6996 6.56841 28.7194 6.35143 28.6996C6.25281 28.6996 6.13446 28.6996 6.03584 28.6799C5.93721 28.6799 5.83859 28.6602 5.72024 28.6405C5.52299 28.601 5.32574 28.5616 5.10876 28.4827C4.89179 28.4038 4.69454 28.3249 4.4973 28.2065C4.43812 28.1868 4.39867 28.1473 4.3395 28.1276C4.31977 28.1079 4.30005 28.1079 4.2606 28.0882C4.24087 28.0684 4.22115 28.0684 4.1817 28.0487C4.08307 27.9895 4.00417 27.9304 3.92527 27.8712C3.84637 27.812 3.76748 27.7528 3.68858 27.6739C3.64913 27.6345 3.6294 27.6148 3.58995 27.5753C3.5505 27.5359 3.53078 27.5161 3.51105 27.4767C3.58995 27.457 3.68858 27.4372 3.7872 27.4372C3.88582 27.4175 3.98445 27.4175 4.1028 27.4175C4.31977 27.4175 4.55647 27.4175 4.79317 27.4175C4.91152 27.4175 5.02987 27.4372 5.14822 27.4372C5.26657 27.4372 5.38491 27.457 5.50326 27.4767C5.62161 27.4964 5.73996 27.4964 5.85831 27.5161C5.97666 27.5359 6.09501 27.5556 6.19363 27.5753C6.54868 27.6345 6.92345 27.7528 7.23905 27.8515C7.37712 27.8909 7.49547 27.9501 7.5941 28.0093C7.06153 27.4964 6.5684 26.9441 6.09501 26.3524C6.07528 26.3721 6.05556 26.3721 6.05556 26.3721C5.77941 26.4707 5.42436 26.5102 5.02987 26.4905C4.83262 26.4905 4.63537 26.451 4.43812 26.4313C4.3395 26.4116 4.24087 26.3918 4.14225 26.3721C4.08307 26.3524 4.04362 26.3524 3.98445 26.3327C3.945 26.3129 3.88582 26.2932 3.84637 26.2932C3.66885 26.234 3.4716 26.1551 3.27435 26.0368C3.23491 26.0171 3.17573 25.9776 3.13628 25.9579C3.09683 25.9382 3.03765 25.8987 2.99821 25.879C2.89958 25.8198 2.82068 25.7606 2.72206 25.6817C2.62343 25.6226 2.54453 25.5437 2.46563 25.4845C2.38673 25.4056 2.30783 25.3464 2.24866 25.2675C2.11059 25.1294 1.99224 24.9716 1.91334 24.8336C2.26839 24.8138 2.70233 24.873 3.156 24.9716C3.27435 24.9914 3.3927 25.0308 3.49133 25.0505C3.60968 25.0703 3.72802 25.1097 3.82665 25.1294C4.06335 25.1886 4.28032 25.2675 4.4973 25.3267C4.67482 25.3859 4.83262 25.445 4.99042 25.5239C5.06932 25.5634 5.14822 25.6028 5.22711 25.6423C5.30601 25.6817 5.38491 25.7212 5.46381 25.7606C5.54271 25.8001 5.60189 25.8395 5.66106 25.879C5.70051 25.8987 5.72024 25.9184 5.75969 25.9382C5.77941 25.9579 5.77941 25.9579 5.79913 25.9776C5.36519 25.3859 4.97069 24.7744 4.61564 24.1235C4.59592 24.1432 4.5762 24.1432 4.55647 24.1432C4.28032 24.1826 3.92527 24.1826 3.5505 24.1037C3.37298 24.0643 3.17573 24.0051 2.99821 23.9459C2.82068 23.8868 2.62343 23.8079 2.44591 23.7092C2.28811 23.6303 2.11059 23.512 1.93306 23.3739C1.85417 23.3147 1.75554 23.2358 1.67664 23.1767C1.59774 23.0978 1.51884 23.0386 1.43994 22.9597C1.28214 22.8019 1.14407 22.6441 1.04544 22.4863C0.927095 22.3285 0.848196 22.1707 0.789022 22.0129C0.966545 22.0326 1.14407 22.0721 1.36104 22.1313C1.55829 22.1904 1.75554 22.2693 1.97251 22.3482C2.40646 22.506 2.82068 22.7033 3.21518 22.9005C3.29408 22.94 3.37298 22.9794 3.45188 23.0386C3.53078 23.0781 3.58995 23.1372 3.66885 23.1767C3.82665 23.2753 3.96472 23.3739 4.08307 23.4725C4.14225 23.5317 4.20142 23.5712 4.2606 23.6303C4.31977 23.6698 4.35922 23.7092 4.39867 23.7487C4.06335 23.1175 3.76747 22.4469 3.53078 21.7762C3.51105 21.7959 3.49133 21.7959 3.4716 21.7959C3.19546 21.7959 2.86013 21.7368 2.50508 21.5987C2.32756 21.5395 2.15004 21.4606 1.99224 21.362C1.83444 21.2634 1.65692 21.1647 1.49912 21.0464C1.20325 20.8294 0.907372 20.5138 0.650948 20.1785C0.591774 20.0996 0.532597 20.001 0.473423 19.9221C0.414248 19.8432 0.3748 19.7446 0.33535 19.6657C0.2959 19.5868 0.256451 19.4881 0.217001 19.4092C0.177551 19.3303 0.157827 19.2514 0.157827 19.1725C0.236727 19.1923 0.315626 19.212 0.414251 19.2514C0.493151 19.2909 0.591772 19.3303 0.690397 19.3698C0.867922 19.4487 1.06517 19.5473 1.26242 19.6657C1.63719 19.8826 2.05141 20.139 2.38674 20.3955C2.42619 20.4152 2.44591 20.4546 2.48536 20.4744C2.52481 20.4941 2.54454 20.5335 2.58399 20.5533C2.64316 20.6124 2.72206 20.6716 2.78123 20.7308C2.89958 20.8491 3.01793 20.9675 3.13628 21.0858C3.2349 21.2042 3.33353 21.3028 3.41243 21.4212C3.2349 20.928 3.09683 20.4152 2.97848 19.9023L2.91931 19.2317Z" fill="url(#paint1_linear_20931_1856)"/>
<defs>
<linearGradient id="paint0_linear_20931_1856" x1="23.4446" y1="30.9579" x2="43.1235" y2="14.839" gradientUnits="userSpaceOnUse">
<stop stop-color="#BF8A35"/>
<stop offset="0.0500371" stop-color="#C4913B"/>
<stop offset="0.122" stop-color="#D0A44C"/>
<stop offset="0.2067" stop-color="#E5C368"/>
<stop offset="0.2399" stop-color="#EFD175"/>
<stop offset="0.2555" stop-color="#ECCC6F"/>
<stop offset="0.3392" stop-color="#DDB455"/>
<stop offset="0.3888" stop-color="#D7AB4B"/>
<stop offset="0.5239" stop-color="#D7AE4D"/>
<stop offset="0.5653" stop-color="#E4C466"/>
<stop offset="0.6212" stop-color="#F3DB82"/>
<stop offset="0.6704" stop-color="#FCEA93"/>
<stop offset="0.7072" stop-color="#FFEF99"/>
<stop offset="0.7561" stop-color="#F1D984"/>
<stop offset="0.8648" stop-color="#D6AE59"/>
<stop offset="0.9498" stop-color="#C5943F"/>
<stop offset="1" stop-color="#BF8A35"/>
</linearGradient>
<linearGradient id="paint1_linear_20931_1856" x1="4.05678" y1="31.2395" x2="23.8009" y2="15.2228" gradientUnits="userSpaceOnUse">
<stop stop-color="#BF8A35"/>
<stop offset="0.0500371" stop-color="#C4913B"/>
<stop offset="0.122" stop-color="#D0A44C"/>
<stop offset="0.2067" stop-color="#E5C368"/>
<stop offset="0.2399" stop-color="#EFD175"/>
<stop offset="0.2555" stop-color="#ECCC6F"/>
<stop offset="0.3392" stop-color="#DDB455"/>
<stop offset="0.3888" stop-color="#D7AB4B"/>
<stop offset="0.5239" stop-color="#D7AE4D"/>
<stop offset="0.5653" stop-color="#E4C466"/>
<stop offset="0.6212" stop-color="#F3DB82"/>
<stop offset="0.6704" stop-color="#FCEA93"/>
<stop offset="0.7072" stop-color="#FFEF99"/>
<stop offset="0.7561" stop-color="#F1D984"/>
<stop offset="0.8648" stop-color="#D6AE59"/>
<stop offset="0.9498" stop-color="#C5943F"/>
<stop offset="1" stop-color="#BF8A35"/>
</linearGradient>
</defs>
</svg>
