<svg width="38" height="35" viewBox="0 0 38 35" fill="none" xmlns="http://www.w3.org/2000/svg">
<path d="M15.6448 32.3007C15.6055 31.9862 15.5072 31.6128 15.3697 31.2393C15.3304 31.1411 15.291 31.0624 15.2517 30.9642C15.2124 30.8659 15.1731 30.7873 15.1338 30.689C15.0552 30.5121 14.9569 30.3352 14.8783 30.1583C14.7997 30.0011 14.7014 29.8242 14.5835 29.667C14.5638 29.6277 14.5245 29.5884 14.5049 29.5491L14.4656 29.4901L14.4263 29.4311C14.3673 29.3525 14.3083 29.2739 14.2494 29.1953C14.1904 29.1167 14.1314 29.0577 14.0725 28.9987C14.0332 28.9594 14.0135 28.9398 13.9939 28.9005C13.9742 28.8612 13.9349 28.8415 13.9152 28.8022C13.7973 28.6843 13.6794 28.6057 13.5811 28.5467C13.5222 28.9201 13.5615 29.3525 13.6597 29.8046C13.699 30.0208 13.7777 30.2566 13.8563 30.4728C13.8956 30.5907 13.9349 30.689 13.9939 30.8069C14.0332 30.9052 14.0921 31.0231 14.1511 31.1214C14.2297 31.2786 14.3476 31.4359 14.4656 31.5735C14.5835 31.711 14.7211 31.8486 14.839 31.9665C14.898 32.0255 14.9766 32.0845 15.0355 32.1238C15.0552 32.1434 15.0748 32.1434 15.0945 32.1631L14.9766 32.1238C14.8783 32.1041 14.7604 32.0648 14.6621 32.0452L14.0528 31.8486C13.8563 31.77 13.6597 31.711 13.4435 31.6324C13.3846 31.6128 13.3453 31.5931 13.2863 31.5735L13.1291 31.5145L12.8932 31.4162C12.8932 31.3966 12.8932 31.3966 12.8932 31.3769C12.9129 31.0624 12.8736 30.689 12.795 30.3156C12.7556 30.119 12.7163 29.9225 12.677 29.7456C12.6574 29.6473 12.6181 29.5491 12.5984 29.4704C12.5788 29.3722 12.5394 29.2936 12.5198 29.1953C12.4608 29.0184 12.4019 28.8415 12.3232 28.6843C12.2839 28.6057 12.2446 28.5074 12.2053 28.4288C12.166 28.3501 12.1267 28.2519 12.0874 28.1733C12.0481 28.0946 11.9891 28.016 11.9498 27.9374C11.9105 27.8588 11.8515 27.7998 11.8122 27.7212C11.7729 27.6622 11.714 27.6033 11.6747 27.5443C11.655 27.5247 11.6353 27.4854 11.596 27.4657C11.5764 27.4461 11.5567 27.4264 11.5174 27.4067C11.4978 27.4854 11.4585 27.5836 11.4388 27.6819C11.4191 27.7802 11.3995 27.8784 11.3995 27.9767C11.3798 28.1733 11.3602 28.4091 11.3798 28.6253C11.3798 28.8612 11.4191 29.0774 11.4585 29.3132C11.4978 29.5491 11.5567 29.7653 11.6353 29.9815C11.6943 30.1583 11.7729 30.3156 11.8515 30.4728C11.8909 30.5514 11.9498 30.63 11.9891 30.7087C12.0481 30.7873 12.0874 30.8462 12.1464 30.9249C12.225 31.0231 12.2839 31.1017 12.3626 31.1804C11.7336 30.8856 11.144 30.5711 10.5544 30.2173C10.4954 30.178 10.4364 30.1387 10.3775 30.0994C10.3775 30.0797 10.3971 30.0797 10.3971 30.0601C10.4757 29.7653 10.4954 29.3918 10.4954 29.0184C10.4954 28.8219 10.4757 28.6253 10.4757 28.4484C10.4561 28.2519 10.4364 28.075 10.4168 27.8784C10.3971 27.7016 10.3578 27.5247 10.2989 27.3478C10.2595 27.1709 10.2006 26.994 10.1416 26.8171C10.0827 26.6599 10.0237 26.483 9.94508 26.3454C9.86646 26.2078 9.78784 26.0899 9.72888 25.9916C9.57164 26.3061 9.45372 26.7188 9.39476 27.1512C9.3751 27.2692 9.3751 27.3674 9.35545 27.4854C9.35545 27.6033 9.35545 27.7016 9.35545 27.8195C9.35545 27.9374 9.35545 28.0553 9.3751 28.1536C9.3751 28.2715 9.39476 28.3698 9.41441 28.4877C9.47337 28.8218 9.5913 29.1953 9.76819 29.4901C9.8075 29.5687 9.8468 29.6277 9.88611 29.7063C9.90577 29.7456 9.92542 29.7653 9.94508 29.7849C9.45372 29.4311 8.96236 29.0774 8.51031 28.6646C8.41204 28.586 8.31377 28.4877 8.2155 28.3895C8.23515 28.3698 8.23515 28.3698 8.23515 28.3501C8.35308 28.075 8.43169 27.7212 8.49066 27.3674C8.52997 27.1905 8.54962 26.994 8.54962 26.7975C8.54962 26.6992 8.56928 26.6009 8.56928 26.5223C8.56928 26.424 8.56927 26.3454 8.58893 26.2471C8.58893 26.0702 8.58893 25.8934 8.56928 25.7165C8.54962 25.5396 8.52997 25.343 8.51031 25.1858C8.51031 25.1465 8.49066 25.1072 8.49066 25.0679C8.49066 25.0482 8.49066 25.0286 8.471 25.0089C8.471 24.9893 8.471 24.9696 8.45135 24.95C8.4317 24.8713 8.41204 24.7927 8.39239 24.7141C8.37273 24.6355 8.35308 24.5765 8.31377 24.5176C8.29412 24.4783 8.29412 24.4586 8.27446 24.4389C8.25481 24.4193 8.25481 24.38 8.23515 24.3603C8.17619 24.4389 8.13688 24.4979 8.07792 24.5962C8.03861 24.6748 7.97965 24.7534 7.94034 24.8517C7.86172 25.0286 7.7831 25.2251 7.72414 25.4413C7.68483 25.5396 7.66518 25.6575 7.64552 25.7558C7.62587 25.854 7.60621 25.972 7.58656 26.0899C7.56691 26.2078 7.56691 26.3061 7.54725 26.424C7.54725 26.542 7.5276 26.6402 7.5276 26.7581C7.5276 27.0923 7.58656 27.4657 7.70449 27.7802C7.74379 27.8981 7.7831 28.016 7.84207 28.1143C7.3114 27.6033 6.82004 27.0726 6.36799 26.5026C6.38765 26.483 6.38765 26.483 6.4073 26.4633C6.56454 26.2078 6.70212 25.8934 6.80039 25.5396C6.85935 25.3627 6.91831 25.1858 6.95762 25.0089C6.97728 24.9106 6.99693 24.832 7.01659 24.7338C7.03624 24.6355 7.05589 24.5569 7.07555 24.4782C7.11486 24.321 7.13451 24.1441 7.13451 23.9672C7.13451 23.869 7.13451 23.7903 7.15417 23.6921C7.15417 23.5938 7.15417 23.5152 7.15417 23.4366C7.15417 23.358 7.15417 23.2597 7.13451 23.1811C7.13451 23.1024 7.11486 23.0238 7.11486 22.9452C7.0952 22.788 7.05589 22.6701 7.01659 22.5521C6.78073 22.788 6.54488 23.1221 6.36799 23.5152C6.32869 23.6135 6.26972 23.7117 6.23041 23.81C6.1911 23.9083 6.1518 24.0065 6.11249 24.1245C6.05352 24.3407 5.99456 24.5569 5.95525 24.7534C5.9356 24.9106 5.91594 25.0875 5.91594 25.2644C5.91594 25.343 5.91594 25.4413 5.9356 25.5199C5.9356 25.5985 5.95525 25.6772 5.97491 25.7558C5.99456 25.8344 6.01422 25.913 6.01422 25.9916C6.01422 26.0309 6.03387 26.0702 6.03387 26.0899V26.1096C5.60148 25.5396 5.20839 24.95 4.87427 24.321C4.89392 24.321 4.91358 24.3014 4.91358 24.2817C5.11012 24.0655 5.28701 23.7707 5.44424 23.4562C5.52286 23.299 5.60148 23.1221 5.68009 22.9649C5.75871 22.788 5.81767 22.6307 5.87664 22.4735C5.9356 22.3163 5.97491 22.1394 6.01422 21.9822C6.03387 21.9035 6.05353 21.8053 6.07318 21.7266C6.09283 21.648 6.11249 21.5498 6.11249 21.4711C6.13214 21.2943 6.1518 21.137 6.1518 20.9994C6.1518 20.8422 6.1518 20.7243 6.11249 20.6063C5.97491 20.7046 5.83733 20.8225 5.7194 20.9601C5.58182 21.0977 5.4639 21.2549 5.34597 21.4318C5.11012 21.766 4.91358 22.1787 4.776 22.5718C4.75634 22.6504 4.73669 22.729 4.71703 22.8076C4.69738 22.8862 4.67772 22.9649 4.67772 23.0631C4.65807 23.2204 4.63841 23.3973 4.65807 23.5545C4.65807 23.6331 4.65807 23.7117 4.67772 23.7903C4.67772 23.8493 4.69738 23.8886 4.69738 23.9476C4.36325 23.3186 4.08809 22.6897 3.83259 22.0215C3.85224 22.0215 3.8719 22.0018 3.89155 22.0018C4.10775 21.8249 4.32395 21.5694 4.54014 21.2746C4.63841 21.137 4.73669 20.9798 4.83496 20.8422C4.93323 20.685 5.01185 20.5277 5.09046 20.3902C5.22804 20.115 5.38528 19.7612 5.4639 19.4467C5.48355 19.3681 5.5032 19.2895 5.52286 19.2109C5.54251 19.1323 5.56217 19.0537 5.56217 18.9947C5.58182 18.9161 5.58182 18.8571 5.58182 18.7982C5.58182 18.7392 5.58182 18.6802 5.58182 18.6213C5.5032 18.6606 5.44424 18.6999 5.36562 18.7588C5.28701 18.7982 5.20839 18.8571 5.14943 18.9161C5.01185 19.034 4.85461 19.1716 4.71703 19.3092C4.42222 19.604 4.18637 19.9578 3.98982 20.3115C3.97017 20.3508 3.95051 20.3902 3.93086 20.4295C3.91121 20.4688 3.89155 20.5081 3.89155 20.5474C3.85224 20.626 3.83259 20.7046 3.81293 20.7832C3.77363 20.9405 3.73432 21.0977 3.71466 21.2549C3.69501 21.3925 3.69501 21.5301 3.69501 21.6677C3.51812 21.1763 3.38054 20.685 3.26261 20.174L3.14469 19.6629C3.16434 19.6629 3.184 19.6629 3.20365 19.6433C3.4395 19.5057 3.69501 19.2895 3.93086 19.0537C4.16671 18.8178 4.40256 18.5427 4.59911 18.2675C4.69738 18.1496 4.79565 17.9923 4.87427 17.8547C4.91358 17.7761 4.95288 17.7172 4.99219 17.6386C5.0315 17.5599 5.07081 17.4813 5.11012 17.4224C5.18874 17.2651 5.2477 17.1275 5.28701 16.99C5.32632 16.8524 5.36562 16.7345 5.36562 16.6165C5.20839 16.6755 5.05116 16.7345 4.89392 16.8327C4.8153 16.872 4.73669 16.931 4.65807 16.99C4.57945 17.0489 4.50084 17.1079 4.42222 17.1668C4.10775 17.4224 3.81293 17.7172 3.57708 18.0513C3.47881 18.1889 3.40019 18.3265 3.32158 18.464C3.24296 18.6016 3.20365 18.7588 3.14469 18.8964C3.12503 18.975 3.10538 19.034 3.08572 19.1126C3.06607 19.1716 3.06607 19.2502 3.04642 19.3092V19.2502L2.98745 18.9357C2.94814 18.7195 2.92849 18.5033 2.90884 18.3068L2.86953 17.9923C2.84987 17.8941 2.84987 17.7761 2.84987 17.6779L2.83022 17.3634V17.3044C2.84987 17.3044 2.88918 17.3044 2.90884 17.3044C3.02676 17.2455 3.16434 17.1865 3.30192 17.1079C3.4395 17.0293 3.57708 16.931 3.71466 16.8327C3.98982 16.6362 4.24533 16.4003 4.48118 16.1645C4.69738 15.9483 4.91358 15.6731 5.09046 15.398C5.18874 15.2604 5.2477 15.1228 5.30666 15.0049C5.36562 14.8869 5.40493 14.769 5.42459 14.6511C5.26735 14.6904 5.11012 14.7297 4.93323 14.7887C4.85461 14.828 4.75634 14.8673 4.67772 14.9066C4.59911 14.9459 4.50084 14.9852 4.42222 15.0442C4.24533 15.1425 4.08809 15.2604 3.93086 15.3783C3.77363 15.4962 3.63605 15.6338 3.49847 15.7714C3.47881 15.791 3.4395 15.8304 3.41985 15.85C3.40019 15.8697 3.36089 15.909 3.34123 15.9483C3.30192 16.0072 3.24296 16.0662 3.20365 16.1448C3.16434 16.2038 3.12503 16.2824 3.08572 16.3414C3.04642 16.4003 3.00711 16.4789 2.98745 16.5379C2.92849 16.6755 2.86953 16.8131 2.84987 16.931V16.9507L2.83022 16.4003C2.83022 16.3021 2.83022 16.1841 2.83022 16.0859V15.9286C2.83022 15.8697 2.83022 15.8304 2.83022 15.7714L2.84987 15.4569V15.2997L2.86953 15.1425C2.86953 15.0835 2.88918 15.0245 2.88918 14.9656C2.90884 14.9656 2.94815 14.9852 2.9678 14.9656C3.08573 14.9263 3.22331 14.8869 3.36089 14.828C3.49847 14.769 3.63605 14.6904 3.79328 14.6118C3.93086 14.5332 4.06844 14.4349 4.22568 14.3563C4.36326 14.258 4.50084 14.1597 4.61876 14.0811C4.73669 13.9829 4.85461 13.8846 4.97254 13.7667C5.0315 13.7077 5.09046 13.6487 5.14943 13.5898C5.20839 13.5308 5.26735 13.4718 5.30666 13.4129C5.5032 13.177 5.68009 12.9412 5.73906 12.7446C5.42459 12.7643 5.09046 12.8429 4.71703 13.0001C4.36326 13.1377 4.00948 13.3539 3.71466 13.5898C3.47881 13.7667 3.26261 14.0222 3.10538 14.258C3.02676 14.3759 2.9678 14.4939 2.90884 14.6118C2.90884 14.6314 2.90884 14.6314 2.88918 14.6511C2.94814 14.0025 3.06607 13.3539 3.20365 12.7053C3.22331 12.725 3.26261 12.725 3.28227 12.725C3.53777 12.7053 3.83259 12.607 4.1274 12.4891C4.20602 12.4695 4.28464 12.4302 4.3436 12.3909C4.42222 12.3515 4.50083 12.3319 4.5598 12.2926C4.71703 12.214 4.85461 12.155 4.99219 12.0764C5.12977 11.9978 5.2477 11.9191 5.38528 11.8209C5.44424 11.7816 5.5032 11.7226 5.58182 11.6833C5.64079 11.644 5.69975 11.585 5.75871 11.5261C5.87664 11.4278 5.97491 11.3295 6.07318 11.2312C6.11249 11.1723 6.1518 11.133 6.19111 11.074C6.23041 11.0347 6.25007 10.9757 6.26972 10.9364C6.11249 10.9168 5.95525 10.9168 5.77837 10.9364C5.60148 10.9561 5.42459 10.9954 5.2477 11.0347C5.14943 11.0544 5.07081 11.0937 4.97254 11.1133C4.87427 11.1526 4.79565 11.1723 4.69738 11.2116C4.52049 11.2902 4.3436 11.3688 4.18637 11.4671C4.06844 11.5457 3.93086 11.6243 3.81293 11.7226C3.69501 11.8209 3.59674 11.9191 3.49847 12.0371C3.40019 12.1353 3.32158 12.2533 3.26261 12.3515C3.24296 12.3712 3.24296 12.3909 3.22331 12.4105C3.38054 11.7816 3.57708 11.1723 3.79328 10.563C3.81293 10.5827 3.85224 10.6023 3.8719 10.6023C4.1274 10.6023 4.42222 10.563 4.71703 10.4844C4.87427 10.4451 5.0315 10.4058 5.16908 10.3468C5.32631 10.3075 5.4639 10.2485 5.60148 10.1896C5.73906 10.1306 5.87664 10.0716 6.01422 9.99303C6.1518 9.91441 6.28938 9.83579 6.4073 9.75718C6.66281 9.59994 6.87901 9.42305 6.97728 9.24616C6.8397 9.20686 6.68246 9.20686 6.50557 9.1872C6.32868 9.1872 6.1518 9.1872 5.97491 9.20685C5.60148 9.24616 5.2477 9.34444 4.89392 9.48202C4.63841 9.59994 4.36325 9.75718 4.16671 9.95372C4.02913 10.0716 3.93086 10.1896 3.85224 10.3075C3.8719 10.2485 3.89155 10.1896 3.91121 10.1306C4.1274 9.59994 4.38291 9.08893 4.63841 8.57792C4.65807 8.59757 4.67772 8.61723 4.71703 8.61723C4.95288 8.65653 5.2477 8.65653 5.56217 8.61723C5.7194 8.59757 5.87664 8.57792 6.01422 8.55826C6.09283 8.53861 6.17145 8.51895 6.23041 8.51895C6.30903 8.4993 6.38765 8.47965 6.44661 8.45999C6.58419 8.42068 6.72177 8.38137 6.85935 8.32241C6.99693 8.26345 7.13451 8.20449 7.27209 8.14552C7.40967 8.08656 7.5276 8.00794 7.62587 7.94898C7.68483 7.90967 7.72414 7.87036 7.76345 7.83105C7.80276 7.79175 7.84207 7.75244 7.88137 7.71313C7.60621 7.61486 7.27209 7.57555 6.91831 7.57555C6.82004 7.57555 6.74142 7.57555 6.64315 7.57555C6.54488 7.57555 6.46627 7.5952 6.36799 7.5952C6.19111 7.61486 6.01422 7.65417 5.83733 7.69347C5.69975 7.73278 5.56217 7.79175 5.44424 7.85071C5.38528 7.89002 5.30666 7.90967 5.2477 7.94898C5.18874 7.98829 5.12977 8.0276 5.07081 8.06691C4.95288 8.14552 4.85461 8.22414 4.776 8.30276C4.73669 8.32241 4.71703 8.36172 4.69738 8.38137C4.79565 8.20449 4.89392 8.00794 5.01185 7.83105C5.22804 7.47728 5.4639 7.1235 5.69975 6.78938C5.69975 6.80903 5.73906 6.84834 5.77837 6.84834C5.89629 6.88765 6.01422 6.9073 6.1518 6.92696C6.28938 6.94661 6.42696 6.94661 6.58419 6.94661C6.87901 6.94661 7.19347 6.92696 7.48829 6.88765C7.62587 6.86799 7.76345 6.84834 7.92068 6.80903C8.05826 6.76972 8.2155 6.73041 8.35308 6.69111C8.62824 6.59283 8.86409 6.47491 9.00167 6.35698C8.88374 6.29802 8.72651 6.23906 8.58893 6.19975C8.43169 6.16044 8.27446 6.12113 8.09757 6.10148C8.01895 6.08182 7.92068 6.08182 7.84207 6.08182C7.7438 6.08182 7.66518 6.08182 7.56691 6.08182C7.39002 6.08182 7.21313 6.10148 7.03624 6.12113C6.89866 6.14078 6.76108 6.18009 6.6235 6.2194C6.56454 6.23906 6.48592 6.25871 6.42696 6.29802C6.36799 6.31767 6.30903 6.35698 6.25007 6.37664C6.13214 6.4356 6.03387 6.49456 5.9356 6.57318C5.89629 6.59283 5.87664 6.63214 5.83733 6.6518C6.05352 6.33733 6.28938 6.04251 6.52523 5.7477C6.68246 5.57081 6.8397 5.39392 6.99693 5.21703C6.99693 5.23669 7.01659 5.276 7.05589 5.29565C7.27209 5.39392 7.54725 5.45288 7.82241 5.49219C7.95999 5.51185 8.11723 5.5315 8.25481 5.5315C8.33342 5.5315 8.39239 5.5315 8.471 5.5315C8.54962 5.5315 8.60858 5.5315 8.6872 5.5315C8.82478 5.5315 8.96236 5.51185 9.09994 5.49219C9.23752 5.47254 9.39476 5.45288 9.53234 5.41358C9.57164 5.41358 9.5913 5.39392 9.63061 5.39392C9.66992 5.39392 9.68957 5.37427 9.72888 5.37427C9.78784 5.35461 9.84681 5.33496 9.90577 5.3153C9.96473 5.29565 10.0237 5.276 10.063 5.23669C10.122 5.21703 10.1613 5.17772 10.2006 5.15807C10.0827 5.07945 9.94508 5.02049 9.8075 4.96153C9.66992 4.90256 9.51268 4.86326 9.33579 4.80429C9.25718 4.78464 9.17856 4.76498 9.08029 4.74533C9.00167 4.72567 8.9034 4.72568 8.82478 4.70602C8.64789 4.68637 8.471 4.68637 8.31377 4.68637C8.17619 4.68637 8.03861 4.70602 7.90103 4.72568C7.84207 4.74533 7.76345 4.74533 7.70449 4.76498C7.64552 4.78464 7.58656 4.80429 7.50794 4.82395C7.39002 4.86326 7.27209 4.92222 7.17382 4.96153C7.13451 4.98118 7.0952 5.02049 7.05589 5.04014C7.44898 4.6274 7.84207 4.21466 8.27446 3.84123C8.29412 3.82158 8.31377 3.80192 8.35308 3.78227C8.35308 3.82158 8.37273 3.86089 8.41204 3.88054C8.60858 3.99847 8.86409 4.07708 9.13925 4.1557C9.27683 4.19501 9.41441 4.21466 9.55199 4.25397C9.68957 4.27363 9.82715 4.29328 9.96473 4.31293C10.2202 4.33259 10.5151 4.33259 10.7902 4.31293C10.8492 4.31293 10.9278 4.29328 10.9868 4.29328C11.0457 4.27363 11.1047 4.27363 11.1636 4.25397C11.2816 4.23432 11.3798 4.19501 11.4585 4.13605C11.2619 3.97881 10.9868 3.82158 10.6723 3.70365C10.5151 3.64469 10.3578 3.60538 10.1809 3.56607C10.1023 3.54642 10.0237 3.52676 9.92542 3.50711C9.84681 3.48745 9.76819 3.48745 9.66992 3.4678C9.53234 3.44815 9.41441 3.44815 9.27683 3.4678C9.13925 3.48745 9.02132 3.50711 8.88374 3.52676C8.82478 3.54642 8.76582 3.56607 8.70685 3.56607C8.64789 3.58573 8.60858 3.60538 8.54962 3.62503C8.471 3.66434 8.43169 3.684 8.37273 3.72331C8.76582 3.38918 9.17856 3.07471 9.5913 2.7799L9.61095 2.79955C9.68957 2.79955 9.76819 2.79955 9.88611 2.7799C9.94508 2.7799 9.98439 2.76025 10.0433 2.74059C10.1023 2.72094 10.1613 2.72094 10.2202 2.70128C10.3382 2.66197 10.4757 2.62266 10.5937 2.5637C10.7116 2.50474 10.8492 2.44578 10.9671 2.38681C11.0457 2.3475 11.1243 2.3082 11.1833 2.24923C11.2619 2.20992 11.3405 2.15096 11.4191 2.11165C11.5764 2.01338 11.714 1.91511 11.8515 1.79718C12.1267 1.58099 12.3822 1.36479 12.5591 1.14859C12.4412 1.12894 12.3036 1.10928 12.1464 1.12894C12.0677 1.12894 11.9891 1.12894 11.9105 1.14859C11.8319 1.16825 11.7533 1.16825 11.6747 1.1879C11.3602 1.24686 11.0261 1.38444 10.7706 1.50237C10.633 1.58099 10.5151 1.6596 10.3775 1.75787C10.2595 1.85615 10.1416 1.95442 10.0433 2.05269C9.82715 2.26889 9.66992 2.48508 9.57164 2.68163C9.55199 2.72094 9.55199 2.76024 9.57164 2.7799C9.13925 3.07471 8.72651 3.38918 8.33342 3.74296C8.37273 3.70365 8.41204 3.64469 8.471 3.56607C8.49066 3.52676 8.52997 3.4678 8.54962 3.42849C8.56928 3.36953 8.60858 3.33022 8.62824 3.27126C8.6872 3.15333 8.74616 3.0354 8.78547 2.89782C8.84444 2.7799 8.88374 2.64232 8.9034 2.50474C8.92305 2.42612 8.94271 2.32785 8.96236 2.24923C8.98202 2.17062 9.00167 2.07234 9.02133 1.99373C9.06063 1.81684 9.08029 1.63995 9.09994 1.46306C9.13925 1.10928 9.15891 0.77516 9.1196 0.5C9.02133 0.578617 8.92305 0.657234 8.82478 0.77516C8.76582 0.834123 8.72651 0.893086 8.6872 0.952049C8.64789 1.01101 8.58893 1.08963 8.54962 1.14859C8.37273 1.42375 8.23515 1.75788 8.17619 2.03304C8.13688 2.19027 8.11723 2.32785 8.09757 2.48508C8.07792 2.64232 8.07792 2.7799 8.07792 2.93713C8.07792 3.23195 8.13688 3.50711 8.2155 3.70365C8.23515 3.74296 8.27446 3.78227 8.29412 3.76261C8.27446 3.78227 8.25481 3.80192 8.2155 3.82158C7.7831 4.19501 7.35071 4.60775 6.95762 5.04014C6.99693 5.00083 7.01659 4.94187 7.05589 4.88291C7.0952 4.78464 7.15417 4.66671 7.19347 4.54879C7.21313 4.48982 7.23278 4.43086 7.25244 4.35224C7.27209 4.29328 7.29175 4.21466 7.3114 4.1557C7.35071 4.01812 7.37036 3.88054 7.39002 3.74296C7.40967 3.56607 7.42933 3.38918 7.44898 3.21229C7.44898 3.11402 7.46864 3.03541 7.46864 2.93713C7.46864 2.83886 7.46864 2.76024 7.46864 2.66197C7.46864 2.48508 7.46864 2.3082 7.44898 2.13131C7.42933 1.97407 7.40967 1.81684 7.37036 1.67926C7.33105 1.71857 7.27209 1.75787 7.23278 1.81684C7.19347 1.8758 7.13451 1.93476 7.0952 1.99373C7.05589 2.05269 7.01659 2.13131 6.97728 2.19027C6.95762 2.22958 6.93797 2.26889 6.91831 2.3082C6.89866 2.3475 6.87901 2.38681 6.85935 2.42612C6.78073 2.58336 6.72177 2.74059 6.68246 2.89782C6.64315 3.05506 6.60385 3.21229 6.58419 3.36953C6.56454 3.44815 6.56454 3.52676 6.56454 3.60538C6.56454 3.684 6.56454 3.76261 6.56454 3.84123C6.56454 3.99847 6.58419 4.1557 6.58419 4.29328C6.6235 4.58809 6.70212 4.86325 6.82004 5.0598C6.8397 5.09911 6.87901 5.11876 6.89866 5.11876C6.74143 5.29565 6.58419 5.47254 6.42696 5.64943C6.17145 5.94424 5.9356 6.23906 5.7194 6.55352C5.73906 6.51422 5.75871 6.45525 5.77837 6.41594C5.81767 6.31767 5.85698 6.19975 5.87664 6.06217C5.89629 6.0032 5.89629 5.92459 5.91594 5.86562C5.9356 5.78701 5.9356 5.72804 5.95525 5.64943C5.97491 5.51185 5.97491 5.35461 5.99456 5.21703C5.99456 5.04014 5.99456 4.8436 5.97491 4.66671C5.97491 4.56844 5.95525 4.47017 5.95525 4.39155C5.95525 4.29328 5.9356 4.19501 5.9356 4.11639C5.91594 3.9395 5.87664 3.74296 5.85698 3.58572C5.81767 3.42849 5.77836 3.27126 5.7194 3.13368C5.54251 3.33022 5.38528 3.62503 5.28701 3.95916C5.22804 4.13605 5.18874 4.29328 5.14943 4.47017C5.11012 4.64706 5.11012 4.80429 5.11012 4.96153C5.11012 5.27599 5.14943 5.61012 5.22804 5.92459C5.26735 6.08182 5.30666 6.2194 5.36562 6.33733C5.42459 6.47491 5.48355 6.57318 5.56217 6.67145C5.58182 6.71076 5.62113 6.71076 5.64078 6.71076C5.40493 7.04488 5.16908 7.39866 4.95288 7.75244C4.83496 7.92933 4.73669 8.12587 4.63841 8.30276C4.65807 8.26345 4.65807 8.22414 4.67772 8.18483C4.69738 8.06691 4.71703 7.94898 4.73669 7.8114C4.73669 7.75244 4.75634 7.67382 4.75634 7.5952C4.75634 7.51659 4.75634 7.45762 4.75634 7.37901C4.75634 7.22177 4.75634 7.08419 4.73669 6.92696C4.71703 6.75007 4.69738 6.55352 4.65807 6.35698C4.63841 6.25871 4.61876 6.16044 4.59911 6.06217C4.57945 5.9639 4.5598 5.86562 4.54014 5.78701C4.44187 5.41358 4.3436 5.07945 4.20602 4.80429C4.16671 4.86326 4.1274 4.92222 4.08809 4.98118C4.04879 5.04014 4.02913 5.11876 3.98982 5.19738C3.93086 5.35461 3.89155 5.5315 3.85224 5.68874C3.81293 5.86562 3.79328 6.04251 3.79328 6.2194C3.77363 6.39629 3.79328 6.57318 3.81293 6.73041C3.81293 6.80903 3.83259 6.88765 3.85224 6.98592C3.8719 7.06454 3.89155 7.14315 3.91121 7.24142C3.95051 7.39866 4.00948 7.55589 4.06844 7.71313C4.18637 8.00794 4.3436 8.26345 4.50083 8.44034C4.52049 8.45999 4.5598 8.47965 4.57945 8.47965C4.30429 8.99066 4.04879 9.50167 3.83259 10.0323C3.81293 10.0913 3.79328 10.1503 3.75397 10.2092C3.77363 10.0716 3.77363 9.89476 3.77363 9.71787C3.75397 9.44271 3.73432 9.12824 3.6557 8.81377C3.57708 8.44034 3.4395 8.04725 3.30192 7.69347C3.22331 7.51659 3.16434 7.3397 3.08572 7.18246C3.00711 7.02523 2.92849 6.86799 2.83022 6.75007C2.69264 6.98592 2.61402 7.3397 2.59437 7.71313C2.57471 7.89002 2.57471 8.08656 2.59437 8.26345C2.61402 8.44034 2.63368 8.61723 2.67298 8.77446C2.71229 8.93169 2.77126 9.10858 2.83022 9.26582C2.88918 9.42305 2.9678 9.58029 3.04642 9.71787C3.20365 10.0127 3.40019 10.2485 3.57708 10.4058C3.59674 10.4254 3.63605 10.4451 3.6557 10.4254C3.41985 11.0347 3.22331 11.6636 3.06607 12.2926C3.06607 12.2729 3.06607 12.2336 3.06607 12.214C3.06607 12.096 3.04642 11.9585 3.02676 11.8209C3.00711 11.6833 2.9678 11.5261 2.92849 11.3688C2.88918 11.2116 2.84987 11.074 2.79091 10.9168C2.71229 10.7399 2.63368 10.5433 2.55506 10.3665C2.51575 10.2682 2.47644 10.1896 2.41748 10.0913C2.37817 9.99303 2.31921 9.91441 2.2799 9.81614C2.18163 9.63925 2.08336 9.46236 1.98508 9.32478C1.88681 9.16755 1.78854 9.02997 1.67062 8.9317C1.65096 8.99066 1.63131 9.06928 1.61165 9.14789C1.592 9.22651 1.592 9.30513 1.57234 9.4034C1.55269 9.58029 1.55269 9.75718 1.55269 9.95372C1.55269 10.052 1.57234 10.1503 1.57234 10.2485C1.592 10.3468 1.592 10.4451 1.61165 10.5237C1.65096 10.7006 1.70992 10.8775 1.74923 11.0347C1.8082 11.1919 1.88681 11.3688 1.96543 11.5064C2.00474 11.585 2.04405 11.6636 2.10301 11.7226C2.14232 11.8012 2.20128 11.8602 2.24059 11.9388C2.43713 12.214 2.65333 12.4302 2.88918 12.5677C2.90884 12.5874 2.94815 12.5874 2.9678 12.5874C2.81056 13.236 2.71229 13.9042 2.63368 14.5528C2.63368 14.5332 2.63368 14.5135 2.63368 14.4939C2.61402 14.3759 2.57471 14.2384 2.5354 14.1008C2.45679 13.8256 2.31921 13.5111 2.16197 13.236C1.96543 12.8822 1.72958 12.5284 1.49373 12.1943C1.25788 11.8602 1.00237 11.5654 0.746863 11.3688C0.6879 11.644 0.6879 12.0371 0.766517 12.4105C0.786172 12.5088 0.805826 12.607 0.82548 12.7053C0.845134 12.8036 0.884443 12.9019 0.923752 12.9805C0.982715 13.1574 1.06133 13.3343 1.13995 13.4718C1.21857 13.6291 1.31684 13.7863 1.43476 13.9239C1.53304 14.0615 1.65096 14.199 1.78854 14.317C1.90647 14.4349 2.02439 14.5528 2.16197 14.6314C2.2799 14.7297 2.41748 14.7887 2.5354 14.8476C2.55506 14.8673 2.59437 14.8673 2.61402 14.8476C2.61402 14.9066 2.59437 14.9656 2.59437 15.0245L2.57471 15.1818V15.339L2.55506 15.6535C2.55506 15.7124 2.55506 15.7517 2.55506 15.8107V15.9679C2.55506 16.0662 2.55506 16.1841 2.55506 16.2824L2.57471 16.8327C2.57471 16.8131 2.57471 16.8131 2.57471 16.8131C2.5354 16.6951 2.47644 16.5576 2.41748 16.42C2.37817 16.361 2.33886 16.2824 2.31921 16.2038C2.2799 16.1252 2.24059 16.0662 2.20128 15.9876C2.16197 15.909 2.12266 15.85 2.0637 15.7714C2.04405 15.7321 2.02439 15.7124 1.98508 15.6731C1.96543 15.6338 1.94578 15.6142 1.90647 15.5749C1.78854 15.4176 1.65096 15.2407 1.51338 15.0835C1.3758 14.9263 1.23822 14.769 1.08099 14.6118C1.00237 14.5332 0.923752 14.4546 0.864789 14.3956C0.786172 14.317 0.727209 14.258 0.648592 14.199C0.511012 14.0811 0.353777 13.9632 0.216197 13.8846C0.196543 14.0222 0.216197 14.199 0.235851 14.3759C0.27516 14.5528 0.314468 14.7494 0.373431 14.9263C0.511011 15.2997 0.6879 15.6731 0.904098 15.9483C1.12029 16.2431 1.39546 16.5183 1.67062 16.7148C1.8082 16.8131 1.94578 16.9113 2.08336 16.99C2.22094 17.0686 2.35852 17.1275 2.4961 17.1668C2.51575 17.1668 2.55506 17.1668 2.57471 17.1668V17.2258L2.59437 17.5403C2.59437 17.6386 2.61402 17.7565 2.61402 17.8547L2.65333 18.1692C2.67299 18.3854 2.69264 18.6016 2.73195 18.8178L2.79091 19.1323L2.81056 19.1912C2.77126 19.1323 2.7516 19.0733 2.71229 19.0144C2.67299 18.9554 2.63368 18.8964 2.59437 18.8178C2.51575 18.6802 2.41748 18.5623 2.29955 18.4247C2.20128 18.2871 2.08336 18.1692 1.96543 18.0513C1.67062 17.7565 1.33649 17.4617 0.982715 17.1865C0.904098 17.1275 0.805826 17.0489 0.727209 16.99C0.648591 16.931 0.569974 16.872 0.471703 16.8131C0.314468 16.7148 0.13758 16.6165 0 16.5576C0 16.7148 0.0393086 16.872 0.0982715 17.0489C0.157234 17.2258 0.235851 17.4224 0.334123 17.5992C0.373431 17.6975 0.432395 17.7761 0.491358 17.8744C0.55032 17.953 0.609283 18.0513 0.668246 18.1299C0.786172 18.2871 0.904098 18.4444 1.04168 18.5623C1.31684 18.8375 1.63131 19.0537 1.92612 19.2305C2.24059 19.4074 2.55506 19.5254 2.83022 19.545C2.84987 19.545 2.86953 19.545 2.90884 19.545L3.02676 20.056C3.14469 20.567 3.30192 21.0781 3.45916 21.5694C3.38054 21.4711 3.30192 21.3532 3.184 21.2353C3.08572 21.1174 2.9678 20.9994 2.83022 20.8815C2.77126 20.8225 2.69264 20.7636 2.63368 20.7046C2.59437 20.685 2.57471 20.6457 2.5354 20.626C2.4961 20.6064 2.47644 20.567 2.43713 20.5474C2.10301 20.2919 1.69027 20.0364 1.31684 19.8202C1.12029 19.7023 0.923752 19.604 0.746863 19.5254C0.648592 19.4861 0.569974 19.4467 0.471703 19.4074C0.393086 19.3681 0.294814 19.3485 0.216197 19.3288C0.235851 19.4074 0.255505 19.4861 0.27516 19.5647C0.314468 19.6433 0.334123 19.7416 0.393086 19.8202C0.432395 19.8988 0.491357 19.9971 0.530666 20.0757C0.589628 20.1543 0.628937 20.2526 0.707555 20.3312C0.96306 20.6653 1.25787 20.9798 1.55269 21.196C1.70992 21.3139 1.86716 21.4122 2.04405 21.5105C2.22094 21.6087 2.39782 21.6873 2.55506 21.7463C2.88918 21.8642 3.22331 21.9428 3.51812 21.9428C3.53777 21.9428 3.55743 21.9428 3.57708 21.9232C3.83259 22.5914 4.10775 23.2597 4.44187 23.8886C4.40256 23.8493 4.36325 23.81 4.30429 23.7707C4.24533 23.7117 4.18637 23.6724 4.1274 23.6135C4.00948 23.5152 3.8719 23.4169 3.71466 23.3186C3.63605 23.2793 3.57708 23.2204 3.49847 23.1811C3.41985 23.1418 3.34123 23.0828 3.26261 23.0435C2.86953 22.8469 2.43713 22.6504 2.02439 22.4932C1.8082 22.4145 1.61165 22.3359 1.41511 22.277C1.21857 22.218 1.02202 22.1787 0.845135 22.159C0.904098 22.3163 0.982715 22.4735 1.10064 22.6307C1.21857 22.788 1.35615 22.9452 1.49373 23.1024C1.57234 23.1811 1.65096 23.2597 1.72958 23.3186C1.8082 23.3973 1.88681 23.4562 1.98508 23.5152C2.16197 23.6331 2.31921 23.751 2.4961 23.8493C2.67298 23.9476 2.84987 24.0262 3.04642 24.0852C3.22331 24.1441 3.41985 24.2031 3.59674 24.2424C3.97017 24.321 4.30429 24.321 4.59911 24.2817C4.61876 24.2817 4.63841 24.2621 4.65807 24.2621C5.01185 24.891 5.40493 25.5199 5.83733 26.1096C5.81767 26.0899 5.81767 26.0899 5.79802 26.0702C5.75871 26.0506 5.73906 26.0309 5.69975 26.0113C5.64078 25.972 5.56217 25.9327 5.5032 25.8934C5.42459 25.8541 5.34597 25.8147 5.28701 25.7754C5.20839 25.7361 5.12977 25.6968 5.05116 25.6575C4.89392 25.5789 4.71703 25.5199 4.5598 25.461C4.3436 25.402 4.1274 25.3234 3.89155 25.2644C3.77363 25.2251 3.6557 25.2055 3.55743 25.1858C3.4395 25.1661 3.32158 25.1268 3.22331 25.1072C2.77126 25.0089 2.33886 24.95 1.98508 24.9696C2.0637 25.1072 2.18163 25.2644 2.31921 25.402C2.39782 25.4806 2.45679 25.5396 2.5354 25.6182C2.61402 25.6968 2.71229 25.7558 2.79091 25.8147C2.86953 25.8737 2.9678 25.9523 3.06607 26.0113C3.10538 26.0506 3.16434 26.0702 3.20365 26.0899C3.24296 26.1096 3.30192 26.1489 3.34123 26.1685C3.53777 26.2668 3.73432 26.3454 3.91121 26.424C3.95051 26.4437 4.00948 26.4633 4.04879 26.4633C4.10775 26.483 4.14706 26.483 4.20602 26.5026C4.30429 26.5223 4.40256 26.542 4.50083 26.5616C4.69738 26.6009 4.89392 26.6206 5.09046 26.6206C5.48355 26.6402 5.83733 26.5813 6.11249 26.5026C6.13214 26.5026 6.1518 26.483 6.1518 26.483C6.60384 27.0726 7.11486 27.6229 7.64552 28.1339C7.5276 28.075 7.40967 28.0357 7.29175 27.9767C6.97728 27.8588 6.60384 27.7409 6.25007 27.7016C6.13214 27.6819 6.01422 27.6622 5.91594 27.6426C5.79802 27.6229 5.68009 27.6033 5.56217 27.6033C5.44424 27.5836 5.32632 27.5836 5.20839 27.564C5.09046 27.564 4.97254 27.5443 4.85461 27.5443C4.61876 27.5247 4.38291 27.5247 4.16671 27.5443C4.04879 27.5443 3.95051 27.564 3.85224 27.564C3.75397 27.5836 3.6557 27.5836 3.57708 27.6033C3.59674 27.6426 3.63605 27.6622 3.6557 27.7016C3.69501 27.7409 3.71466 27.7605 3.75397 27.7998C3.83259 27.8588 3.89155 27.9374 3.98982 27.9964C4.06844 28.0553 4.16671 28.1143 4.24533 28.1733C4.26498 28.1929 4.28464 28.1929 4.32395 28.2126C4.3436 28.2322 4.36325 28.2322 4.40256 28.2519C4.44187 28.2715 4.50083 28.3108 4.5598 28.3305C4.75634 28.4288 4.97254 28.527 5.16908 28.6057C5.38528 28.6843 5.58182 28.7236 5.77837 28.7629C5.87664 28.7825 5.97491 28.8022 6.09283 28.8022C6.19111 28.8022 6.30903 28.8219 6.4073 28.8219C6.60385 28.8219 6.82004 28.8218 7.01659 28.8022C7.40967 28.7629 7.76345 28.645 8.01895 28.5074C8.03861 28.5074 8.05826 28.4877 8.05826 28.4681C8.15654 28.5663 8.25481 28.645 8.35308 28.7432C8.82478 29.156 9.31614 29.5294 9.8075 29.8832C9.76819 29.8635 9.72888 29.8635 9.68957 29.8439C9.61095 29.8242 9.53234 29.8046 9.45372 29.7849C9.1196 29.7259 8.72651 29.667 8.35308 29.667C8.23515 29.667 8.11723 29.667 7.9993 29.667C7.88137 29.667 7.76345 29.667 7.64552 29.6866C7.5276 29.6866 7.40967 29.7063 7.27209 29.7063C7.15417 29.7259 7.03624 29.7259 6.91831 29.7456C6.44661 29.8046 5.99456 29.8832 5.64078 30.0208C5.75871 30.1387 5.9356 30.237 6.11249 30.3352C6.30903 30.4335 6.50557 30.5318 6.72177 30.5907C6.93797 30.6694 7.17382 30.7283 7.39002 30.7676C7.60621 30.8069 7.84207 30.8266 8.03861 30.8266C8.25481 30.8266 8.471 30.8069 8.66755 30.7873C8.88374 30.748 9.08029 30.7087 9.27683 30.6694C9.66992 30.5514 10.004 30.3942 10.2399 30.1977C10.2595 30.1977 10.2595 30.178 10.2792 30.1583C10.3382 30.1976 10.3971 30.237 10.4561 30.2763C11.0457 30.6497 11.6747 30.9838 12.3036 31.2786C12.1857 31.259 12.0677 31.259 11.9498 31.259C11.8712 31.259 11.7729 31.259 11.6747 31.259C11.5764 31.259 11.4781 31.259 11.3995 31.2786C11.203 31.2983 11.0261 31.3179 10.8295 31.3376C10.5937 31.3769 10.3578 31.4162 10.1023 31.4752C9.86646 31.5341 9.61095 31.5931 9.3751 31.6717C9.13925 31.7307 8.9034 31.8093 8.70685 31.8879C8.60858 31.9272 8.51031 31.9665 8.41204 32.0255C8.31377 32.0648 8.23515 32.1238 8.15654 32.1631C8.19584 32.1827 8.23515 32.2024 8.27446 32.2417C8.31377 32.2614 8.35308 32.281 8.41204 32.3007C8.51031 32.34 8.60858 32.3793 8.70685 32.4186C8.80513 32.4579 8.92305 32.4775 9.02133 32.5169C9.13925 32.5365 9.25718 32.5562 9.3751 32.5758C9.49303 32.5955 9.61095 32.6151 9.72888 32.6151C9.84681 32.6348 9.96473 32.6348 10.0827 32.6348C10.3185 32.6348 10.5347 32.6151 10.7312 32.5758C10.7902 32.5758 10.8295 32.5562 10.8885 32.5562C10.9474 32.5365 10.9868 32.5365 11.0457 32.5169C11.144 32.4972 11.2619 32.4579 11.3602 32.4186C11.5567 32.3596 11.7533 32.281 11.9498 32.1827C12.3232 32.0058 12.6181 31.7896 12.8343 31.5538C12.8343 31.5341 12.8539 31.5341 12.8539 31.5145L13.0898 31.6128L13.247 31.6717C13.306 31.6914 13.3453 31.711 13.4042 31.7307C13.6008 31.8093 13.817 31.8879 14.0135 31.9469L14.6228 32.1434C14.7211 32.1827 14.839 32.2024 14.9373 32.222L15.0748 32.2614C15.0355 32.2614 15.0159 32.2614 14.9962 32.2614C14.9176 32.281 14.8193 32.281 14.7407 32.3007C14.5638 32.3203 14.3673 32.3596 14.1904 32.4186C13.9939 32.4579 13.817 32.5169 13.6401 32.5758C13.5222 32.6151 13.4042 32.6544 13.2863 32.7134C13.1684 32.7527 13.0505 32.8117 12.9325 32.851C12.6967 32.9493 12.4608 33.0672 12.2446 33.1655C11.7926 33.3816 11.3798 33.6175 11.085 33.873C11.2423 33.932 11.4585 33.9909 11.6747 34.0302C11.7336 34.0302 11.7926 34.0499 11.8319 34.0499C11.8909 34.0499 11.9498 34.0695 12.0088 34.0695C12.1267 34.0695 12.2446 34.0695 12.3626 34.0695C12.4805 34.0695 12.5984 34.0695 12.7163 34.0499H12.8146L12.9129 34.0302C12.9718 34.0302 13.0308 34.0106 13.0898 34.0106C13.3256 33.9713 13.5418 33.9123 13.7384 33.8534C13.9546 33.7747 14.1511 33.6765 14.3476 33.5782C14.4459 33.5192 14.5442 33.4799 14.6228 33.421C14.7211 33.362 14.7997 33.303 14.8783 33.2441C15.2124 32.9886 15.4876 32.7134 15.6448 32.4579C15.6448 32.4382 15.6645 32.4382 15.6645 32.4186C16.372 32.5758 17.0992 32.6937 17.8265 32.7724L17.8461 32.4972C17.1385 32.4382 16.4113 32.3203 15.7234 32.1631C15.6448 32.3007 15.6448 32.3007 15.6448 32.3007Z" fill="url(#paint0_linear_20931_1853)"/>
<path d="M34.3755 19.6433C34.3952 19.6433 34.4148 19.6629 34.4541 19.6433C34.7293 19.604 35.0437 19.486 35.3582 19.3288C35.6727 19.1519 35.9872 18.9161 36.2427 18.6606C36.3606 18.5426 36.4982 18.3854 36.6161 18.2282C36.6751 18.1496 36.734 18.0709 36.793 17.9727C36.8519 17.894 36.8912 17.7958 36.9502 17.6975C37.0485 17.5206 37.1271 17.3241 37.1861 17.1472C37.245 16.9703 37.2647 16.7934 37.2843 16.6558C37.1271 16.7148 36.9699 16.8131 36.8126 16.9113C36.734 16.9703 36.6554 17.0293 36.5571 17.0882C36.4785 17.1472 36.3802 17.2061 36.3016 17.2848C35.9478 17.5403 35.6334 17.8547 35.3189 18.1495C35.201 18.2675 35.0831 18.3854 34.9848 18.523C34.8865 18.6606 34.7686 18.7785 34.69 18.9161C34.6507 18.975 34.6114 19.0536 34.572 19.1126C34.5327 19.1716 34.5131 19.2305 34.4738 19.2895L34.4934 19.2305L34.5524 18.9161C34.5917 18.6999 34.6114 18.4837 34.631 18.2675L34.6703 17.953C34.6703 17.8547 34.69 17.7368 34.69 17.6385L34.7096 17.3241V17.2651C34.7293 17.2651 34.7686 17.2651 34.7882 17.2651C34.9258 17.2258 35.0634 17.1668 35.201 17.0882C35.3386 17.0096 35.4761 16.931 35.6137 16.8131C35.8889 16.5969 36.164 16.3414 36.3802 16.0465C36.5964 15.7714 36.7733 15.3979 36.9109 15.0245C36.9699 14.828 37.0288 14.6511 37.0485 14.4742C37.0681 14.2973 37.0878 14.1204 37.0681 13.9828C36.9306 14.0615 36.793 14.1794 36.6357 14.2973C36.5571 14.3563 36.4982 14.4349 36.4195 14.4938C36.3409 14.5725 36.2623 14.6314 36.2034 14.71C36.0461 14.8673 35.9085 15.0245 35.771 15.1818C35.6334 15.339 35.4958 15.5159 35.3779 15.6731C35.3582 15.7124 35.3386 15.7321 35.2993 15.7714C35.2796 15.8107 35.2599 15.8303 35.2206 15.8697C35.1813 15.9286 35.1224 16.0072 35.0831 16.0858C35.0437 16.1645 35.0044 16.2234 34.9651 16.302C34.9258 16.3807 34.8865 16.4396 34.8669 16.5182C34.8079 16.6558 34.7489 16.7934 34.7096 16.9113C34.7096 16.931 34.7096 16.931 34.7096 16.931L34.7293 16.3807C34.7293 16.2824 34.7293 16.1645 34.7293 16.0662V15.909C34.7293 15.85 34.7293 15.8107 34.7293 15.7517L34.7096 15.4373V15.28L34.69 15.1228C34.69 15.0638 34.6703 15.0049 34.6703 14.9459C34.69 14.9459 34.7293 14.9459 34.7489 14.9459C34.8669 14.8869 34.9848 14.8083 35.1224 14.7297C35.2403 14.6314 35.3779 14.5332 35.4958 14.4152C35.6137 14.2973 35.7316 14.1597 35.8496 14.0221C35.9478 13.8846 36.0461 13.7273 36.1444 13.5701C36.223 13.4129 36.3016 13.2556 36.3606 13.0787C36.3999 12.9805 36.4195 12.9019 36.4589 12.8036C36.4785 12.7053 36.4982 12.607 36.5178 12.5088C36.5964 12.1157 36.5964 11.7422 36.5375 11.4671C36.282 11.6636 36.0265 11.9584 35.7906 12.2926C35.5351 12.6267 35.3189 13.0001 35.1224 13.3342C34.9651 13.6094 34.8472 13.9239 34.7489 14.199C34.7096 14.3366 34.6703 14.4742 34.6507 14.5921C34.6507 14.6118 34.6507 14.6314 34.6507 14.6511C34.572 13.9828 34.4738 13.3342 34.3165 12.6857C34.3362 12.6857 34.3755 12.6857 34.3952 12.666C34.6114 12.5284 34.8275 12.3122 35.0437 12.0371C35.1027 11.9781 35.142 11.8995 35.1813 11.8209C35.2206 11.7422 35.2796 11.6833 35.3189 11.6047C35.3975 11.4474 35.4761 11.2902 35.5351 11.133C35.5941 10.9757 35.6334 10.7988 35.6727 10.622C35.6923 10.5237 35.712 10.4451 35.712 10.3468C35.7316 10.2485 35.7316 10.1502 35.7316 10.052C35.7513 9.85544 35.7316 9.67855 35.712 9.50166C35.712 9.42304 35.6923 9.32477 35.6727 9.24615C35.653 9.16753 35.6334 9.08892 35.6137 9.02995C35.5155 9.14788 35.3975 9.28546 35.2993 9.42304C35.201 9.58028 35.1027 9.73751 35.0044 9.9144C34.9651 9.99302 34.9062 10.0913 34.8669 10.1896C34.8275 10.2878 34.7686 10.3664 34.7293 10.4647C34.6507 10.6416 34.572 10.8382 34.4934 11.015C34.4345 11.1526 34.3952 11.3099 34.3558 11.4671C34.3165 11.6243 34.2772 11.7619 34.2576 11.9191C34.2379 12.0567 34.2183 12.1943 34.2183 12.3122C34.2183 12.3319 34.2183 12.3712 34.2183 12.3908C34.061 11.7619 33.8645 11.133 33.6286 10.5237C33.6483 10.5237 33.6876 10.5237 33.7073 10.504C33.9038 10.3468 34.0807 10.1109 34.2379 9.81613C34.3165 9.67855 34.3952 9.52131 34.4541 9.36408C34.5131 9.20684 34.572 9.02995 34.6114 8.87272C34.6507 8.71549 34.6703 8.5386 34.69 8.36171C34.7096 8.18482 34.7096 7.98828 34.69 7.81139C34.6703 7.43796 34.5917 7.08418 34.4541 6.84833C34.3558 6.96625 34.2772 7.12349 34.1986 7.28072C34.12 7.43796 34.0414 7.61484 33.9824 7.79173C33.8448 8.16516 33.7269 8.55825 33.6286 8.91203C33.55 9.20684 33.5304 9.52131 33.5107 9.81613C33.5107 9.99302 33.5107 10.1699 33.5304 10.3075C33.5107 10.2485 33.4911 10.1896 33.4517 10.1306C33.2356 9.59993 32.98 9.06926 32.7049 8.57791C32.7245 8.57791 32.7638 8.55825 32.7835 8.5386C32.9407 8.36171 33.098 8.1062 33.2159 7.81139C33.2749 7.67381 33.3142 7.51657 33.3731 7.33968C33.3928 7.26107 33.4124 7.18245 33.4321 7.08418C33.4517 7.00556 33.4517 6.92694 33.4714 6.82867C33.4911 6.67144 33.4911 6.49455 33.4911 6.31766C33.4714 6.14077 33.4517 5.96388 33.4321 5.78699C33.3928 5.61011 33.3535 5.43322 33.2945 5.29564C33.2749 5.21702 33.2356 5.1384 33.1962 5.07944C33.1569 5.02048 33.1176 4.96151 33.0783 4.90255C32.9407 5.15806 32.8228 5.51183 32.7442 5.88527C32.7245 5.98354 32.7049 6.08181 32.6852 6.16043C32.6656 6.2587 32.6459 6.35697 32.6263 6.45524C32.587 6.65178 32.5673 6.82867 32.5476 7.02522C32.528 7.1628 32.528 7.32003 32.528 7.47726C32.528 7.55588 32.528 7.6345 32.528 7.69346C32.528 7.77208 32.528 7.83104 32.5476 7.90966C32.5673 8.04724 32.587 8.16516 32.6066 8.28309C32.6066 8.3224 32.6263 8.36171 32.6459 8.40102C32.5476 8.22413 32.4297 8.02759 32.3315 7.8507C32.1153 7.49692 31.8794 7.14314 31.6436 6.80902C31.6632 6.80902 31.7025 6.78936 31.7222 6.76971C31.7811 6.67144 31.8597 6.55351 31.9187 6.43559C31.9777 6.29801 32.017 6.16043 32.0563 6.02285C32.1349 5.72803 32.1742 5.39391 32.1742 5.05978C32.1742 4.90255 32.1546 4.74532 32.1153 4.56843C32.0759 4.39154 32.0366 4.2343 31.9777 4.05742C31.8598 3.72329 31.7025 3.42848 31.5453 3.23194C31.4863 3.36952 31.447 3.52675 31.4077 3.68398C31.3684 3.84122 31.3487 4.03776 31.3291 4.21465C31.3094 4.31292 31.3094 4.39154 31.3094 4.48981C31.3094 4.58808 31.2898 4.68635 31.2898 4.76497C31.2701 4.96151 31.2701 5.1384 31.2701 5.31529C31.2701 5.45287 31.2898 5.61011 31.3094 5.74769C31.3094 5.8263 31.3291 5.88527 31.3487 5.96388C31.3684 6.0425 31.3684 6.10146 31.388 6.16043C31.4077 6.29801 31.447 6.41593 31.4863 6.5142C31.506 6.57317 31.5256 6.61247 31.5453 6.65178C31.3094 6.33731 31.0736 6.0425 30.8377 5.74769C30.6805 5.5708 30.5233 5.39391 30.366 5.21702C30.4053 5.21702 30.425 5.19737 30.4446 5.15806C30.5626 4.96151 30.6412 4.68635 30.6805 4.39154C30.7001 4.2343 30.7001 4.09672 30.7001 3.93949C30.7001 3.86087 30.7001 3.78225 30.7001 3.70364C30.7001 3.62502 30.6805 3.5464 30.6805 3.46779C30.6608 3.33021 30.6215 3.15332 30.5822 2.99608C30.5233 2.83885 30.4643 2.68161 30.4053 2.52438C30.3857 2.48507 30.366 2.44576 30.3464 2.40645C30.3267 2.36715 30.3071 2.32784 30.2874 2.28853C30.2481 2.20991 30.2088 2.15095 30.1695 2.09199C30.1302 2.03302 30.0712 1.97406 30.0319 1.9151C29.9926 1.85613 29.9336 1.81683 29.8943 1.77752C29.855 1.9151 29.8354 2.07233 29.8157 2.22957C29.796 2.3868 29.796 2.56369 29.796 2.76023C29.796 2.8585 29.796 2.93712 29.796 3.03539C29.796 3.13366 29.796 3.21228 29.8157 3.31055C29.8354 3.48744 29.855 3.68398 29.8747 3.84122C29.8943 3.9788 29.914 4.11638 29.9533 4.25396C29.9729 4.31292 29.9926 4.39154 30.0122 4.4505C30.0319 4.50946 30.0516 4.58808 30.0712 4.64705C30.1105 4.76497 30.1695 4.8829 30.2088 4.98117C30.2481 5.04013 30.2678 5.09909 30.3071 5.1384C29.914 4.70601 29.4816 4.31292 29.0492 3.91984C29.0295 3.90018 29.0099 3.88053 28.9706 3.86087C29.0099 3.86087 29.0492 3.84122 29.0492 3.80191C29.1278 3.58571 29.1868 3.33021 29.1868 3.03539C29.1868 2.87816 29.1868 2.74058 29.1671 2.58334C29.1475 2.42611 29.1278 2.26887 29.0885 2.13129C29.0099 1.85613 28.8723 1.54167 28.7151 1.24685C28.6758 1.16823 28.6168 1.10927 28.5775 1.05031C28.5382 0.991345 28.4792 0.932382 28.4399 0.873419C28.3416 0.755493 28.2434 0.657222 28.1451 0.598259C28.1058 0.873419 28.1058 1.20754 28.1647 1.56132C28.1844 1.73821 28.2041 1.9151 28.2434 2.09199C28.263 2.1706 28.2827 2.26887 28.3023 2.34749C28.322 2.42611 28.3416 2.52438 28.3613 2.603C28.4006 2.74058 28.4399 2.8585 28.4792 2.99608C28.5185 3.13366 28.5775 3.25159 28.6364 3.36952C28.6561 3.42848 28.6954 3.48744 28.7151 3.52675C28.7347 3.58571 28.774 3.62502 28.7937 3.66433C28.833 3.74295 28.892 3.78226 28.9313 3.84122C28.5382 3.5071 28.1254 3.19263 27.693 2.87816C27.7127 2.8585 27.7127 2.81919 27.693 2.77989C27.5948 2.58334 27.4375 2.36715 27.2213 2.15095C27.1231 2.05268 27.0051 1.95441 26.8872 1.85613C26.7693 1.75786 26.6317 1.67925 26.4941 1.60063C26.2386 1.46305 25.9242 1.34512 25.59 1.28616C25.5114 1.26651 25.4328 1.24685 25.3542 1.24685C25.2756 1.2272 25.1969 1.2272 25.1183 1.2272C24.9611 1.2272 24.8235 1.2272 24.7056 1.24685C24.8825 1.46305 25.1183 1.67925 25.4131 1.89544C25.5507 1.99371 25.708 2.11164 25.8455 2.20991C25.9241 2.24922 26.0028 2.30818 26.0814 2.34749C26.16 2.3868 26.2386 2.44576 26.2976 2.48507C26.4155 2.54403 26.5334 2.603 26.671 2.66196C26.7889 2.72092 26.9265 2.76023 27.0444 2.79954C27.1034 2.81919 27.1624 2.83885 27.2213 2.83885C27.2803 2.8585 27.3393 2.8585 27.3786 2.87816C27.4768 2.89781 27.5751 2.89781 27.6537 2.89781C27.6734 2.89781 27.6734 2.89781 27.6734 2.87816C28.0861 3.17297 28.4989 3.48744 28.8919 3.82156C28.833 3.78226 28.7937 3.7626 28.7151 3.72329C28.6758 3.70364 28.6168 3.68398 28.5578 3.66433C28.4989 3.64468 28.4399 3.62502 28.3809 3.62502C28.263 3.60537 28.1254 3.56606 27.9879 3.56606C27.8503 3.56606 27.7127 3.56606 27.5948 3.56606C27.5161 3.56606 27.4375 3.58571 27.3393 3.60537C27.2606 3.62502 27.182 3.64468 27.0838 3.66433C26.9265 3.70364 26.7496 3.74295 26.5924 3.80191C26.2779 3.91984 26.0028 4.07707 25.8062 4.2343C25.8848 4.27361 25.9831 4.31292 26.101 4.35223C26.16 4.37188 26.219 4.37188 26.2779 4.39154C26.3369 4.41119 26.4155 4.41119 26.4745 4.41119C26.7496 4.43085 27.0444 4.4505 27.3 4.41119C27.4375 4.39154 27.5751 4.37188 27.7127 4.35223C27.8503 4.33258 28.0075 4.29327 28.1254 4.25396C28.4006 4.17534 28.6561 4.09672 28.8526 3.9788C28.8919 3.95914 28.9116 3.91984 28.9116 3.88053C28.9313 3.90018 28.9509 3.91984 28.9902 3.93949C29.4226 4.31292 29.8157 4.72566 30.2088 5.1384C30.1695 5.11875 30.1302 5.07944 30.0909 5.05978C29.9926 5.00082 29.8943 4.96151 29.7567 4.92221C29.6978 4.90255 29.6388 4.8829 29.5602 4.86324C29.5012 4.84359 29.4226 4.82393 29.3637 4.82393C29.2261 4.80428 29.0885 4.78462 28.9509 4.78462C28.774 4.78462 28.6168 4.78463 28.4399 4.80428C28.3613 4.80428 28.263 4.82393 28.1844 4.84359C28.1058 4.86324 28.0075 4.8829 27.9289 4.90255C27.7717 4.94186 27.6144 5.00082 27.4572 5.05978C27.3196 5.11875 27.182 5.17771 27.0641 5.25633C27.1034 5.27598 27.1427 5.31529 27.2017 5.33495C27.241 5.3546 27.3 5.37425 27.3589 5.41356C27.4179 5.43322 27.4768 5.45287 27.5358 5.47253C27.5751 5.47253 27.5948 5.49218 27.6341 5.49218C27.6734 5.49218 27.693 5.51183 27.7323 5.51183C27.8699 5.55114 28.0075 5.5708 28.1647 5.59045C28.3023 5.61011 28.4399 5.62976 28.5775 5.62976C28.6561 5.62976 28.7151 5.62976 28.7937 5.62976C28.8723 5.62976 28.9313 5.62976 29.0099 5.62976C29.1475 5.62976 29.3047 5.61011 29.4423 5.59045C29.7371 5.55114 29.9926 5.49218 30.2088 5.39391C30.2481 5.37425 30.2677 5.3546 30.2677 5.31529C30.425 5.49218 30.5822 5.66907 30.7395 5.84596C30.9753 6.14077 31.2112 6.43559 31.4274 6.75005C31.388 6.7304 31.3684 6.69109 31.3291 6.67144C31.2308 6.61248 31.1325 6.53386 31.0146 6.4749C30.9557 6.43559 30.8967 6.41593 30.8377 6.39628C30.7788 6.37662 30.7001 6.33732 30.6412 6.31766C30.5036 6.27835 30.366 6.23904 30.2284 6.21939C30.0516 6.19973 29.8747 6.18008 29.6978 6.18008C29.6192 6.18008 29.5209 6.18008 29.4226 6.18008C29.3243 6.18008 29.2457 6.19974 29.1671 6.19974C28.9902 6.21939 28.833 6.2587 28.6758 6.29801C28.5185 6.33732 28.3809 6.39628 28.263 6.45524C28.4006 6.59282 28.6364 6.71075 28.9116 6.78936C29.0492 6.82867 29.1868 6.88764 29.344 6.90729C29.4816 6.9466 29.6388 6.96625 29.7764 6.98591C30.0712 7.02522 30.366 7.04487 30.6805 7.04487C30.8377 7.04487 30.9753 7.02522 31.1129 7.02522C31.2505 7.00556 31.3684 6.98591 31.4863 6.9466C31.5256 6.92694 31.5453 6.90729 31.5649 6.88764C31.8008 7.22176 32.0366 7.57554 32.2528 7.92931C32.3511 8.1062 32.469 8.30275 32.5673 8.47963C32.5477 8.45998 32.5083 8.42067 32.4887 8.40102C32.4101 8.3224 32.3118 8.24378 32.1939 8.16517C32.1349 8.12586 32.0759 8.08655 32.017 8.04724C31.958 8.00793 31.8991 7.98828 31.8204 7.94897C31.6829 7.89001 31.5649 7.83104 31.4274 7.79173C31.2505 7.75242 31.0736 7.71312 30.8967 7.69346C30.7984 7.67381 30.7198 7.67381 30.6215 7.67381C30.5233 7.67381 30.4446 7.67381 30.3464 7.67381C29.9926 7.67381 29.6585 7.73277 29.3833 7.81139C29.4226 7.8507 29.4619 7.89 29.5012 7.92931C29.5405 7.96862 29.5995 8.00793 29.6388 8.04724C29.7371 8.12586 29.8747 8.18482 29.9926 8.24378C30.1302 8.30275 30.2678 8.36171 30.4053 8.42067C30.5429 8.47963 30.6805 8.51894 30.8181 8.55825C30.8967 8.57791 30.9557 8.59756 31.0343 8.61721C31.1129 8.63687 31.1915 8.65652 31.2505 8.65652C31.4077 8.67618 31.5649 8.71548 31.7025 8.71548C31.9973 8.75479 32.2921 8.75479 32.5476 8.71548C32.587 8.71548 32.6066 8.69583 32.6263 8.67618C32.9014 9.18719 33.1373 9.6982 33.3535 10.2289C33.3731 10.2878 33.3928 10.3468 33.4124 10.4058C33.3338 10.2878 33.2159 10.1699 33.098 10.052C32.9014 9.87509 32.6263 9.6982 32.3708 9.58027C32.0366 9.44269 31.6632 9.34442 31.2898 9.30511C31.1129 9.28546 30.936 9.26581 30.7591 9.28546C30.5822 9.28546 30.425 9.30511 30.2874 9.34442C30.4053 9.52131 30.6215 9.6982 30.8574 9.85544C30.9753 9.93405 31.1129 10.0127 31.2505 10.0913C31.388 10.1699 31.5256 10.2289 31.6632 10.2878C31.8008 10.3468 31.958 10.4058 32.0956 10.4451C32.2528 10.4844 32.4101 10.5433 32.5476 10.5826C32.8425 10.6613 33.1373 10.7006 33.3928 10.7006C33.4321 10.7006 33.4517 10.6809 33.4714 10.6613C33.6876 11.2705 33.8841 11.8798 34.0414 12.5088C34.0217 12.4891 34.0217 12.4695 34.0021 12.4498C33.9431 12.3515 33.8645 12.2336 33.7662 12.1353C33.6679 12.0371 33.5697 11.9191 33.4517 11.8209C33.3338 11.7226 33.2159 11.644 33.0783 11.5654C32.9211 11.4671 32.7442 11.3885 32.5673 11.3099C32.469 11.2705 32.3904 11.2312 32.2921 11.2116C32.1939 11.1723 32.1153 11.1526 32.017 11.133C31.8401 11.0937 31.6632 11.0543 31.4863 11.0347C31.3094 11.015 31.1522 11.015 30.995 11.0347C31.0146 11.074 31.0539 11.133 31.0736 11.1723C31.1129 11.2116 31.1522 11.2705 31.1915 11.3295C31.2701 11.4278 31.388 11.5261 31.506 11.6243C31.5649 11.6833 31.6239 11.7226 31.6829 11.7816C31.7418 11.8209 31.8008 11.8798 31.8794 11.9191C31.9973 12.0174 32.1349 12.096 32.2725 12.1746C32.4101 12.2533 32.5477 12.3319 32.7049 12.3908C32.7835 12.4301 32.8621 12.4498 32.9211 12.4891C32.9997 12.5284 33.0783 12.5481 33.1373 12.5874C33.4321 12.7053 33.7269 12.7839 33.9824 12.8232C34.0021 12.8232 34.0414 12.8232 34.061 12.8036C34.1986 13.4522 34.3165 14.1008 34.3755 14.7494C34.3755 14.7297 34.3755 14.7297 34.3558 14.71C34.3165 14.5921 34.2379 14.4742 34.1593 14.3563C34.0021 14.1204 33.7859 13.8649 33.55 13.688C33.2552 13.4522 32.9014 13.2556 32.5476 13.0984C32.1939 12.9608 31.8401 12.8625 31.5256 12.8429C31.5846 13.0394 31.7615 13.2753 31.958 13.5111C32.017 13.5701 32.0563 13.6291 32.1153 13.688C32.1742 13.747 32.2332 13.806 32.2921 13.8649C32.4101 13.9828 32.528 14.0811 32.6459 14.1794C32.7638 14.2777 32.9014 14.3759 33.039 14.4545C33.1766 14.5528 33.3142 14.6314 33.4714 14.71C33.609 14.7887 33.7662 14.8673 33.9038 14.9262C34.0414 14.9852 34.179 15.0442 34.2969 15.0638C34.3165 15.0638 34.3558 15.0638 34.3755 15.0638C34.3755 15.1228 34.3952 15.1817 34.3952 15.2407L34.4148 15.3979V15.5552L34.4345 15.8697C34.4345 15.9286 34.4345 15.9679 34.4345 16.0269V16.1841C34.4345 16.2824 34.4345 16.4003 34.4345 16.4986L34.4148 17.0489V17.0293C34.3755 16.9113 34.3362 16.7738 34.2772 16.6362C34.2379 16.5772 34.2183 16.4986 34.179 16.4396C34.1396 16.3807 34.1003 16.302 34.061 16.2431C34.0217 16.1841 33.9628 16.1055 33.9235 16.0465C33.9038 16.0072 33.8841 15.9876 33.8448 15.9483C33.8252 15.9286 33.7859 15.8893 33.7662 15.8697C33.6286 15.7321 33.4911 15.5945 33.3338 15.4766C33.1766 15.3586 32.9997 15.2407 32.8425 15.1424C32.7638 15.0835 32.6656 15.0442 32.587 15.0049C32.5083 14.9656 32.4101 14.9262 32.3315 14.8869C32.1546 14.828 31.9973 14.769 31.8401 14.7494C31.8597 14.8476 31.8991 14.9656 31.958 15.1031C32.017 15.2211 32.0956 15.3586 32.1742 15.4962C32.3511 15.7714 32.5673 16.0465 32.7835 16.2627C33.0194 16.4986 33.2749 16.7344 33.55 16.931C33.6876 17.0293 33.8252 17.1275 33.9628 17.2061C34.1003 17.2848 34.2183 17.3634 34.3558 17.4027C34.3755 17.4223 34.4148 17.4223 34.4345 17.4027V17.4616L34.4148 17.7761C34.4148 17.8744 34.3952 17.9923 34.3952 18.0906L34.3558 18.4051C34.3362 18.6213 34.3165 18.8375 34.2772 19.034L34.2183 19.3485V19.4074C34.2183 19.3485 34.1986 19.2895 34.179 19.2109C34.1593 19.1323 34.1396 19.0733 34.12 18.9947C34.0807 18.8571 34.0217 18.6999 33.9431 18.5623C33.8645 18.4247 33.7859 18.2675 33.6876 18.1495C33.4714 17.8351 33.1569 17.5206 32.8425 17.2651C32.7638 17.2061 32.6852 17.1472 32.6066 17.0882C32.528 17.0293 32.4494 16.9899 32.3708 16.931C32.2135 16.8327 32.0563 16.7737 31.8991 16.7148C31.8991 16.8327 31.9384 16.9506 31.9777 17.0882C32.017 17.2258 32.0759 17.3634 32.1546 17.5206C32.1939 17.5992 32.2332 17.6778 32.2725 17.7368C32.3118 17.8154 32.3511 17.894 32.3904 17.953C32.469 18.0906 32.5673 18.2478 32.6656 18.3657C32.8621 18.6409 33.098 18.9161 33.3338 19.1519C33.5697 19.3878 33.8252 19.604 34.061 19.7416C34.0807 19.7612 34.1003 19.7612 34.1396 19.7612L34.0217 20.2722C33.9038 20.7832 33.7466 21.2746 33.5893 21.7659C33.5893 21.648 33.5893 21.5104 33.5697 21.3532C33.55 21.196 33.5107 21.0387 33.4714 20.8815C33.4517 20.8029 33.4124 20.7243 33.3928 20.6456C33.3731 20.6063 33.3535 20.567 33.3535 20.5277C33.3338 20.4884 33.3142 20.4491 33.2945 20.4098C33.098 20.056 32.8621 19.7022 32.5673 19.4074C32.4297 19.2502 32.2725 19.1323 32.1349 19.0143C32.0563 18.9554 31.9973 18.8964 31.9187 18.8571C31.8401 18.8178 31.7615 18.7588 31.7025 18.7195C31.7025 18.7785 31.7025 18.8375 31.7025 18.8964C31.7025 18.9554 31.7025 19.034 31.7222 19.093C31.7418 19.1716 31.7418 19.2305 31.7615 19.3092C31.7811 19.3878 31.8008 19.4664 31.8204 19.545C31.9187 19.8595 32.0563 20.1936 32.1939 20.4884C32.2725 20.6456 32.3708 20.7832 32.4494 20.9405C32.5476 21.0977 32.6459 21.2353 32.7442 21.3729C32.9407 21.648 33.1766 21.9232 33.3928 22.1001C33.4124 22.1197 33.4321 22.1197 33.4517 22.1197C33.1962 22.788 32.9211 23.4169 32.587 24.0458C32.587 23.9869 32.6066 23.9476 32.6066 23.8886C32.6066 23.81 32.6066 23.7314 32.6263 23.6528C32.6263 23.4955 32.6263 23.3186 32.6066 23.1614C32.6066 23.0828 32.587 22.9845 32.5673 22.9059C32.5477 22.8273 32.528 22.7487 32.5083 22.67C32.3904 22.277 32.1742 21.8839 31.9384 21.5301C31.8204 21.3532 31.6829 21.196 31.5649 21.0584C31.4274 20.9208 31.2898 20.8029 31.1718 20.7046C31.1325 20.8225 31.1325 20.9405 31.1325 21.0977C31.1325 21.2353 31.1522 21.4122 31.1718 21.5694C31.1915 21.648 31.2112 21.7463 31.2112 21.8249C31.2308 21.9035 31.2505 22.0018 31.2701 22.0804C31.3094 22.2573 31.3684 22.4145 31.4077 22.5718C31.4667 22.729 31.5256 22.9059 31.6042 23.0631C31.6829 23.24 31.7615 23.3972 31.8401 23.5545C31.9973 23.869 32.1742 24.1638 32.3708 24.38C32.3904 24.3996 32.3904 24.3996 32.4101 24.4193C32.0563 25.0482 31.6632 25.6378 31.2505 26.2078V26.1882C31.2701 26.1489 31.2701 26.1095 31.2701 26.0899C31.2898 26.0113 31.3094 25.9327 31.3094 25.854C31.3291 25.7754 31.3291 25.6968 31.3487 25.6182C31.3487 25.5396 31.3684 25.4413 31.3684 25.3627C31.3684 25.1858 31.3487 25.0089 31.3291 24.8517C31.2898 24.6551 31.2505 24.4389 31.1718 24.2227C31.1325 24.1245 31.0932 24.0065 31.0539 23.9083C31.0146 23.81 30.9753 23.7117 30.9163 23.6134C30.7198 23.2204 30.5036 22.8862 30.2677 22.6504C30.2284 22.7487 30.1891 22.8862 30.1695 23.0435C30.1498 23.1221 30.1498 23.2007 30.1498 23.2793C30.1498 23.3579 30.1302 23.4366 30.1302 23.5348C30.1302 23.6134 30.1302 23.7117 30.1302 23.7903C30.1302 23.8886 30.1302 23.9672 30.1498 24.0655C30.1695 24.2424 30.1891 24.4193 30.2088 24.5765C30.2284 24.6551 30.2481 24.7534 30.2677 24.832C30.2874 24.9303 30.3071 25.0089 30.3267 25.1072C30.366 25.2841 30.425 25.461 30.4839 25.6378C30.6019 25.9916 30.7198 26.3061 30.877 26.5616C30.8967 26.5812 30.8967 26.5812 30.9163 26.6009C30.4643 27.1709 29.9729 27.7015 29.4423 28.2126C29.5012 28.1143 29.5405 27.9964 29.5798 27.8784C29.6978 27.564 29.7567 27.1905 29.7567 26.8564C29.7567 26.7581 29.7567 26.6402 29.7371 26.5223C29.7371 26.4044 29.7174 26.3061 29.6978 26.1882C29.6781 26.0702 29.6585 25.972 29.6388 25.854C29.6192 25.7558 29.5799 25.6378 29.5602 25.5396C29.5012 25.3234 29.4226 25.1268 29.344 24.9499C29.3047 24.8517 29.2654 24.7731 29.2064 24.6944C29.1671 24.6158 29.1081 24.5372 29.0492 24.4586C29.0295 24.4782 29.0099 24.5175 29.0099 24.5372C28.9902 24.5569 28.9706 24.5962 28.9706 24.6158C28.9509 24.6748 28.9116 24.7534 28.8919 24.8124C28.8723 24.891 28.8526 24.9696 28.833 25.0482C28.833 25.0679 28.833 25.0875 28.8133 25.1072C28.8133 25.1268 28.8133 25.1465 28.7937 25.1661C28.7937 25.2054 28.774 25.2448 28.774 25.2841C28.7347 25.461 28.7151 25.6378 28.7151 25.8147C28.6954 25.9916 28.6954 26.1685 28.6954 26.3454C28.6954 26.4437 28.6954 26.5223 28.7151 26.6206C28.7151 26.7188 28.7151 26.7974 28.7347 26.8957C28.7544 27.0923 28.774 27.2691 28.7937 27.4657C28.8526 27.8391 28.9313 28.1732 29.0492 28.4484C29.0492 28.4681 29.0688 28.4681 29.0688 28.4877C28.9706 28.586 28.8723 28.6646 28.774 28.7629C28.322 29.156 27.8306 29.5294 27.3393 29.8832C27.3589 29.8635 27.3786 29.8242 27.3982 29.8046C27.4375 29.7456 27.4768 29.667 27.5161 29.5884C27.6734 29.2935 27.811 28.9398 27.8699 28.586C27.8896 28.4877 27.9092 28.3698 27.9092 28.2519C27.9092 28.1339 27.9289 28.016 27.9289 27.9177C27.9289 27.7998 27.9289 27.6819 27.9289 27.5836C27.9289 27.4657 27.9092 27.3674 27.8896 27.2495C27.8306 26.8171 27.7127 26.4044 27.5555 26.0899C27.4768 26.1882 27.3982 26.3061 27.3393 26.4437C27.2606 26.5812 27.2017 26.7385 27.1427 26.9154C27.0838 27.0923 27.0248 27.2691 26.9855 27.446C26.9462 27.6229 26.9069 27.7998 26.8676 27.9767C26.8479 28.1536 26.8282 28.3501 26.8086 28.5467C26.7889 28.7432 26.7889 28.9398 26.7889 29.1167C26.7889 29.4901 26.8086 29.8635 26.8872 30.1583C26.8872 30.178 26.9069 30.178 26.9069 30.1976C26.8479 30.2369 26.7889 30.2763 26.73 30.3156C26.1403 30.6693 25.5507 31.0035 24.9218 31.2786C25.0004 31.2 25.079 31.1214 25.138 31.0231C25.1969 30.9642 25.2362 30.8855 25.2952 30.8069C25.3542 30.7283 25.3935 30.6497 25.4328 30.5711C25.5114 30.4138 25.59 30.2369 25.649 30.0797C25.7276 29.8635 25.7866 29.6473 25.8259 29.4115C25.8652 29.1756 25.9045 28.9594 25.9045 28.7236C25.9045 28.4877 25.9045 28.2715 25.8848 28.075C25.8652 27.9767 25.8652 27.8784 25.8455 27.7802C25.8259 27.6819 25.8062 27.5836 25.7669 27.505C25.7473 27.5247 25.7276 27.5443 25.6883 27.564C25.6686 27.5836 25.649 27.6033 25.6097 27.6426C25.5704 27.7015 25.5114 27.7605 25.4721 27.8195C25.4328 27.8784 25.3738 27.957 25.3345 28.0357C25.2952 28.1143 25.2362 28.1929 25.1969 28.2715C25.1576 28.3501 25.1183 28.4288 25.079 28.527C25.0397 28.6056 25.0004 28.7039 24.9611 28.7825C24.8825 28.9594 24.8235 29.1363 24.7645 29.2935C24.7449 29.3918 24.7056 29.4704 24.6859 29.5687C24.6663 29.667 24.627 29.7456 24.6073 29.8439C24.568 30.0404 24.509 30.2369 24.4894 30.4138C24.4108 30.7873 24.3715 31.1607 24.3911 31.4752C24.3911 31.4948 24.3911 31.4948 24.3911 31.5145L24.1553 31.6127L23.998 31.6717C23.9391 31.6914 23.8998 31.711 23.8408 31.7307C23.6442 31.8093 23.4477 31.8683 23.2315 31.9469L22.6222 32.1434C22.524 32.1827 22.4257 32.2024 22.3078 32.222L22.1898 32.2613C22.2095 32.2417 22.2291 32.2417 22.2488 32.222C22.3078 32.1827 22.3864 32.1238 22.4453 32.0648C22.5829 31.9469 22.7008 31.8093 22.8188 31.6717C22.9367 31.5341 23.035 31.3769 23.1332 31.2197C23.1922 31.1214 23.2315 31.0231 23.2905 30.9052C23.3298 30.8069 23.3887 30.689 23.4281 30.5711C23.5067 30.3549 23.5853 30.119 23.6246 29.9028C23.7229 29.4508 23.7425 29.0184 23.7032 28.645C23.5853 28.7039 23.487 28.7825 23.3691 28.9005C23.3494 28.9201 23.3101 28.9594 23.2905 28.9987C23.2708 29.038 23.2315 29.0577 23.2119 29.097C23.1529 29.156 23.0939 29.2346 23.035 29.2935C22.976 29.3722 22.917 29.4508 22.8581 29.5294L22.8188 29.5884L22.7795 29.6473C22.7598 29.6866 22.7205 29.7259 22.7008 29.7652C22.6026 29.9225 22.5043 30.0797 22.406 30.2566C22.3078 30.4138 22.2291 30.5907 22.1505 30.7873C22.1112 30.8855 22.0719 30.9642 22.0326 31.0624C21.9933 31.1607 21.954 31.2393 21.9147 31.3376C21.7771 31.711 21.6788 32.0648 21.6395 32.3989V32.4186C20.932 32.5758 20.2244 32.6937 19.5168 32.7527L19.5365 33.0279C20.2637 32.9492 20.9909 32.8313 21.6985 32.6741C21.6985 32.6937 21.6985 32.6937 21.7181 32.7134C21.895 32.9885 22.1505 33.2637 22.4846 33.4996C22.5633 33.5585 22.6615 33.6175 22.7402 33.6764C22.8384 33.7354 22.917 33.7944 23.0153 33.8337C23.2119 33.932 23.4084 34.0302 23.6246 34.1088C23.8211 34.1678 24.0373 34.2268 24.2732 34.2661C24.3321 34.2857 24.3911 34.2857 24.4501 34.2857L24.5483 34.3054H24.6466C24.7645 34.325 24.8825 34.325 25.0004 34.325C25.1183 34.325 25.2362 34.325 25.3542 34.325C25.4131 34.325 25.4721 34.325 25.5311 34.3054C25.59 34.3054 25.649 34.2857 25.6883 34.2857C25.9045 34.2464 26.101 34.2071 26.2779 34.1285C25.9831 33.873 25.5704 33.6371 25.1183 33.4209C24.9021 33.303 24.6466 33.2047 24.4304 33.1065C24.3125 33.0672 24.1946 33.0082 24.0766 32.9689C23.9587 32.9296 23.8408 32.8706 23.7229 32.8313C23.546 32.7724 23.3494 32.7134 23.1725 32.6741C22.976 32.6151 22.7991 32.5955 22.6222 32.5562C22.524 32.5365 22.4453 32.5365 22.3667 32.5168C22.3274 32.5168 22.3078 32.5168 22.2881 32.5168L22.4257 32.4775C22.524 32.4579 22.6419 32.4186 22.7402 32.3989L23.3494 32.2024C23.546 32.1238 23.7622 32.0451 23.9587 31.9862C24.0177 31.9665 24.057 31.9469 24.116 31.9272L24.2732 31.8683L24.509 31.77C24.509 31.7896 24.5287 31.7896 24.5287 31.8093C24.7449 32.0451 25.0397 32.2613 25.4131 32.4382C25.59 32.5365 25.7866 32.5955 26.0028 32.6741C26.101 32.7134 26.1993 32.733 26.3172 32.7724C26.3762 32.792 26.4155 32.792 26.4745 32.8117C26.5334 32.8313 26.5727 32.8313 26.6317 32.8313C26.8282 32.8706 27.0444 32.8903 27.2803 32.8903C27.3982 32.8903 27.5161 32.8903 27.6341 32.8706C27.752 32.8706 27.8699 32.851 27.9879 32.8313C28.1058 32.8117 28.2237 32.792 28.3416 32.7724C28.4596 32.7527 28.5578 32.7134 28.6561 32.6741C28.7544 32.6348 28.8526 32.5955 28.9509 32.5562C28.9902 32.5365 29.0492 32.5168 29.0885 32.4972C29.1278 32.4775 29.1671 32.4579 29.2064 32.4186C29.1278 32.3793 29.0295 32.3203 28.9509 32.281C28.8526 32.2417 28.7544 32.2024 28.6561 32.1434C28.4399 32.0648 28.2237 31.9862 27.9879 31.9272C27.752 31.8683 27.4965 31.7896 27.2606 31.7307C27.0248 31.6717 26.7693 31.6324 26.5334 31.5931C26.3369 31.5538 26.16 31.5341 25.9635 31.5341C25.8652 31.5341 25.7669 31.5145 25.6883 31.5145C25.59 31.5145 25.5114 31.5145 25.4131 31.5145C25.2952 31.5145 25.1576 31.5341 25.0594 31.5341C25.6883 31.2393 26.3172 30.9052 26.9069 30.5318C26.9658 30.4925 27.0248 30.4531 27.0838 30.4138C27.0838 30.4335 27.1034 30.4335 27.1231 30.4531C27.3589 30.63 27.693 30.8069 28.0861 30.9248C28.2827 30.9838 28.4792 31.0231 28.6954 31.0428C28.9116 31.0821 29.1278 31.1017 29.3243 31.0821C29.5209 31.0821 29.7371 31.0624 29.9729 31.0231C30.1891 30.9838 30.425 30.9248 30.6412 30.8462C30.8574 30.7873 31.0736 30.689 31.2505 30.5907C31.4274 30.4925 31.6042 30.3942 31.7222 30.2763C31.388 30.1387 30.9163 30.0601 30.4446 30.0011C30.3267 29.9814 30.2088 29.9814 30.0909 29.9618C29.9729 29.9421 29.8354 29.9421 29.7174 29.9421C29.5995 29.9421 29.4816 29.9225 29.3637 29.9225C29.2457 29.9225 29.1278 29.9225 29.0099 29.9225C28.6364 29.9225 28.2434 29.9618 27.9092 30.0404C27.8306 30.0601 27.752 30.0797 27.6734 30.0994C27.6341 30.119 27.5948 30.119 27.5555 30.1387C28.0665 29.7849 28.5578 29.4115 29.0099 28.9987C29.1081 28.9201 29.2064 28.8218 29.3047 28.7236C29.3243 28.7432 29.3243 28.7432 29.344 28.7629C29.5995 28.9005 29.9533 28.9987 30.3464 29.0577C30.5429 29.0773 30.7395 29.097 30.9557 29.0773C31.0539 29.0773 31.1718 29.0773 31.2701 29.0577C31.3684 29.0577 31.4667 29.038 31.5846 29.0184C31.7811 28.9791 31.9777 28.9398 32.1939 28.8611C32.4101 28.7825 32.6066 28.7039 32.8032 28.586C32.8621 28.5663 32.9014 28.527 32.9604 28.5074C32.98 28.4877 32.9997 28.4877 33.039 28.4681C33.0587 28.4484 33.0783 28.4484 33.1176 28.4288C33.2159 28.3698 33.2945 28.3108 33.3731 28.2519C33.4517 28.1929 33.5304 28.1339 33.609 28.0553C33.6483 28.016 33.6679 27.9964 33.7073 27.9571C33.7466 27.9177 33.7662 27.8981 33.7859 27.8588C33.7073 27.8391 33.609 27.8195 33.5107 27.8195C33.4124 27.7998 33.3142 27.7998 33.1962 27.7998C32.98 27.7998 32.7442 27.7998 32.5083 27.7998C32.3904 27.7998 32.2725 27.8195 32.1546 27.8195C32.0366 27.8195 31.9187 27.8391 31.8008 27.8588C31.6829 27.8784 31.5649 27.8784 31.447 27.8981C31.3291 27.9177 31.2112 27.9374 31.1129 27.9571C30.7591 28.016 30.3857 28.1339 30.0712 28.2322C29.9336 28.2715 29.8157 28.3305 29.7174 28.3894C30.2481 27.8784 30.7395 27.3281 31.2112 26.7385C31.2308 26.7581 31.2505 26.7581 31.2505 26.7581C31.5256 26.8564 31.8794 26.8957 32.2725 26.8761C32.469 26.8761 32.6656 26.8368 32.8621 26.8171C32.9604 26.7974 33.0587 26.7778 33.1569 26.7581C33.2159 26.7385 33.2552 26.7385 33.3142 26.7188C33.3535 26.6992 33.4124 26.6795 33.4517 26.6795C33.6286 26.6206 33.8252 26.5419 34.0217 26.424C34.061 26.4044 34.12 26.365 34.1593 26.3454C34.1986 26.3257 34.2576 26.2864 34.2969 26.2668C34.3952 26.2078 34.4738 26.1489 34.572 26.0702C34.6703 26.0113 34.7489 25.9327 34.8275 25.8737C34.9062 25.7951 34.9848 25.7361 35.0437 25.6575C35.1813 25.5199 35.2993 25.3627 35.3779 25.2251C35.0241 25.2054 34.5917 25.2644 34.1396 25.3627C34.0217 25.3823 33.9038 25.4216 33.8055 25.4413C33.6876 25.461 33.5697 25.5003 33.4714 25.5199C33.2355 25.5789 33.0194 25.6575 32.8032 25.7165C32.6263 25.7754 32.469 25.8344 32.3118 25.913C32.2332 25.9523 32.1546 25.9916 32.0759 26.0309C31.9973 26.0702 31.9187 26.1095 31.8401 26.1489C31.7615 26.1882 31.7025 26.2275 31.6436 26.2668C31.6042 26.2864 31.5846 26.3061 31.5453 26.3257C31.5256 26.3454 31.5256 26.3454 31.506 26.3651C31.9384 25.7754 32.3315 25.1661 32.6852 24.5175C32.7049 24.5372 32.7245 24.5372 32.7442 24.5372C33.0194 24.5765 33.3731 24.5765 33.7466 24.4979C33.9235 24.4586 34.12 24.3996 34.2969 24.3407C34.4738 24.2817 34.6703 24.2031 34.8472 24.1048C35.0044 24.0262 35.1813 23.9083 35.3582 23.7707C35.4368 23.7117 35.5351 23.6331 35.6137 23.5741C35.6923 23.4955 35.771 23.4366 35.8496 23.3579C36.0068 23.2007 36.1444 23.0435 36.2427 22.8862C36.3606 22.729 36.4392 22.5718 36.4982 22.4145C36.3213 22.4342 36.1444 22.4735 35.9282 22.5325C35.7316 22.5914 35.5351 22.67 35.3189 22.7487C34.8865 22.9059 34.4738 23.1024 34.0807 23.299C34.0021 23.3383 33.9235 23.3776 33.8448 23.4366C33.7662 23.4759 33.7073 23.5348 33.6286 23.5741C33.4714 23.6724 33.3338 23.7707 33.2159 23.869C33.1569 23.9279 33.098 23.9672 33.039 24.0262C32.98 24.0655 32.9407 24.1048 32.9014 24.1441C33.2356 23.5152 33.5304 22.8469 33.7662 22.1787C33.7859 22.1983 33.8055 22.1983 33.8252 22.1983C34.1003 22.1983 34.4345 22.1394 34.7882 22.0018C34.9651 21.9428 35.142 21.8642 35.2993 21.7659C35.4565 21.6677 35.6334 21.5694 35.7906 21.4515C36.0854 21.2353 36.3802 20.9208 36.6357 20.5867C36.6947 20.5081 36.7537 20.4098 36.8126 20.3312C36.8716 20.2526 36.9109 20.1543 36.9502 20.0757C36.9895 19.9971 37.0288 19.8988 37.0681 19.8202C37.1074 19.7415 37.1271 19.6629 37.1271 19.5843C37.0485 19.604 36.9699 19.6236 36.8716 19.6629C36.793 19.7022 36.6947 19.7415 36.5964 19.7809C36.4195 19.8595 36.223 19.9577 36.0265 20.0757C35.653 20.2919 35.2403 20.5474 34.9062 20.8029C34.8669 20.8225 34.8472 20.8618 34.8079 20.8815C34.7686 20.9012 34.7489 20.9405 34.7096 20.9601C34.6507 21.0191 34.572 21.078 34.5131 21.137C34.3952 21.2549 34.2772 21.3729 34.1593 21.4908C34.061 21.6087 33.9628 21.707 33.8841 21.8249C34.061 21.3335 34.1986 20.8225 34.3165 20.3115L34.3755 19.6433Z" fill="url(#paint1_linear_20931_1853)"/>
<defs>
<linearGradient id="paint0_linear_20931_1853" x1="8.94797" y1="34.2326" x2="8.94797" y2="0.469006" gradientUnits="userSpaceOnUse">
<stop stop-color="#8A8A88"/>
<stop offset="0.4131" stop-color="#6D6D6B"/>
<stop offset="0.5186" stop-color="#656563"/>
<stop offset="1" stop-color="#C0BEAD"/>
</linearGradient>
<linearGradient id="paint1_linear_20931_1853" x1="28.4381" y1="34.2325" x2="28.4381" y2="0.468992" gradientUnits="userSpaceOnUse">
<stop stop-color="#8A8A88"/>
<stop offset="0.4131" stop-color="#6D6D6B"/>
<stop offset="0.5186" stop-color="#656563"/>
<stop offset="1" stop-color="#C0BEAD"/>
</linearGradient>
</defs>
</svg>
